<svg width="168" height="45" viewBox="0 0 168 45" fill="none" xmlns="http://www.w3.org/2000/svg">
<g clip-path="url(#clip0_74_701)">
<mask id="mask0_74_701" style="mask-type:luminance" maskUnits="userSpaceOnUse" x="0" y="0" width="44" height="45">
<path d="M43.1602 0H0V45H43.1602V0Z" fill="white"/>
</mask>
<g mask="url(#mask0_74_701)">
<path d="M1.63278 6.50795L12.1921 2.63755L23.4058 1.48511L36.4207 3.99653L40.9226 5.84941L43.0336 5.34652L43.0717 7.58456L43.0666 23.4334L40.2681 30.9646L34.1288 39.9407L23.2419 43.4818L10.6625 40.682L3.27027 31.0475L1.14124 19.2726V9.55518L1.63278 6.50795Z" fill="#051D49"/>
<path d="M17.1246 26.2459C16.1615 25.2402 15.1504 24.2813 14.1853 23.2776C12.5738 21.5982 11.8674 19.5817 12.0463 17.255C12.0792 16.8179 12.1392 16.3838 12.1891 15.9229C12.1192 15.9588 12.0852 15.9677 12.0632 15.9887C12.0153 16.0346 11.9643 16.0825 11.9294 16.1385C11.0472 17.5402 10.6096 19.0668 10.6695 20.7292C10.7425 22.7796 11.5927 24.4619 12.9924 25.9326C14.1393 27.1389 14.3971 28.5977 13.8846 30.1931C13.6068 31.0583 13.0333 31.6987 12.283 32.3084C13.4749 33.0338 14.6449 33.2044 15.8547 32.6926C16.9467 32.2306 17.9088 31.1062 18.2525 29.8329C18.4853 28.6286 18.1357 27.3015 17.1246 26.2459Z" fill="url(#paint0_linear_74_701)"/>
<path d="M19.5133 25.0516C19.5333 24.451 19.4494 23.9011 19.2025 23.4621C18.5901 22.3736 17.8758 21.3428 17.3134 20.2273C16.0114 17.648 16.9927 14.2466 19.2744 13.5043C16.7099 13.3516 15.483 14.9341 15.3221 15.1556C15.3112 15.1715 15.3042 15.1805 15.3032 15.1815C13.8385 17.2778 14.2981 19.6765 16.0804 21.5064C17.1574 22.6129 18.2904 23.6677 19.3174 24.8201C19.3854 24.8959 19.4494 24.9728 19.5133 25.0516Z" fill="url(#paint1_linear_74_701)"/>
<path d="M30.9754 20.0437C40.3398 15.2813 42.0153 13.2558 42.5558 12.6741C42.9434 12.256 43.0452 11.9228 43.0683 11.827C43.0683 10.4131 43.0683 9.39436 43.0703 7.97949C42.3499 9.11297 40.7364 10.3323 37.4985 12.1702C36.5073 12.733 31.0513 15.4728 27.3218 17.8417C25.6023 18.9332 23.4124 20.8389 22.8648 21.3797C22.8049 21.4386 22.71 21.3868 22.72 21.3019C22.8569 20.1644 23.1306 19.0599 23.6352 18.1409C24.8401 15.9469 27.4038 14.7175 29.5048 13.5062C32.2563 11.9208 37.3335 9.3255 37.3905 9.28958C37.3685 8.9224 37.2287 8.71087 36.849 8.54224C32.8546 6.76021 28.6945 5.64966 24.3346 5.28049C23.3085 5.19368 22.2855 5.14878 21.2654 5.1438C20.2443 5.14878 19.2213 5.19368 18.1962 5.28049C13.8362 5.64868 9.67606 6.76021 5.68174 8.54224C5.26312 8.72884 5.13525 8.9663 5.13624 9.40832C5.14623 12.8138 5.14323 16.2183 5.14323 19.6236C5.14423 19.6227 5.14623 19.6216 5.14823 19.6207V21.2401C5.15322 21.4058 5.15822 21.5713 5.16422 21.7369C5.27511 24.8929 6.64086 27.6059 8.86181 29.853C9.49622 30.4945 10.4763 30.5035 11.0678 29.9087C11.6952 29.2781 11.6982 28.3213 11.0468 27.6487C9.735 26.2949 8.80985 24.7313 8.36626 22.8824C7.61696 19.7623 8.35627 16.9816 10.0337 14.3015C11.0048 12.7489 11.6682 12.2051 12.1138 11.829C11.6802 11.2892 11.2486 10.7923 10.8999 10.2425C10.4403 9.51708 9.79295 8.25986 10.1726 7.45267C10.3194 7.14037 10.5452 7.63026 10.78 7.87473C11.5313 8.65998 12.1488 8.7877 12.7752 8.89247C13.5555 9.02317 14.1709 9.02617 14.8882 9.05211C16.267 9.103 17.6457 9.12594 18.9965 9.44723C19.8527 9.65078 20.6649 9.94114 21.1724 10.7474C21.2233 10.8292 21.3513 10.8671 21.4483 10.913C21.9498 11.1515 22.4802 11.341 22.9508 11.6294C24.2866 12.4476 24.3135 13.8694 23.6023 15.2863C23.5492 15.391 23.0457 16.2791 22.8699 16.1463C22.835 16.1204 22.835 16.0635 22.8569 15.9558C22.9757 15.4249 22.8919 14.937 22.5762 14.6218C22.0056 14.052 20.8807 14.2456 19.9626 15.0328C19.8837 15.1007 19.8057 15.1725 19.7297 15.2494C19.3461 15.6385 19.0734 16.0785 18.9255 16.5066C18.8396 16.8108 18.8006 17.1511 18.8246 17.5324C18.8596 18.093 19.0294 18.7406 19.3862 19.4829C20.0515 20.8679 20.7868 21.4874 21.4212 22.7168C22.0865 24.0079 22.2115 25.4727 21.8539 26.8136C22.2245 25.4477 27.6485 21.736 30.9754 20.0437Z" fill="url(#paint2_linear_74_701)"/>
<path d="M19.6302 11.9297C19.855 11.9297 20.0808 11.9317 20.3056 11.9287C20.4555 11.9267 20.5095 11.8618 20.4445 11.7122C20.2527 11.2751 19.9759 10.9329 19.4744 10.862C18.9579 10.7882 18.4364 10.8551 17.9179 10.8321C17.9078 10.8321 17.8998 10.8401 17.9009 10.8501C17.9737 11.4068 18.4633 11.8758 19.0218 11.9217C19.2237 11.9377 19.6302 11.9297 19.6302 11.9297Z" fill="url(#paint3_linear_74_701)"/>
<path d="M39.9583 25.8188C39.9484 25.8768 39.3199 29.8778 38.0421 32.008C36.9382 33.8499 34.8441 37.6466 30.2873 39.9954C28.5009 40.9163 26.167 41.0011 24.7644 39.9245C24.6384 39.8277 24.5246 39.7189 24.4177 39.6032C24.3997 39.5842 24.3816 39.5653 24.3637 39.5454C24.3628 39.5443 24.3628 39.5443 24.3617 39.5434C24.048 39.1931 23.4346 38.2143 23.6863 36.5151C24.3926 31.7556 29.1763 28.86 30.2423 28.1946C35.2696 25.0566 43.0365 21.1083 43.0725 19.8192C43.0714 18.2277 43.0685 14.7814 43.0685 14.7814C43.0685 14.7814 43.0705 17.1422 31.4182 22.9603C28.2111 24.5616 20.3574 29.3519 20.0546 35.9474C19.9988 37.1607 20.3475 38.2453 20.853 39.2689C20.9279 39.4205 21.0099 39.5693 21.0998 39.7149C21.1457 39.7898 21.1946 39.8636 21.2436 39.9365C21.9719 41.076 22.8941 41.5628 22.8941 41.5628C22.8941 41.5628 22.7621 41.5858 22.5234 41.6108C21.7441 41.6926 19.783 41.7983 17.1813 41.2047C17.1784 41.2036 17.1764 41.2036 17.1744 41.2027C16.9115 41.1427 16.6659 41.0839 16.434 41.0261C15.2361 40.7257 14.4029 40.4334 13.4218 39.9434L12.9672 39.7419C11.9482 39.233 10.987 38.6224 10.0809 37.9189C9.98296 37.8451 9.89104 37.7753 9.81012 37.7124C9.44844 37.429 9.25863 37.2515 9.25863 37.2515C8.44237 36.5381 7.67609 35.7418 6.95974 34.8668C5.37121 32.927 4.23325 30.8148 3.54589 28.5389C3.15424 27.2705 2.90348 25.9535 2.79457 24.5906C2.75062 24.0369 2.72264 23.4801 2.72165 22.9243C2.71665 17.9095 2.72465 12.8946 2.70866 7.87971C2.70666 7.39978 2.85153 7.13636 3.28513 6.92283C6.71297 5.23657 10.3007 4.03825 14.0522 3.35077C16.2002 2.95665 18.3703 2.7521 20.5582 2.7052C20.7941 2.70022 21.0298 2.69722 21.2656 2.69623H21.2665H21.2676C21.5034 2.69722 21.7391 2.70022 21.9749 2.7052C24.1638 2.75111 26.333 2.95665 28.4809 3.35077C32.2315 4.03825 35.8191 5.23657 39.2479 6.92283C39.5757 7.08347 39.7376 7.27306 39.7965 7.56141C40.4199 7.2112 42.501 6.00587 43.0095 5.37627C43.0235 5.35831 43.0156 5.33835 43.0046 5.31839C42.9107 5.14378 42.7198 5.06197 42.6458 5.02406C38.2579 2.81895 33.6332 1.36319 28.7906 0.612854C26.0581 0.189794 23.3077 0.0331423 20.5393 0.0920116C18.0246 0.144894 15.5309 0.381368 13.0621 0.833363C8.75109 1.6256 4.62789 3.00155 0.689517 4.93924C0.189978 5.1847 0.0251285 5.48702 0.0261276 6.03879C0.0451102 11.801 0.0351193 17.5643 0.0411137 23.3264C0.0421129 23.9649 0.0730843 24.6046 0.125036 25.2411C0.409773 28.7913 1.52575 32.0729 3.48094 35.0273C7.06064 40.4364 12.0391 43.7091 18.4591 44.6919C21.4115 45.1439 24.3377 44.9713 27.211 44.1781C31.634 42.9578 35.3207 40.5482 38.2169 36.9751C41.4039 33.0427 43.0405 28.5208 43.0665 23.4332C43.0676 23.3244 43.0675 23.2147 43.0675 23.1059C42.2552 24.1236 41.1253 24.8261 39.9583 25.8188Z" fill="url(#paint4_linear_74_701)"/>
<path d="M26.5786 37.4869C27.3349 38.5696 28.7707 37.9768 29.386 37.6555C31.3363 36.6409 32.6869 35.3806 34.0088 33.7322C36.5305 30.5873 37.0939 27.6618 37.1858 27.2727C36.3396 27.6768 31.8907 30.2151 29.9075 31.8046C26.8114 34.285 25.9682 36.6139 26.5786 37.4869Z" fill="url(#paint5_linear_74_701)"/>
<path d="M13.9016 35.5301C12.1942 35.3985 10.7725 34.5892 9.41273 33.6663C9.18094 33.5086 8.95615 33.347 8.73535 33.1824C8.83527 33.307 8.93717 33.4319 9.04108 33.5555C10.207 34.9385 11.5338 36.092 13.0205 36.986C13.3911 37.1945 13.8267 37.4239 14.3462 37.6774C14.5101 37.7571 14.6819 37.8389 14.8618 37.9239C14.8737 37.9288 14.8837 37.9337 14.8957 37.9397C16.632 38.75 18.0638 38.9864 18.0638 38.9864C18.0638 38.9864 17.2505 37.3421 17.5573 34.7868C16.4792 35.3686 15.2284 35.6329 13.9016 35.5301Z" fill="url(#paint6_linear_74_701)"/>
</g>
<mask id="mask1_74_701" style="mask-type:luminance" maskUnits="userSpaceOnUse" x="51" y="11" width="117" height="23">
<path d="M167.987 11.25H51.0498V33.1336H167.987V11.25Z" fill="white"/>
</mask>
<g mask="url(#mask1_74_701)">
<mask id="mask2_74_701" style="mask-type:luminance" maskUnits="userSpaceOnUse" x="51" y="11" width="117" height="23">
<path d="M167.988 11.25H51.0498V33.1336H167.988V11.25Z" fill="white"/>
</mask>
<g mask="url(#mask2_74_701)">
<path d="M60.314 12.2905L51.024 32.8548H54.9757L57.021 28.0935H67.3421L69.396 32.8548H73.4041L64.0881 12.2905H60.314ZM58.3079 25.0978L62.1728 16.0978L66.0509 25.0978H58.3079Z" fill="#051D49"/>
<path d="M89.7994 17.168H85.8172L81.9436 22.3003L78.0915 17.168H73.9926L79.8724 24.8816L73.7282 32.8545H77.7968L81.8787 27.4327L85.9083 32.8545H90.0636L83.9064 24.8298L89.7994 17.168Z" fill="#051D49"/>
<path d="M102.778 17.9882C101.578 17.3234 100.213 16.991 98.6792 16.991C97.1062 16.991 95.7067 17.332 94.4762 18.0184C93.2455 18.7047 92.2837 19.6501 91.586 20.8543C90.8884 22.0587 90.5374 23.4443 90.5374 25.0113C90.5374 26.5567 90.897 27.938 91.612 29.1551C92.3314 30.3681 93.3409 31.3264 94.6493 32.0214C95.9581 32.7165 97.4832 33.066 99.2338 33.066C100.612 33.066 101.834 32.8459 102.904 32.4056C103.974 31.9653 104.867 31.3352 105.573 30.5107L103.597 28.2488C103.047 28.8358 102.419 29.2675 101.708 29.5393C101.002 29.8157 100.204 29.9494 99.3204 29.9494C98.2978 29.9494 97.3922 29.7552 96.6079 29.3623C95.8195 28.9696 95.2127 28.4126 94.7794 27.6876C94.5064 27.2299 94.3201 26.7335 94.2205 26.1898H106.574C106.591 26.0127 106.609 25.8271 106.617 25.6328C106.626 25.4386 106.63 25.2616 106.63 25.1062C106.63 23.4616 106.288 22.0328 105.599 20.8155C104.919 19.5939 103.974 18.6572 102.778 17.9882ZM94.203 23.7465C94.2855 23.1552 94.4501 22.6198 94.7145 22.145C95.0958 21.4501 95.6287 20.9061 96.3047 20.5133C96.9849 20.1206 97.7736 19.9263 98.6792 19.9263C99.5631 19.9263 100.347 20.1206 101.023 20.5133C101.704 20.9061 102.237 21.4458 102.631 22.1277C102.908 22.6112 103.082 23.1509 103.151 23.7422H94.203V23.7465Z" fill="#051D49"/>
<path d="M112.505 11.0559H108.818V32.8548H112.505V11.0559Z" fill="#051D49"/>
<path d="M121.029 11.0559H117.341V32.8548H121.029V11.0559Z" fill="#051D49"/>
<path d="M135.787 17.9882C134.587 17.3234 133.222 16.991 131.688 16.991C130.115 16.991 128.715 17.332 127.485 18.0184C126.254 18.7047 125.292 19.6501 124.595 20.8543C123.897 22.0587 123.546 23.4443 123.546 25.0113C123.546 26.5567 123.906 27.938 124.621 29.1551C125.34 30.3681 126.35 31.3264 127.658 32.0214C128.967 32.7165 130.492 33.066 132.243 33.066C133.621 33.066 134.842 32.8459 135.913 32.4056C136.983 31.9653 137.875 31.3352 138.582 30.5107L136.606 28.2488C136.056 28.8358 135.427 29.2675 134.717 29.5393C134.01 29.8157 133.213 29.9494 132.329 29.9494C131.307 29.9494 130.401 29.7552 129.617 29.3623C128.828 28.9696 128.221 28.4126 127.788 27.6876C127.515 27.2299 127.329 26.7335 127.229 26.1898H139.583C139.6 26.0127 139.617 25.8271 139.626 25.6328C139.635 25.4386 139.639 25.2616 139.639 25.1062C139.639 23.4616 139.297 22.0328 138.608 20.8155C137.927 19.5939 136.983 18.6572 135.787 17.9882ZM127.212 23.7465C127.294 23.1552 127.459 22.6198 127.723 22.145C128.105 21.4501 128.637 20.9061 129.313 20.5133C129.994 20.1206 130.782 19.9263 131.688 19.9263C132.572 19.9263 133.356 20.1206 134.032 20.5133C134.712 20.9061 135.245 21.4458 135.64 22.1277C135.917 22.6112 136.09 23.1509 136.16 23.7422H127.212V23.7465Z" fill="#051D49"/>
<path d="M147.594 20.6905C148.322 20.2977 149.137 20.1034 150.042 20.1034C150.827 20.1034 151.559 20.2804 152.239 20.6301C152.919 20.984 153.491 21.5323 153.964 22.2746L156.794 20.6301C156.183 19.4344 155.293 18.5279 154.124 17.9105C152.954 17.2933 151.602 16.9868 150.068 16.9868C148.418 16.9868 146.949 17.3279 145.662 18.0143C144.375 18.7005 143.365 19.6458 142.637 20.8502C141.909 22.0546 141.545 23.4402 141.545 25.0071C141.545 26.5524 141.909 27.9337 142.637 29.151C143.365 30.364 144.371 31.3222 145.662 32.0171C146.949 32.7122 148.418 33.0618 150.068 33.0618C151.602 33.0618 152.954 32.7424 154.124 32.1079C155.293 31.4734 156.183 30.5668 156.794 29.3885L153.964 27.7437C153.491 28.4862 152.915 29.0345 152.239 29.3885C151.559 29.7423 150.827 29.9194 150.042 29.9194C149.137 29.9194 148.322 29.7251 147.594 29.3324C146.866 28.9394 146.299 28.3783 145.883 27.6446C145.471 26.9107 145.263 26.0344 145.263 25.0158C145.263 23.997 145.471 23.1207 145.883 22.387C146.299 21.6488 146.866 21.0834 147.594 20.6905Z" fill="#051D49"/>
<path d="M166.925 29.3883C166.374 29.8198 165.686 30.0357 164.861 30.0357C164.173 30.0357 163.639 29.8286 163.254 29.4183C162.873 29.0084 162.678 28.4299 162.678 27.683V20.224H166.894V17.2845H162.678V13.7017H158.99V27.7738C158.99 29.5177 159.462 30.8343 160.407 31.7235C161.353 32.6127 162.686 33.0616 164.42 33.0616C165.087 33.0616 165.737 32.9753 166.365 32.7982C166.994 32.6213 167.527 32.358 167.955 32.004L166.925 29.3883Z" fill="#051D49"/>
</g>
</g>
</g>
<defs>
<linearGradient id="paint0_linear_74_701" x1="-3.76965" y1="24.4557" x2="47.3518" y2="24.4557" gradientUnits="userSpaceOnUse">
<stop stop-color="#F6EA90"/>
<stop offset="0.11" stop-color="#AF7D2C"/>
<stop offset="0.1318" stop-color="#B98A35"/>
<stop offset="0.1868" stop-color="#CEA548"/>
<stop offset="0.2468" stop-color="#DFBA57"/>
<stop offset="0.3137" stop-color="#EAC962"/>
<stop offset="0.3929" stop-color="#F1D168"/>
<stop offset="0.5156" stop-color="#F3D46A"/>
<stop offset="0.6097" stop-color="#F1D168"/>
<stop offset="0.6836" stop-color="#E9C761"/>
<stop offset="0.7507" stop-color="#DCB655"/>
<stop offset="0.8136" stop-color="#CA9F44"/>
<stop offset="0.8731" stop-color="#B2812F"/>
<stop offset="0.88" stop-color="#AF7D2C"/>
<stop offset="0.9532" stop-color="#DBB554"/>
<stop offset="1" stop-color="#F3D46A"/>
</linearGradient>
<linearGradient id="paint1_linear_74_701" x1="-3.7697" y1="19.2723" x2="47.3518" y2="19.2723" gradientUnits="userSpaceOnUse">
<stop stop-color="#F6EA90"/>
<stop offset="0.11" stop-color="#AF7D2C"/>
<stop offset="0.1318" stop-color="#B98A35"/>
<stop offset="0.1868" stop-color="#CEA548"/>
<stop offset="0.2468" stop-color="#DFBA57"/>
<stop offset="0.3137" stop-color="#EAC962"/>
<stop offset="0.3929" stop-color="#F1D168"/>
<stop offset="0.5156" stop-color="#F3D46A"/>
<stop offset="0.6097" stop-color="#F1D168"/>
<stop offset="0.6836" stop-color="#E9C761"/>
<stop offset="0.7507" stop-color="#DCB655"/>
<stop offset="0.8136" stop-color="#CA9F44"/>
<stop offset="0.8731" stop-color="#B2812F"/>
<stop offset="0.88" stop-color="#AF7D2C"/>
<stop offset="0.9532" stop-color="#DBB554"/>
<stop offset="1" stop-color="#F3D46A"/>
</linearGradient>
<linearGradient id="paint2_linear_74_701" x1="-3.76999" y1="17.7456" x2="47.3514" y2="17.7456" gradientUnits="userSpaceOnUse">
<stop offset="0.0365" stop-color="#F3D46A"/>
<stop offset="0.0411" stop-color="#EDCD65"/>
<stop offset="0.066" stop-color="#D2AA4C"/>
<stop offset="0.0895" stop-color="#BF913A"/>
<stop offset="0.1109" stop-color="#B38230"/>
<stop offset="0.1283" stop-color="#AF7D2C"/>
<stop offset="0.1582" stop-color="#B88935"/>
<stop offset="0.2524" stop-color="#D2A94C"/>
<stop offset="0.3429" stop-color="#E4C15C"/>
<stop offset="0.4274" stop-color="#EFCF67"/>
<stop offset="0.4997" stop-color="#F3D46A"/>
<stop offset="0.5691" stop-color="#EFD067"/>
<stop offset="0.6454" stop-color="#E5C25D"/>
<stop offset="0.7248" stop-color="#D4AC4E"/>
<stop offset="0.806" stop-color="#BC8E38"/>
<stop offset="0.8439" stop-color="#AF7D2C"/>
<stop offset="0.8918" stop-color="#E2CB73"/>
<stop offset="0.9141" stop-color="#F6EA90"/>
</linearGradient>
<linearGradient id="paint3_linear_74_701" x1="0.540285" y1="11.3788" x2="42.0636" y2="11.3788" gradientUnits="userSpaceOnUse">
<stop stop-color="#F6EA90"/>
<stop offset="0.11" stop-color="#AF7D2C"/>
<stop offset="0.1318" stop-color="#B98A35"/>
<stop offset="0.1868" stop-color="#CEA548"/>
<stop offset="0.2468" stop-color="#DFBA57"/>
<stop offset="0.3137" stop-color="#EAC962"/>
<stop offset="0.3929" stop-color="#F1D168"/>
<stop offset="0.5156" stop-color="#F3D46A"/>
<stop offset="0.6097" stop-color="#F1D168"/>
<stop offset="0.6836" stop-color="#E9C761"/>
<stop offset="0.7507" stop-color="#DCB655"/>
<stop offset="0.8136" stop-color="#CA9F44"/>
<stop offset="0.8731" stop-color="#B2812F"/>
<stop offset="0.88" stop-color="#AF7D2C"/>
<stop offset="0.9532" stop-color="#DBB554"/>
<stop offset="1" stop-color="#F3D46A"/>
</linearGradient>
<linearGradient id="paint4_linear_74_701" x1="0.0261876" y1="22.5095" x2="43.0731" y2="22.5095" gradientUnits="userSpaceOnUse">
<stop offset="0.0365" stop-color="#F3D46A"/>
<stop offset="0.0411" stop-color="#EDCD65"/>
<stop offset="0.066" stop-color="#D2AA4C"/>
<stop offset="0.0895" stop-color="#BF913A"/>
<stop offset="0.1109" stop-color="#B38230"/>
<stop offset="0.1283" stop-color="#AF7D2C"/>
<stop offset="0.1582" stop-color="#B88935"/>
<stop offset="0.2524" stop-color="#D2A94C"/>
<stop offset="0.3429" stop-color="#E4C15C"/>
<stop offset="0.4274" stop-color="#EFCF67"/>
<stop offset="0.4997" stop-color="#F3D46A"/>
<stop offset="0.5827" stop-color="#EFD067"/>
<stop offset="0.6739" stop-color="#E5C25D"/>
<stop offset="0.7689" stop-color="#D4AC4E"/>
<stop offset="0.8659" stop-color="#BC8E38"/>
<stop offset="0.9112" stop-color="#AF7D2C"/>
<stop offset="0.9558" stop-color="#E2CB73"/>
<stop offset="0.9765" stop-color="#F6EA90"/>
</linearGradient>
<linearGradient id="paint5_linear_74_701" x1="-3.76984" y1="32.691" x2="47.3517" y2="32.691" gradientUnits="userSpaceOnUse">
<stop stop-color="#F6EA90"/>
<stop offset="0.11" stop-color="#AF7D2C"/>
<stop offset="0.1318" stop-color="#B98A35"/>
<stop offset="0.1868" stop-color="#CEA548"/>
<stop offset="0.2468" stop-color="#DFBA57"/>
<stop offset="0.3137" stop-color="#EAC962"/>
<stop offset="0.3929" stop-color="#F1D168"/>
<stop offset="0.5156" stop-color="#F3D46A"/>
<stop offset="0.6097" stop-color="#F1D168"/>
<stop offset="0.6836" stop-color="#E9C761"/>
<stop offset="0.7507" stop-color="#DCB655"/>
<stop offset="0.8136" stop-color="#CA9F44"/>
<stop offset="0.8731" stop-color="#B2812F"/>
<stop offset="0.88" stop-color="#AF7D2C"/>
<stop offset="0.9532" stop-color="#DBB554"/>
<stop offset="1" stop-color="#F3D46A"/>
</linearGradient>
<linearGradient id="paint6_linear_74_701" x1="-3.76956" y1="36.0843" x2="47.3518" y2="36.0843" gradientUnits="userSpaceOnUse">
<stop stop-color="#F6EA90"/>
<stop offset="0.11" stop-color="#AF7D2C"/>
<stop offset="0.1318" stop-color="#B98A35"/>
<stop offset="0.1868" stop-color="#CEA548"/>
<stop offset="0.2468" stop-color="#DFBA57"/>
<stop offset="0.3137" stop-color="#EAC962"/>
<stop offset="0.3929" stop-color="#F1D168"/>
<stop offset="0.5156" stop-color="#F3D46A"/>
<stop offset="0.6097" stop-color="#F1D168"/>
<stop offset="0.6836" stop-color="#E9C761"/>
<stop offset="0.7507" stop-color="#DCB655"/>
<stop offset="0.8136" stop-color="#CA9F44"/>
<stop offset="0.8731" stop-color="#B2812F"/>
<stop offset="0.88" stop-color="#AF7D2C"/>
<stop offset="0.9532" stop-color="#DBB554"/>
<stop offset="1" stop-color="#F3D46A"/>
</linearGradient>
<clipPath id="clip0_74_701">
<rect width="168" height="45" fill="white"/>
</clipPath>
</defs>
</svg>
