<svg width="55" height="55" viewBox="0 0 55 55" fill="none" xmlns="http://www.w3.org/2000/svg">
<g clip-path="url(#clip0_82_912)">
<path d="M45.0943 7.88647V21.6685L52.1688 28.6038L52.3654 28.7922L45.0943 35.9159V45.7538H35.0066L27.8774 52.8331L27.6809 52.6448L20.7265 45.7538H10.6386V35.9047L3.36761 28.781L3.56411 28.5928L10.5731 21.6574V7.88647C7.66654 10.3331 5.31323 13.3861 3.67326 16.8381C1.28124 21.8293 0.500096 27.4584 1.44084 32.9257C2.3816 38.3931 4.99638 43.4205 8.91366 47.2938C13.9698 52.3293 20.7713 55.1503 27.8556 55.1503C34.9399 55.1503 41.7413 52.3293 46.7974 47.2938C50.7194 43.4237 53.3383 38.3967 54.2811 32.9285C55.224 27.4603 54.4427 21.8296 52.0487 16.8381C50.3774 13.3877 48.0033 10.3365 45.0834 7.88647" fill="#00471C"/>
<path fill-rule="evenodd" clip-rule="evenodd" d="M35.334 42.9174C33.9638 42.8315 32.5883 42.9209 31.24 43.1833C31.3054 42.995 31.3601 42.7401 31.4365 42.5408C32.0673 42.3378 32.7307 42.2588 33.3907 42.308H33.0085C32.834 42.1419 31.7968 41.887 31.5238 41.6877L30.705 41.4106C30.705 41.0561 30.7814 40.7681 30.6396 40.5576C30.4775 40.3161 30.2987 40.0866 30.1045 39.8707C29.7224 39.5439 29.3578 39.1963 29.0129 38.8293C28.7277 38.5264 28.5476 38.1375 28.4996 37.7214C28.5017 37.494 28.5273 37.2675 28.5761 37.0456C28.8818 36.5138 28.9691 36.6357 29.1766 36.4473C29.3839 36.259 29.6133 36.3255 29.8207 36.2369C29.6801 36.4967 29.5194 36.7449 29.3403 36.9791C29.3403 37.4223 29.3403 37.378 29.4386 37.5109C29.5368 37.6439 29.5805 37.5996 29.7661 37.5109C30.0604 37.0419 30.2918 36.5353 30.454 36.0042C30.454 35.9045 30.454 35.8713 30.454 35.7715C30.6177 35.6829 30.2683 35.8601 30.0718 35.6275C29.9081 35.6275 29.6678 35.7937 29.5805 35.7272C29.2748 35.2952 29.3294 35.3838 29.3949 35.1069C29.4605 34.8298 29.7661 34.9406 30.2246 34.8521C30.2669 34.7499 30.3318 34.6591 30.4143 34.5865C30.4968 34.5141 30.5946 34.4618 30.7003 34.4339C30.8059 34.4061 30.9164 34.4034 31.0233 34.4259C31.1302 34.4484 31.2304 34.4957 31.3164 34.564C31.5565 34.6525 31.6548 35.0625 31.6767 35.3284V35.5942V37.0788C31.3323 37.3041 31.02 37.5762 30.7486 37.8875C30.699 38.1056 30.6734 38.3286 30.6722 38.5523L30.7705 38.8847L31.0981 38.7961C31.0645 38.5276 31.106 38.2551 31.2181 38.0095L31.5348 37.6549C31.68 37.5413 31.8375 37.4446 32.0042 37.3669L32.2662 37.2893C32.2662 36.8018 32.2662 36.3033 32.2662 35.8158C32.273 35.3656 32.1177 34.9285 31.8294 34.5862C31.6429 34.3615 31.3966 34.1961 31.1199 34.1097C30.9487 34.0546 30.7734 34.0138 30.5958 33.9879C30.3572 34.0081 30.1223 34.0602 29.8972 34.143C29.5586 34.2759 29.4713 34.4642 29.2639 34.6415C29.148 34.8334 29.0633 35.0429 29.0129 35.262C28.9751 35.5264 28.9751 35.795 29.0129 36.0596C28.8172 35.8561 28.6778 35.6039 28.6089 35.3284C28.5434 35.0847 28.5434 35.129 28.6089 34.6748C28.7263 34.3771 28.9006 34.1059 29.1219 33.8771C29.2845 33.6958 29.4917 33.562 29.7224 33.4893C29.9783 33.3825 30.2539 33.3334 30.5303 33.3452C30.7654 33.3426 31 33.3687 31.229 33.4229C31.4285 33.4603 31.6204 33.5314 31.7968 33.6333C32.075 33.7714 32.3122 33.9816 32.4845 34.2426C32.6496 34.4893 32.7715 34.7629 32.8448 35.0514C32.9547 35.3597 32.9957 35.6889 32.9649 36.0153V37.245C33.0879 37.2251 33.2131 37.2251 33.3361 37.245L33.5218 37.4445L33.6636 37.6882L34.0022 38.0095C34.286 38.3307 34.7663 38.364 35.0939 38.8404C35.1413 38.9804 35.1413 39.1324 35.0939 39.2724L34.6899 39.6491C34.6298 39.6887 34.5595 39.7098 34.4879 39.7098C34.4162 39.7098 34.3461 39.6887 34.286 39.6491C34.1549 39.5494 34.1877 39.3611 34.0567 39.2614C33.664 39.2384 33.2703 39.2384 32.8776 39.2614L33.0632 39.5717L33.5326 39.8818L33.9912 40.2363L34.5588 40.746C34.9192 41.0229 35.4432 41.322 35.5524 41.5436L35.6179 41.6877C35.7926 41.8981 35.4432 42.6182 35.4323 42.7955M34.5262 37.4223L33.3799 29.8554L34.4715 29.7004L35.3995 28.8694L34.7446 28.7033C34.3105 28.7802 33.904 28.9712 33.5655 29.2571V28.6368L35.334 20.7155L35.4541 17.558L34.941 18.123L34.81 20.649L32.7684 29.1686C32.692 29.2573 32.4628 29.9219 32.3862 30.0106V29.0578L33.7728 23.2746L34.3515 21.0589L34.5698 18.0898C34.6078 17.8841 34.6779 17.6859 34.7772 17.5026L35.4104 16.8269C35.3088 16.2382 35.2723 15.64 35.3013 15.0431C35.3013 14.6442 35.4323 14.3119 35.4541 13.9352L35.8799 12.1959L36.8625 9.9801L35.072 11.4093L34.8755 11.4758L35.2686 5.604L36.1091 4.06403L35.5196 0.806864L34.2095 3.79815L34.6571 5.58183L34.1877 12.7055C34.0895 13.0379 33.9475 13.204 33.8492 13.5364C33.3361 14.8437 33.6091 17.8682 33.5218 19.3528L33.0414 22.045L30.8579 30.0992C30.7596 30.1878 30.6832 30.199 30.5849 30.0992L30.3338 28.8584L29.515 21.7901V19.5744L29.6023 14.888C29.3294 13.5254 28.9691 12.1405 28.718 10.7889V9.83607C28.8599 9.94686 29.0565 10.4897 29.1983 10.6005L30.1918 15.0321C30.0897 15.6358 30.112 16.2544 30.2574 16.849C30.4539 17.1924 30.6395 17.4472 30.836 17.7906V19.2641C30.836 20.1062 30.836 21.2472 30.836 22.0893L31.3928 26.3988C31.6002 25.6677 31.7204 24.5266 31.9169 23.7954C31.7322 22.7749 31.6264 21.7416 31.6003 20.7044L31.7421 19.3971C31.8404 18.9982 31.8841 18.6991 31.9824 18.2892C32.1289 17.5134 32.1289 16.7163 31.9824 15.9405C31.7101 15.0569 31.5558 14.1403 31.5238 13.2151L31.4474 11.7859L31.895 5.9585L32.9868 3.74273L32.2553 0.685015L30.9015 3.65412L31.3491 5.86988C31.1962 7.91946 31.0216 9.93578 30.7924 11.9853C30.5849 11.9853 30.5413 11.9854 30.3884 11.7527L27.9102 0.164307L25.4319 11.7527C25.2681 11.9632 25.2244 11.941 25.0169 11.9853C24.7877 9.93578 24.613 7.91946 24.4711 5.86988L24.9079 3.65412L23.5649 0.773626L22.8444 3.83139L23.9361 6.04715L24.3728 11.8746L24.3073 13.3038C24.2646 14.2278 24.1106 15.1431 23.8488 16.0291C23.6842 16.8015 23.6657 17.5985 23.7942 18.3779C23.8816 18.7878 23.9252 19.0869 24.0235 19.4857L24.1655 20.793C24.1502 21.8309 24.0441 22.8652 23.8488 23.8841C24.0562 24.6152 24.1764 25.7563 24.3728 26.4875L24.9296 22.1779C24.9296 21.3359 24.9296 20.1947 24.9296 19.3528V17.8792C25.1262 17.5358 25.3008 17.2811 25.4973 16.9375C25.6426 16.3431 25.665 15.7244 25.5628 15.1207L26.5673 10.6892C26.6983 10.5784 26.8948 10.0355 27.0367 9.92473V10.8775C26.7856 12.2291 26.4253 13.614 26.1633 14.9766L26.2397 19.663V21.8787L25.4319 28.947L25.1808 30.1879C25.0825 30.2765 25.006 30.2654 24.9079 30.1879L22.7244 22.1336L22.233 19.4414C22.1566 17.9569 22.4186 14.9323 21.9055 13.625C21.8182 13.2926 21.6653 13.1265 21.578 12.7941L21.1085 5.67047L21.5561 3.88676L20.246 0.895511L19.6565 4.15268L20.4862 5.69262L20.8793 11.5643L20.6827 11.4978L18.8923 10.102L19.8749 12.3177L20.3006 14.0571C20.3006 14.4559 20.4317 14.7883 20.4643 15.165C20.4897 15.7623 20.4495 16.3605 20.3443 16.9487L20.9884 17.6245C21.0833 17.8099 21.153 18.0074 21.1958 18.2117L21.4142 21.1808L21.9929 23.3966L23.3685 29.1797V30.1325C23.292 30.0439 23.0518 29.3791 22.9754 29.2905L21.0758 20.7709L20.9447 18.2449L20.4316 17.6798L20.5409 20.8373L22.3094 28.7586V29.3791C21.9737 29.0953 21.5712 28.9045 21.1413 28.8251L20.4862 28.9913L21.4033 29.8223L22.495 29.9774L21.4033 37.5441L21.9491 37.2893C22.2592 36.998 22.4599 36.6063 22.5169 36.1815C22.5798 35.5536 22.7306 34.9381 22.9645 34.3534C23.1167 34.0106 23.3481 33.7099 23.6388 33.4767C23.9295 33.2433 24.271 33.0843 24.6349 33.013C25.1563 32.9307 25.6899 32.9993 26.1747 33.211C26.6594 33.4227 27.0756 33.7687 27.3751 34.2094L27.6263 34.7966C27.6604 35.0685 27.6786 35.3424 27.6808 35.6164H28.2812C28.291 35.3308 28.3165 35.0461 28.3578 34.7633C28.5697 34.1631 28.9841 33.658 29.5274 33.3377C30.0708 33.0174 30.7084 32.9024 31.3273 33.013C31.8557 33.1191 32.3345 33.3993 32.6899 33.8099C33.0452 34.2205 33.257 34.7388 33.2924 35.2841C33.3689 35.7605 33.4125 36.3033 33.478 36.68C33.6114 36.8903 33.7773 37.0773 33.9693 37.2339L34.5262 37.4223ZM25.7921 17.6688V23.0753L25.0825 29.0245L24.7986 26.5318L25.7921 17.6688ZM30.1592 17.8792V23.2858L30.8797 29.2351L31.1635 26.7424L30.1592 17.8792ZM20.4753 42.8287C21.8443 42.7319 23.2197 42.8101 24.5693 43.0614C24.5039 42.873 24.4493 42.6182 24.3728 42.4188C23.7419 42.2165 23.0786 42.1376 22.4186 42.1862H22.8008C22.9754 42.02 24.0125 41.7652 24.2745 41.5658L25.1043 41.2888C25.1043 40.9343 25.0279 40.6462 25.1699 40.4357C25.3318 40.1941 25.5106 39.9646 25.7048 39.7488C26.087 39.422 26.4515 39.0743 26.7965 38.7075C27.0817 38.4046 27.2618 38.0157 27.3097 37.5996C27.3077 37.3722 27.2821 37.1457 27.2332 36.9238C26.9275 36.392 26.8402 36.5138 26.6328 36.3255C26.4254 36.1372 26.1852 36.2037 25.9887 36.115C26.1292 36.3749 26.2899 36.6231 26.469 36.8573C26.469 37.3004 26.4689 37.2561 26.3707 37.389C26.2725 37.522 26.2288 37.4777 26.0432 37.389C25.7489 36.9201 25.5175 36.4134 25.3554 35.8823C25.3554 35.7826 25.3554 35.7494 25.3554 35.6497C25.1916 35.5611 25.5411 35.7383 25.7267 35.5056C25.9013 35.5056 26.1415 35.6718 26.2288 35.6054C26.5345 35.1733 26.4799 35.262 26.4144 34.9849C26.349 34.708 26.0432 34.8188 25.5847 34.7301C25.5425 34.628 25.4775 34.5372 25.395 34.4647C25.3125 34.3923 25.2146 34.34 25.109 34.3121C25.0034 34.2843 24.8929 34.2815 24.786 34.304C24.6792 34.3266 24.5789 34.3738 24.4929 34.4421C24.2528 34.5307 24.1545 34.9406 24.1326 35.2065V35.4724V36.957C24.477 37.1822 24.7893 37.4543 25.0607 37.7657C25.1103 37.9837 25.1358 38.2067 25.137 38.4305L25.0388 38.7628L24.7113 38.6741C24.7389 38.4059 24.6975 38.1349 24.5912 37.8875L24.2745 37.5331C24.1272 37.4166 23.9658 37.3198 23.7942 37.245L23.5432 37.1674C23.5432 36.68 23.5432 36.1815 23.5432 35.694C23.5364 35.2438 23.6917 34.8066 23.9798 34.4642C24.1663 34.2395 24.4128 34.0741 24.6895 33.9879C24.8606 33.9327 25.0358 33.892 25.2135 33.866C25.4521 33.8863 25.687 33.9384 25.9123 34.0212C26.2397 34.154 26.3271 34.3424 26.5455 34.5197C26.6613 34.7115 26.746 34.9209 26.7965 35.14C26.8343 35.4046 26.8343 35.6732 26.7965 35.9378C26.9883 35.7314 27.1269 35.4802 27.2004 35.2065C27.266 34.9628 27.266 35.0071 27.2004 34.5529C27.0831 34.2552 26.9087 33.9841 26.6874 33.7553C26.5249 33.5739 26.3176 33.44 26.087 33.3674C25.8308 33.2616 25.5553 33.2126 25.2789 33.2234C25.0438 33.2203 24.8092 33.2463 24.5803 33.3009C24.3802 33.3364 24.1881 33.4077 24.0125 33.5115C23.7344 33.6496 23.4972 33.8598 23.3248 34.1208C23.1598 34.3674 23.0379 34.641 22.9645 34.9296C22.8546 35.2379 22.8137 35.567 22.8444 35.8934V37.1231C22.7214 37.1033 22.5962 37.1033 22.4732 37.1231L22.2876 37.3226L22.1457 37.5663L21.8073 37.8875C21.5125 38.2089 21.043 38.2421 20.7155 38.7186C20.6725 38.8593 20.6725 39.0098 20.7155 39.1506L21.1303 39.5272C21.1905 39.5669 21.2607 39.5879 21.3323 39.5879C21.404 39.5879 21.4741 39.5669 21.5343 39.5272C21.6653 39.4276 21.6326 39.2393 21.7636 39.1395C22.1526 39.1166 22.5426 39.1166 22.9317 39.1395L22.757 39.4497L22.2876 39.7599L21.829 40.1145L21.2614 40.624C20.9011 40.9011 20.377 41.2002 20.2679 41.4218L20.2023 41.5658C19.984 41.9978 20.3552 42.7622 20.366 42.9506L20.4753 42.8287Z" fill="#9A7500"/>
</g>
<defs>
<clipPath id="clip0_82_912">
<rect width="55" height="55" fill="white"/>
</clipPath>
</defs>
</svg>
