<svg width="228" height="47" viewBox="0 0 228 47" fill="none" xmlns="http://www.w3.org/2000/svg">
<g clip-path="url(#clip0_238_155)">
<path d="M44.248 6.32546L23.9223 31.3888L12.9213 20.305C12.3274 19.7066 11.9937 18.8952 11.9937 18.049C11.9937 17.2028 12.3274 16.3912 12.9213 15.7928C13.5151 15.1945 14.3205 14.8584 15.1604 14.8584C16.0003 14.8584 16.8057 15.1945 17.3996 15.7928L23.919 22.2232L44.2544 6.31348" fill="#28BEF3"/>
<path d="M29.8157 8.62257L32.503 2.91188C29.8825 1.78779 27.0744 1.16539 24.2243 1.07666H24.0933L24.2872 7.38361C26.1878 7.4733 28.0585 7.89257 29.8157 8.62257Z" fill="#123841"/>
<path d="M6.95673 23.3339C7.01421 21.5463 7.36273 19.78 7.98854 18.1045L2.20584 15.5742C0.802231 19.1881 0.339624 23.0993 0.861501 26.9409C1.38341 30.7825 2.87274 34.4284 5.18961 37.5368L10.1004 33.5752C7.93864 30.6081 6.83195 27.0029 6.95673 23.3339Z" fill="#123841"/>
<path d="M24.6565 40.3621L24.6066 46.672C27.4944 46.5367 30.3299 45.8489 32.959 44.6463L30.1391 38.9988C28.4042 39.7673 26.5491 40.2287 24.6565 40.3621Z" fill="#123841"/>
<path d="M11.4111 35.1628L6.49622 39.1273C6.59979 39.2429 6.70463 39.3595 6.81212 39.4732C10.896 43.8628 16.5527 46.4554 22.5438 46.6835L22.5935 40.3909C18.3293 40.1635 14.3201 38.2892 11.4111 35.1628Z" fill="#123841"/>
<path d="M22.2309 7.40187L22.0368 1.10913C18.0469 1.3644 14.1936 2.66077 10.8607 4.8689C7.52776 7.07703 4.83166 10.12 3.04089 13.6946L8.82887 16.2272C10.1319 13.741 12.0454 11.6269 14.3897 10.0832C16.734 8.53941 19.4321 7.61674 22.2309 7.40187Z" fill="#123841"/>
<path d="M46.2446 25.3254L39.9427 25.1943C39.731 27.8159 38.8972 30.3491 37.5098 32.5836C36.1228 34.8181 34.2223 36.6891 31.9667 38.0417L34.7906 43.696C36.3334 42.8106 37.7688 41.7489 39.0669 40.5327C43.3216 36.5718 45.8912 31.1273 46.2446 25.3254Z" fill="#123841"/>
<path d="M39.9803 23.1414L46.2822 23.2726C46.2123 20.4092 45.6006 17.585 44.4797 14.9492L38.8003 17.7206C39.4988 19.4475 39.8978 21.2805 39.9803 23.1414Z" fill="#123841"/>
<path d="M23.9492 31.3479L23.8639 22.183L44.0933 6.32031" fill="url(#paint0_linear_238_155)"/>
<path d="M62.7859 33.0221C67.1199 33.0221 69.7605 30.8982 69.7605 27.4826C69.7605 23.8948 66.7181 22.6607 63.5609 21.9431C60.9777 21.3403 59.1694 21.0246 59.1694 18.9868C59.1694 17.2646 60.6907 16.1453 63.0155 16.1453C65.1682 16.1453 67.0051 17.2359 67.981 18.6423C68.0384 18.7284 69.3587 18.0683 69.3587 17.0063C69.3587 15.6573 67.1199 13.7056 62.9868 13.7056C59.0259 13.7056 56.2992 15.9443 56.2992 19.1016C56.2992 22.8616 59.2842 23.8661 62.1545 24.5263C64.6229 25.1003 66.8042 25.5883 66.8042 27.6835C66.8042 29.5205 65.3404 30.5825 62.7572 30.5825C60.2027 30.5825 58.2223 29.2909 57.1603 27.7409C57.0742 27.6261 55.8113 28.3437 55.8113 29.3196C55.8113 30.8408 58.3084 33.0221 62.7859 33.0221ZM81.4054 33.0221C86.3422 33.0221 88.7818 30.0658 88.7818 28.6881C88.7818 27.3104 87.0023 26.966 86.9449 27.1095C86.1699 29.1186 84.0747 30.3528 81.5776 30.3528C77.8463 30.3528 75.1196 27.4539 75.1196 23.3495C75.1196 19.2164 77.7602 16.3749 81.5202 16.3749C83.6154 16.3749 85.7107 17.3794 86.7727 19.2451C86.8301 19.3599 88.4948 19.0155 88.4948 17.6378C88.4948 16.3462 86.1412 13.7056 81.4915 13.7056C75.9233 13.7056 72.0485 17.7239 72.0485 23.4069C72.0485 29.0612 75.8946 33.0221 81.4054 33.0221ZM100.269 33.0221C105.78 33.0221 109.683 29.0325 109.683 23.3495C109.683 17.6665 105.837 13.7056 100.298 13.7056C94.8158 13.7056 90.8836 17.7239 90.8836 23.4069C90.8836 29.0612 94.7297 33.0221 100.269 33.0221ZM100.298 30.4102C96.5379 30.4102 93.8686 27.4826 93.8686 23.3495C93.8686 19.1877 96.5092 16.3175 100.269 16.3175C104.029 16.3175 106.698 19.2738 106.698 23.4069C106.698 27.54 104.058 30.4102 100.298 30.4102ZM115.803 23.0625V16.5184H119.621C122.347 16.5184 123.725 17.6378 123.725 19.7904C123.725 21.7996 122.433 23.0625 119.707 23.0625H115.803ZM121.17 25.1003C124.787 24.8133 126.71 22.8042 126.71 19.6469C126.71 15.973 124.299 14.0787 119.764 14.0787H114.483C113.536 14.0787 112.904 14.7388 112.904 15.7434V31.2426C112.904 32.2185 113.335 32.7638 114.138 32.7638H114.54C115.401 32.7638 115.832 32.2185 115.832 31.4148V25.3874H117.87L122.95 31.6157C123.581 32.4481 124.098 32.7638 124.873 32.7638C126.107 32.7638 126.739 31.7305 126.595 31.5583L121.17 25.1003ZM131.385 32.649H142.32C143.239 32.649 143.669 32.1898 143.669 31.3574V31.2139C143.669 30.4389 143.239 30.0371 142.32 30.0371H132.762V24.4115H140.024C140.942 24.4115 141.402 23.9809 141.402 23.1773V23.0912C141.402 22.3162 140.971 21.9144 140.024 21.9144H132.762V16.7193H142.148C143.066 16.7193 143.526 16.2888 143.526 15.4851V15.3129C143.526 14.5379 143.066 14.0787 142.148 14.0787H131.385C130.437 14.0787 129.806 14.7388 129.806 15.7434V31.013C129.806 32.0176 130.437 32.649 131.385 32.649ZM155.291 33.0221C160.228 33.0221 162.667 30.0658 162.667 28.6881C162.667 27.3104 160.888 26.966 160.83 27.1095C160.055 29.1186 157.96 30.3528 155.463 30.3528C151.732 30.3528 149.005 27.4539 149.005 23.3495C149.005 19.2164 151.646 16.3749 155.406 16.3749C157.501 16.3749 159.596 17.3794 160.658 19.2451C160.716 19.3599 162.38 19.0155 162.38 17.6378C162.38 16.3462 160.027 13.7056 155.377 13.7056C149.809 13.7056 145.934 17.7239 145.934 23.4069C145.934 29.0612 149.78 33.0221 155.291 33.0221ZM166.75 32.7638H167.18C168.042 32.7638 168.472 32.3046 168.472 31.4148V24.6411H178.259V31.4148C178.259 32.3046 178.69 32.7638 179.494 32.7638H179.924C180.785 32.7638 181.216 32.3046 181.216 31.4148V15.3129C181.216 14.4231 180.785 13.9639 179.924 13.9639H179.494C178.69 13.9639 178.259 14.4231 178.259 15.3129V22.0579H168.472V15.3129C168.472 14.4231 168.042 13.9639 167.18 13.9639H166.75C165.946 13.9639 165.516 14.4231 165.516 15.3129V31.4148C165.516 32.3046 165.946 32.7638 166.75 32.7638ZM189.154 24.8133L192.167 16.9489L195.153 24.8133H189.154ZM195.87 27.1956L197.506 31.4148C197.908 32.4768 198.597 32.7925 199.257 32.7925C200.147 32.7925 200.979 32.1324 200.893 31.9028L194.234 14.8537C194.004 14.2509 193.574 13.9065 192.196 13.9065C190.847 13.9065 190.388 14.2509 190.158 14.8537L183.557 31.9028C183.471 32.1611 184.303 32.7925 185.164 32.7925C185.796 32.7925 186.427 32.4768 186.8 31.4435L188.436 27.1956H195.87ZM204.765 32.7638H205.166C206.027 32.7638 206.458 32.3046 206.458 31.4148V15.3129C206.458 14.4231 206.027 13.9639 205.166 13.9639H204.765C203.932 13.9639 203.502 14.4231 203.502 15.3129V31.4148C203.502 32.3046 203.932 32.7638 204.765 32.7638ZM211.877 32.7638H212.192C213.053 32.7638 213.455 32.3046 213.455 31.4148V18.1831L223.128 31.8741C223.587 32.5055 223.817 32.7638 224.706 32.7638H224.936C225.797 32.7638 226.314 32.1324 226.314 31.0991V15.3129C226.314 14.4231 225.912 13.9639 225.108 13.9639H224.764C223.903 13.9639 223.53 14.4231 223.53 15.3129V28.1141L214.345 15.0833C213.8 14.337 213.455 13.9639 212.565 13.9639H212.077C211.159 13.9639 210.671 14.624 210.671 15.6286V31.4148C210.671 32.3046 211.044 32.7638 211.877 32.7638Z" fill="#66CEF5"/>
</g>
<defs>
<linearGradient id="paint0_linear_238_155" x1="23.8639" y1="18.8341" x2="44.0933" y2="18.8341" gradientUnits="userSpaceOnUse">
<stop stop-color="#229AC5"/>
<stop offset="0.171" stop-color="#24A7D6"/>
<stop offset="0.396" stop-color="#26B4E6"/>
<stop offset="0.652" stop-color="#27BBF0"/>
<stop offset="1" stop-color="#28BEF3"/>
</linearGradient>
<clipPath id="clip0_238_155">
<rect width="227.106" height="46.9998" fill="white"/>
</clipPath>
</defs>
</svg>
