<svg width="176" height="41" viewBox="0 0 176 41" fill="none" xmlns="http://www.w3.org/2000/svg">
<path d="M0 13.1772L3.60558 8.348L7.25079 3.47925L30.7861 3.51883L34.154 8.03133C36.0162 10.5251 37.5615 12.7022 37.6407 12.8605C37.6803 13.0188 33.5597 17.373 19.1769 31.7813L17.6317 30.5147C16.7996 29.8417 12.4809 25.6459 0 13.1772Z" fill="#EBBA1B"/>
<path d="M110.941 10.2871C112.288 10.2476 113.397 10.3271 113.397 10.4854C113.397 10.6833 111.535 16.4227 109.197 23.2705C106.899 30.1183 104.68 36.2536 104.284 36.9268C103.888 37.5996 102.858 38.4308 101.947 38.7871C101.076 39.1829 99.4508 39.5 96.3604 39.5V37.5205C96.3604 35.5418 96.3604 35.542 97.628 35.542C98.3411 35.542 99.2927 35.304 99.7285 34.9873C100.164 34.7099 100.758 33.7206 101.035 32.8105C101.511 31.2272 101.432 30.95 97.9453 21.292C96.0039 15.8691 94.3789 11.1184 94.3789 10.8018C94.4187 10.2874 94.8953 10.2084 99.3321 10.4062L101.63 17.5312C102.898 21.4496 104.046 24.4971 104.205 24.2998C104.364 24.1019 105.394 20.8958 108.484 10.4062L110.941 10.2871Z" fill="#233643"/>
<path fill-rule="evenodd" clip-rule="evenodd" d="M157.18 9.8125C158.487 9.81251 160.23 10.0101 161.022 10.208C161.855 10.4455 163.163 11.1977 163.955 11.9102C164.708 12.5831 165.54 13.8104 165.738 14.5625C165.936 15.3148 166.095 19.5508 166.095 31.9795L163.994 31.9004C161.974 31.7817 161.934 31.7412 161.538 29.1289L160.548 30.1582C159.993 30.7519 158.765 31.504 157.774 31.8604C156.507 32.3353 155.357 32.4538 153.812 32.2559C152.623 32.0975 151.197 31.7024 150.682 31.3066C150.167 30.9108 149.374 30.0791 148.898 29.4854C148.225 28.575 148.066 27.7829 148.066 25.6455C148.066 23.5086 148.225 22.7168 148.898 21.8066C149.374 21.2129 150.325 20.3417 151.078 19.9062C152.108 19.3126 153.416 19.075 161.142 18.7188L161.022 17.1357C160.983 16.265 160.627 15.2358 160.23 14.8398C159.874 14.444 158.843 14.0475 157.972 13.9287C157.1 13.8101 155.911 13.8895 155.277 14.127C154.683 14.3646 153.97 15.0772 153.732 15.75C153.257 16.8979 153.099 16.9375 150.959 16.9375C148.938 16.9375 148.661 16.858 148.661 16.1455C148.661 15.71 148.899 14.7602 149.216 14.0479C149.493 13.3749 150.167 12.3851 150.682 11.9102C151.197 11.3956 152.346 10.7229 153.218 10.4062C154.09 10.0896 155.872 9.85208 157.18 9.8125ZM161.34 22.4795C156.585 22.4795 154.763 22.7171 154.208 22.9941C153.416 23.3899 153.178 23.8252 153.099 25.1709C153.059 26.2396 153.218 27.0309 153.614 27.4268C153.931 27.7434 154.604 28.14 155.119 28.2588C155.595 28.3775 156.784 28.2585 157.774 27.9814C159.042 27.5856 159.795 27.0314 160.429 26.042C160.944 25.29 161.34 24.1817 161.34 23.5879V22.4795Z" fill="#233643"/>
<path d="M66.0498 3.12305C67.3573 3.08352 69.4179 3.36058 70.6065 3.7168C72.0327 4.15222 73.3007 4.86456 74.2119 5.81445C75.1628 6.72486 75.8757 7.99205 76.3116 9.41699C76.6681 10.6044 76.9453 11.9899 76.9453 12.4648C76.9453 13.2958 76.7868 13.375 74.5684 13.375C72.31 13.375 72.1909 13.3353 71.9532 12.2666C71.8343 11.6729 71.517 10.6836 71.2793 10.0898C71.002 9.45653 70.3682 8.66486 69.8135 8.30859C69.1795 7.91278 67.9511 7.67532 66.3662 7.63574C64.5043 7.63576 63.6724 7.83356 62.8008 8.4668C62.2065 8.90218 61.4933 9.89151 61.2158 10.6436C60.9385 11.4352 60.7403 14.325 60.7403 17.5312C60.7006 20.5787 60.8986 23.7448 61.0967 24.5371C61.3344 25.4079 61.9687 26.3976 62.6026 26.833C63.1969 27.2684 64.4646 27.7435 65.4551 27.8623C66.6436 28.0206 67.8322 27.902 68.9414 27.4668C70.13 26.9918 70.7649 26.4773 71.1612 25.5273C71.4781 24.8545 71.8342 23.7857 71.9532 23.1523C72.1909 22.1232 72.31 22.083 74.5684 22.083C76.787 22.083 76.9453 22.1625 76.9453 22.9541C76.9453 23.4687 76.6681 24.8545 76.3116 26.042C75.8757 27.4667 75.1627 28.7332 74.2119 29.6436C73.2215 30.6331 72.0326 31.3063 70.4082 31.7812C68.7045 32.2958 67.2379 32.4142 65.2569 32.2559C63.5137 32.1371 61.7312 31.7015 60.503 31.1475C59.1162 30.4746 58.2436 29.6836 57.4512 28.417C56.8173 27.4274 56.144 25.725 55.9063 24.6562C55.6686 23.5083 55.5497 20.0648 55.6289 16.542C55.7478 10.9609 55.8275 10.2085 56.7783 8.22949C57.3727 6.92328 58.3233 5.65627 59.1553 5.0625C59.8684 4.54801 61.2152 3.87531 62.0869 3.6377C62.9586 3.36062 64.7423 3.12305 66.0498 3.12305Z" fill="#233643"/>
<path d="M123.897 9.93164C126.195 10.0108 127.464 10.2481 128.454 10.8418C129.207 11.2773 130.237 12.2666 130.752 13.0186C131.227 13.7706 131.624 14.8398 131.624 15.4336C131.624 16.5021 131.584 16.542 129.246 16.542C127.385 16.542 126.869 16.4229 126.869 15.9482C126.869 15.6316 126.512 14.9979 126.076 14.5625C125.522 14.0085 124.768 13.7705 123.382 13.7705C122.352 13.7706 121.123 14.0476 120.608 14.3643C120.093 14.7205 119.737 15.3541 119.737 16.0664C119.698 16.6601 119.936 17.3333 120.213 17.6104C120.491 17.8874 121.797 18.3231 123.105 18.5605C124.412 18.798 126.353 19.2337 127.463 19.5107C128.85 19.9065 129.801 20.4603 130.712 21.4893C131.861 22.7559 131.98 23.1921 132.02 25.3691C132.02 27.3084 131.862 28.1003 131.148 29.1689C130.633 29.921 129.602 30.8708 128.85 31.2666C128.097 31.6624 126.234 32.0981 124.689 32.2168C122.907 32.4146 121.164 32.2956 119.737 31.9395C118.39 31.6228 117.042 30.9894 116.25 30.2373C115.537 29.5644 114.745 28.377 114.547 27.625C114.349 26.8729 114.19 26.0017 114.19 25.7246C114.191 25.4082 114.944 25.25 116.567 25.25C118.43 25.25 118.944 25.3688 118.944 25.8438C118.944 26.1604 119.381 26.8726 119.936 27.4268C120.768 28.2579 121.282 28.417 123.303 28.417C125.165 28.417 125.839 28.2583 126.473 27.625C126.909 27.1896 127.266 26.4374 127.266 25.9229C127.305 25.4479 126.988 24.7351 126.592 24.3789C126.195 23.9831 124.135 23.35 121.916 22.875C119.737 22.4396 117.557 21.8059 117.082 21.4893C116.567 21.1725 115.894 20.4998 115.577 19.9854C115.26 19.5104 114.864 18.4815 114.745 17.7295C114.626 16.9775 114.705 15.6316 114.942 14.7607C115.141 13.8899 115.854 12.7017 116.448 12.0684C117.043 11.4747 118.271 10.7229 119.143 10.4062C120.212 10.0104 121.758 9.85248 123.897 9.93164Z" fill="#233643"/>
<path d="M88.2373 10.5254C89.109 10.1296 90.4564 9.85248 92.5957 10.0107V14.3643L90.8135 14.6025C89.8232 14.7213 88.6344 15.0769 88.1192 15.3936C87.6437 15.7102 86.8909 16.6605 86.4551 17.5312C85.7815 18.9167 85.6621 19.9858 85.6621 31.9795H80.9073V10.208H82.8887C84.6321 10.208 84.9099 10.327 85.0684 11.0791C85.1476 11.5937 85.3055 12.3458 85.3848 12.7812C85.5037 13.4542 85.5826 13.4143 86.0977 12.4248C86.4146 11.752 87.3262 10.9609 88.2373 10.5254Z" fill="#233643"/>
<path d="M176 31.9795H170.85V1.5H176V31.9795Z" fill="#233643"/>
<path d="M141.529 10.208H146.283V14.167H141.529V20.3809C141.49 25.012 141.609 26.754 142.005 27.1104C142.283 27.3874 143.471 27.7439 146.72 28.2188L146.481 31.7812H143.312C140.935 31.7812 139.826 31.5829 139.033 31.0684C138.439 30.7121 137.646 29.8018 137.289 29.1289C136.695 28.0602 136.576 26.5943 136.378 14.167H133.208V10.208H136.774L136.695 7.71484C136.656 6.32953 136.775 5.06226 136.973 4.94336C137.172 4.78514 138.242 4.66699 141.529 4.66699V10.208Z" fill="#233643"/>
</svg>
