<svg width="207" height="47" viewBox="0 0 207 47" fill="none" xmlns="http://www.w3.org/2000/svg">
<g clip-path="url(#clip0_74_797)">
<path fill-rule="evenodd" clip-rule="evenodd" d="M8.54152 29.1998C8.54152 29.5984 8.86484 29.9217 9.26353 29.9217H16.3611C16.7598 29.9217 17.0831 29.5984 17.0831 29.1998V25.652H20.6319C21.0305 25.652 21.3539 25.3288 21.3539 24.9302V22.1041C21.3539 21.7055 21.0305 21.3824 20.6319 21.3824H9.26353C8.86484 21.3824 8.54152 21.7055 8.54152 22.1041V29.1998ZM8.54152 13.5404C8.54152 13.1418 8.21822 12.8186 7.81954 12.8186H0.721992C0.323306 12.8186 0 13.1418 0 13.5404V20.6361C0 21.0347 0.323306 21.3579 0.721992 21.3579H3.54877C3.94746 21.3579 4.27076 21.0347 4.27076 20.6361V17.0882H7.81954C8.21822 17.0882 8.54152 16.7651 8.54152 16.3665V13.5404ZM12.8123 39.1582C12.8123 38.7596 12.489 38.4365 12.0903 38.4365H9.26353C8.86484 38.4365 8.54152 38.7596 8.54152 39.1582V41.9842C8.54152 42.3829 8.86484 42.7061 9.26353 42.7061H12.0903C12.489 42.7061 12.8123 42.3829 12.8123 41.9842V39.1582ZM63.3395 12.8186H56.2419C55.8433 12.8186 55.5199 13.1418 55.5199 13.5404V16.3665C55.5199 16.7651 55.8433 17.0882 56.2419 17.0882H59.7907V20.6361C59.7907 21.0347 60.114 21.3579 60.5127 21.3579H63.3395C63.7382 21.3579 64.0615 21.0347 64.0615 20.6361V13.5404C64.0615 13.1418 63.7382 12.8186 63.3395 12.8186ZM54.7979 21.3579H43.4296C43.0309 21.3579 42.7076 21.6811 42.7076 22.0797V24.9058C42.7076 25.3042 43.0309 25.6275 43.4296 25.6275H46.9784V29.1754C46.9784 29.5739 47.3017 29.8972 47.7004 29.8972H54.7979C55.1966 29.8972 55.5199 29.5739 55.5199 29.1754V22.0797C55.5199 21.6811 55.1966 21.3579 54.7979 21.3579ZM50.5272 42.7305H46.9784V39.1828C46.9784 38.7841 46.6552 38.4609 46.2564 38.4609H42.7076V30.6434C42.7076 30.2448 42.3843 29.9217 41.9856 29.9217H38.437V22.1041C38.437 21.7055 38.1135 21.3824 37.715 21.3824H26.3465C25.948 21.3824 25.6245 21.7055 25.6245 22.1041V29.9217H22.0759C21.677 29.9217 21.3539 30.2448 21.3539 30.6434V38.4609H17.8051C17.4064 38.4609 17.0831 38.7841 17.0831 39.1828V42.7305H13.5343C13.1356 42.7305 12.8123 43.0538 12.8123 43.4524V46.2784C12.8123 46.677 13.1356 47.0002 13.5343 47.0002H20.6319C21.0305 47.0002 21.3539 46.677 21.3539 46.2784V42.7305H24.9025C25.3013 42.7305 25.6245 42.4074 25.6245 42.0088V34.1912H38.437V42.0088C38.437 42.4074 38.7602 42.7305 39.1588 42.7305H42.7076V46.2784C42.7076 46.677 43.0309 47.0002 43.4296 47.0002H50.5272C50.9258 47.0002 51.2492 46.677 51.2492 46.2784V43.4524C51.2492 43.0538 50.9258 42.7305 50.5272 42.7305ZM54.7979 38.4365H51.9712C51.5725 38.4365 51.2492 38.7596 51.2492 39.1582V41.9842C51.2492 42.3829 51.5725 42.7061 51.9712 42.7061H54.7979C55.1966 42.7061 55.5199 42.3829 55.5199 41.9842V39.1582C55.5199 38.7596 55.1966 38.4365 54.7979 38.4365Z" fill="black"/>
<path fill-rule="evenodd" clip-rule="evenodd" d="M17.8043 12.8181H46.2558C46.6544 12.8181 46.9777 12.4947 46.9777 12.0958V9.26772C46.9777 8.86872 46.6544 8.54541 46.2558 8.54541H42.707V4.99501C42.707 4.59616 42.3838 4.2727 41.985 4.2727H38.4362V0.722319C38.4362 0.323453 38.1129 0 37.7142 0H26.346C25.9472 0 25.6239 0.323453 25.6239 0.722319V4.2727H22.0751C21.6764 4.2727 21.3531 4.59616 21.3531 4.99501V8.54541H17.8043C17.4058 8.54541 17.0823 8.86872 17.0823 9.26772V12.0958C17.0823 12.4947 17.4058 12.8181 17.8043 12.8181Z" fill="#1BEDBA"/>
<path fill-rule="evenodd" clip-rule="evenodd" d="M137.783 20.9328C135.536 20.9328 133.507 21.8575 132.079 23.3403C130.683 21.8518 128.696 20.9213 126.494 20.9213C125.258 20.9213 123.997 21.374 123.024 22.0282V21.8114C123.024 21.4987 122.765 21.2609 122.463 21.2609H119.33C119.03 21.2609 118.769 21.4987 118.769 21.8114V37.4274C118.769 37.7401 119.028 37.9779 119.33 37.9779H122.471C122.771 37.9779 123.032 37.7401 123.032 37.4274V28.5604C123.032 26.6497 124.583 25.1034 126.494 25.1034C128.406 25.1034 129.955 26.6516 129.955 28.5604V37.4274C129.955 37.7401 130.214 37.9779 130.516 37.9779H133.584C133.591 37.9779 133.597 37.9779 133.601 37.9779H133.67C133.97 37.9779 134.231 37.7401 134.231 37.4274V28.5661C134.231 26.665 135.815 25.1111 137.783 25.1111C139.751 25.1111 141.335 26.665 141.335 28.5661V37.4255C141.335 37.7382 141.594 37.976 141.896 37.976H145.048C145.35 37.976 145.609 37.7382 145.609 37.4255V28.5661C145.608 24.3438 142.098 20.9328 137.783 20.9328ZM161.281 29.3201C160.084 28.593 158.549 28.2439 157.21 27.9408L157.183 27.935C156.212 27.7144 155.357 27.5188 154.742 27.2309C154.133 26.947 153.857 26.6209 153.857 26.1719C153.857 25.7845 154.002 25.4411 154.349 25.1705C154.704 24.8924 155.293 24.6775 156.201 24.6239C157.75 24.6239 158.95 24.6603 159.761 24.6967C160.168 24.7141 160.478 24.7332 160.683 24.7467C160.788 24.7543 160.865 24.7581 160.918 24.7619C160.945 24.7638 160.964 24.7658 160.975 24.7658L160.989 24.7677H160.993L161.006 24.7696H161.02C161.26 24.7696 161.479 24.7236 161.629 24.5682C161.761 24.43 161.789 24.2536 161.801 24.1672C161.801 24.1615 161.802 24.1558 161.802 24.152C161.808 24.1154 161.812 24.0885 161.817 24.0637L161.825 24.0311V22.1069C161.825 21.8728 161.809 21.6579 161.72 21.4929C161.608 21.2878 161.422 21.2224 161.272 21.1898L161.257 21.1879L161.244 21.186H161.238L161.224 21.1841C161.21 21.1822 161.191 21.1802 161.166 21.1783C161.113 21.1726 161.037 21.165 160.936 21.1553C160.729 21.1362 160.422 21.1112 160.007 21.0862C159.177 21.0363 157.916 20.9865 156.19 20.9865H156.184H156.178C153.968 21.0691 152.292 21.6829 151.164 22.6535C150.032 23.6263 149.475 24.9385 149.475 26.358C149.475 27.2923 149.69 28.0578 150.071 28.6889C150.449 29.3181 150.981 29.7959 151.589 30.17C152.786 30.9047 154.319 31.2597 155.655 31.5686L155.683 31.5743C156.656 31.7987 157.512 31.9982 158.127 32.2899C158.735 32.5776 159.017 32.9095 159.017 33.3719C159.017 33.7574 158.838 34.1008 158.406 34.3636C157.956 34.6361 157.227 34.8183 156.156 34.8183C154.937 34.8183 153.607 34.6879 152.577 34.5556C152.061 34.4904 151.625 34.4231 151.315 34.3733C151.161 34.3483 151.039 34.3272 150.956 34.3138C150.934 34.31 150.913 34.3062 150.897 34.3043C150.884 34.3022 150.869 34.3003 150.86 34.2984L150.837 34.2946L150.83 34.2927L150.803 34.2869H150.775C150.556 34.2869 150.349 34.3272 150.203 34.4749C150.073 34.6034 150.046 34.7743 150.034 34.8528C150.032 34.8586 150.032 34.8644 150.032 34.8683C150.024 34.9104 150.018 34.9373 150.012 34.9642L150.004 34.9949L149.884 37.1664V37.1742C149.884 37.3161 149.905 37.485 149.982 37.6366C150.06 37.7977 150.203 37.9415 150.42 37.9971L150.427 37.999L150.436 38.001L150.445 37.9512C150.436 38.001 150.436 38.001 150.436 38.001L150.443 38.0029C150.446 38.0048 150.455 38.0048 150.464 38.0067C150.482 38.0107 150.508 38.0145 150.543 38.0221C150.612 38.0355 150.712 38.0528 150.844 38.074C151.11 38.1161 151.496 38.1718 151.997 38.2293C152.992 38.3424 154.429 38.4538 156.197 38.4538H156.212C156.429 38.4557 158.195 38.469 159.918 37.8225C160.783 37.4984 161.655 37.0015 162.313 36.238C162.976 35.4687 163.405 34.4423 163.405 33.0956C163.405 32.1709 163.188 31.4113 162.808 30.7859C162.423 30.1603 161.89 29.6884 161.281 29.3201ZM196.701 21.2704C194.947 21.2704 193.307 21.7635 191.93 22.6171V15.4623C191.93 15.1496 191.67 14.9116 191.368 14.9116H188.223C187.924 14.9116 187.662 15.1496 187.662 15.4623V37.4312C187.662 37.7439 187.922 37.9819 188.223 37.9819H191.368C191.669 37.9819 191.93 37.7439 191.93 37.4312V36.7002C193.229 37.7132 194.951 38.4519 196.701 38.4519C201.594 38.4519 205.577 34.6149 205.577 29.8611C205.577 25.1072 201.594 21.2704 196.701 21.2704ZM196.701 34.3043C194.164 34.3043 192.106 32.3148 192.106 29.8611C192.106 27.4075 194.163 25.418 196.701 25.418C199.238 25.418 201.296 27.4075 201.296 29.8611C201.296 32.3148 199.241 34.3043 196.701 34.3043ZM182.825 21.2704H179.673C179.371 21.2704 179.111 21.5084 179.111 21.8211V30.9028C179.111 32.7771 177.531 34.3138 175.559 34.3138C175.551 34.3138 175.542 34.3138 175.533 34.3138C175.523 34.3138 175.515 34.3138 175.505 34.3138C173.533 34.3138 171.954 32.7771 171.954 30.9028V21.8211C171.954 21.5084 171.694 21.2704 171.393 21.2704H168.241C167.939 21.2704 167.679 21.5084 167.679 21.8211V30.9028C167.679 35.0811 171.193 38.45 175.505 38.45C175.515 38.45 175.523 38.45 175.533 38.45C175.542 38.45 175.551 38.45 175.559 38.45C179.871 38.45 183.386 35.0811 183.386 30.9028V21.8211C183.386 21.5084 183.126 21.2704 182.825 21.2704ZM92.4061 29.3201C91.2087 28.593 89.6731 28.2439 88.3354 27.9408L88.3083 27.935C87.3359 27.7144 86.4825 27.5188 85.8675 27.2309C85.2583 26.947 84.9815 26.6209 84.9815 26.1719C84.9815 25.7845 85.1276 25.4411 85.4735 25.1705C85.829 24.8924 86.4172 24.6775 87.3262 24.6239C88.8753 24.6239 90.0747 24.6603 90.8857 24.6967C91.2933 24.7141 91.6027 24.7332 91.8083 24.7467C91.9121 24.7543 91.9909 24.7581 92.0429 24.7619C92.0697 24.7638 92.089 24.7658 92.1004 24.7658L92.1139 24.7677H92.1177L92.1312 24.7696H92.1447C92.3849 24.7696 92.604 24.7236 92.754 24.5682C92.8866 24.43 92.9134 24.2536 92.925 24.1672C92.925 24.1615 92.9269 24.1558 92.9269 24.152C92.9327 24.1154 92.9365 24.0885 92.9424 24.0637L92.95 24.0311V22.1069C92.95 21.8728 92.9346 21.6579 92.8443 21.4929C92.7329 21.2878 92.5464 21.2224 92.3965 21.1898L92.383 21.1879L92.3695 21.186H92.3638L92.3484 21.1841C92.335 21.1822 92.3158 21.1802 92.2907 21.1783C92.2389 21.1726 92.1619 21.165 92.06 21.1553C91.8545 21.1362 91.5469 21.1112 91.1318 21.0862C90.3016 21.0363 89.0406 20.9865 87.3147 20.9865H87.309H87.3031C85.0929 21.0691 83.417 21.6829 82.2888 22.6535C81.1586 23.6263 80.6012 24.9385 80.6012 26.358C80.6012 27.2923 80.8166 28.0578 81.1971 28.6889C81.5757 29.3181 82.108 29.7959 82.7154 30.17C83.9129 30.9047 85.4466 31.2597 86.7824 31.5686L86.8093 31.5743C87.7837 31.7987 88.639 31.9982 89.2541 32.2899C89.8614 32.5776 90.1439 32.9095 90.1439 33.3719C90.1439 33.7574 89.9651 34.1008 89.5327 34.3636C89.0829 34.6361 88.3546 34.8183 87.282 34.8183C86.0635 34.8183 84.7336 34.6879 83.7034 34.5556C83.1883 34.4904 82.7519 34.4231 82.4425 34.3733C82.2888 34.3483 82.1657 34.3272 82.0831 34.3138C82.06 34.31 82.0408 34.3062 82.0235 34.3043C82.0101 34.3022 81.9966 34.3003 81.9871 34.2984L81.9639 34.2946L81.9562 34.2927L81.9294 34.2869H81.9004C81.6814 34.2869 81.4738 34.3272 81.3278 34.4749C81.199 34.6034 81.1702 34.7743 81.1586 34.8528C81.1567 34.8586 81.1567 34.8644 81.1567 34.8683C81.1491 34.9104 81.1432 34.9373 81.1375 34.9642L81.1299 34.9949L81.0049 37.1645V37.1723C81.0049 37.3142 81.0261 37.4831 81.1028 37.6345C81.1817 37.7958 81.3239 37.9396 81.5411 37.9952L81.5488 37.9971L81.5565 37.999L81.566 37.9493C81.5565 37.999 81.5565 37.999 81.5565 37.999H81.5584L81.5641 38.001C81.5681 38.0029 81.5757 38.0029 81.5853 38.0048C81.6026 38.0086 81.6296 38.0126 81.6641 38.0202C81.7332 38.0336 81.8332 38.0509 81.9659 38.0719C82.2311 38.1142 82.6175 38.1699 83.1172 38.2273C84.1127 38.3405 85.5504 38.4519 87.3186 38.4519H87.3321C87.5492 38.4538 89.3155 38.4671 91.0396 37.8206C91.9044 37.4964 92.7771 36.9996 93.4343 36.2361C94.0974 35.4668 94.526 34.4404 94.526 33.0937C94.526 32.169 94.3089 31.4094 93.9283 30.7838C93.5477 30.1603 93.0153 29.6884 92.4061 29.3201ZM113.937 21.2704H110.785C110.483 21.2704 110.224 21.5084 110.224 21.8211V30.9028C110.224 32.7771 108.644 34.3138 106.672 34.3138C106.663 34.3138 106.655 34.3138 106.645 34.3138C106.636 34.3138 106.628 34.3138 106.618 34.3138C104.647 34.3138 103.067 32.7771 103.067 30.9028V21.8211C103.067 21.5084 102.807 21.2704 102.505 21.2704H99.3533C99.0516 21.2704 98.7921 21.5084 98.7921 21.8211V30.9028C98.7921 35.0811 102.306 38.45 106.618 38.45C106.628 38.45 106.636 38.45 106.645 38.45C106.655 38.45 106.663 38.45 106.672 38.45C110.983 38.45 114.499 35.0811 114.499 30.9028V21.8211C114.499 21.5084 114.239 21.2704 113.937 21.2704Z" fill="black"/>
</g>
<defs>
<clipPath id="clip0_74_797">
<rect width="207" height="47" fill="white"/>
</clipPath>
</defs>
</svg>
