<svg width="197" height="33" viewBox="0 0 197 33" fill="none" xmlns="http://www.w3.org/2000/svg">
<g clip-path="url(#clip0_238_139)">
<mask id="mask0_238_139" style="mask-type:luminance" maskUnits="userSpaceOnUse" x="2" y="1" width="194" height="32">
<path d="M196 1.5H2V32.5H196V1.5Z" fill="white"/>
</mask>
<g mask="url(#mask0_238_139)">
<path d="M101.829 9.81543L89.364 17.082V31.7509L102.042 24.3729L101.829 9.81543Z" fill="url(#paint0_linear_238_139)"/>
<path d="M89.364 32.4096C88.963 32.4096 88.565 32.3034 88.207 32.094L77.065 25.5432C76.352 25.1241 75.908 24.3429 75.908 23.5021V10.4007C75.908 9.56252 76.352 8.77863 77.065 8.35953L88.207 1.81432C88.92 1.39522 89.808 1.39522 90.521 1.81432L101.663 8.36502C102.376 8.78412 102.82 9.56523 102.82 10.4062V23.5075C102.82 24.3458 102.376 25.1295 101.663 25.5486L90.521 32.0993C90.166 32.3089 89.765 32.415 89.364 32.415V32.4096ZM89.364 3.07442C89.233 3.07442 89.099 3.10982 88.982 3.17782L77.84 9.72853C77.605 9.86733 77.458 10.1258 77.458 10.4007V23.5021C77.458 23.7796 77.605 24.0355 77.84 24.1742L88.982 30.7249C89.217 30.8638 89.511 30.8638 89.746 30.7249L100.888 24.1742C101.123 24.0355 101.27 23.7769 101.27 23.5021V10.4007C101.27 10.1232 101.123 9.86733 100.888 9.72853L89.746 3.17782C89.629 3.10982 89.498 3.07442 89.364 3.07442Z" fill="#101010"/>
<path d="M89.364 25.6306C89.086 25.6306 88.81 25.5571 88.562 25.4128L82.57 21.8912C82.076 21.6 81.769 21.0584 81.769 20.4788V13.4327C81.769 12.8503 82.076 12.3115 82.57 12.0203L88.562 8.49867C89.056 8.20747 89.671 8.20747 90.165 8.49867L96.157 12.0203C96.651 12.3115 96.959 12.8531 96.959 13.4327V20.4788C96.959 21.0584 96.651 21.6 96.157 21.8912L90.165 25.4128C89.92 25.5571 89.641 25.6306 89.364 25.6306ZM89.364 9.85668C89.364 9.85668 89.3451 9.85667 89.3371 9.86487L83.345 13.3865C83.329 13.3974 83.319 13.4136 83.319 13.4327V20.4788C83.319 20.4979 83.329 20.5141 83.345 20.525L89.3371 24.0466C89.3531 24.0575 89.372 24.0548 89.388 24.0466L95.379 20.525C95.395 20.5168 95.4061 20.4979 95.4061 20.4788V13.4327C95.4061 13.4136 95.395 13.3974 95.379 13.3865L89.388 9.86487C89.388 9.86487 89.372 9.85668 89.361 9.85668H89.364Z" fill="#101010"/>
<path d="M88.064 16.4043V17.501C88.064 17.6344 88.134 17.7569 88.246 17.8221L89.179 18.3719C89.291 18.4372 89.43 18.4372 89.542 18.3719L90.475 17.8221C90.587 17.7569 90.657 17.6344 90.657 17.501V16.4043C90.657 16.2709 90.587 16.1484 90.475 16.0831L89.542 15.5333C89.43 15.4681 89.291 15.4681 89.179 15.5333L88.246 16.0831C88.134 16.1484 88.064 16.2709 88.064 16.4043Z" fill="#101010"/>
<path d="M101.45 9.0083L88.939 16.2727L89.706 17.6439L102.218 10.3795L101.45 9.0083Z" fill="#101010"/>
<path d="M129.977 17.7328C131.508 17.5259 132.938 16.8102 134.044 15.6862C134.798 14.9187 135.378 13.9771 135.722 12.9647L135.811 12.6926C135.84 12.5945 135.867 12.4938 135.893 12.3931C135.942 12.1945 135.984 11.9876 136.016 11.789C136.027 11.7373 136.035 11.6883 136.04 11.6448C136.056 11.5276 136.07 11.408 136.08 11.2855C136.094 11.1685 136.102 11.0432 136.107 10.9236C136.112 10.812 136.115 10.703 136.115 10.5914C136.115 10.4663 136.112 10.3438 136.107 10.2214C136.027 8.6647 135.474 7.2086 134.512 6.0302C134.49 5.9976 134.466 5.9704 134.458 5.9622C133.111 4.3266 131.136 3.3877 129.038 3.3877H115.896V17.428V17.5259V30.6518H117.494V17.798H128.143L135.006 30.6518H136.829L129.977 17.7328ZM117.494 4.9742H129.001C130.554 4.9742 132.042 5.6438 133.093 6.8248C133.686 7.4237 134.1 8.1503 134.319 8.9749C134.362 9.1545 134.431 9.4729 134.445 9.5654C134.48 9.8295 134.52 10.1779 134.52 10.5452C134.52 10.635 134.52 10.7275 134.512 10.8202C134.509 10.8909 134.504 10.9643 134.498 11.0487C134.498 11.1085 134.49 11.1712 134.482 11.231L134.477 11.2882C134.456 11.4814 134.429 11.661 134.391 11.838C134.381 11.8897 134.37 11.9387 134.354 11.9958L134.322 12.1237C134.311 12.1754 134.298 12.2244 134.279 12.2761C134.258 12.3524 134.234 12.4285 134.207 12.5074C134.188 12.5674 134.167 12.6299 134.14 12.6926C134.1 12.7933 134.057 12.894 134.001 13.0109C133.961 13.0981 133.918 13.177 133.878 13.2559C133.854 13.2995 133.83 13.3402 133.796 13.3947C133.75 13.4763 133.699 13.5607 133.64 13.6423C133.59 13.7186 133.539 13.792 133.475 13.8736C133.309 14.1132 133.117 14.3471 132.9 14.565C131.858 15.6263 130.474 16.2115 129.001 16.2115H117.494V4.9742Z" fill="#101010"/>
<path d="M153.677 3.38477H152.081V30.649H153.677V3.38477Z" fill="#101010"/>
<path d="M52.8434 17.0196L64.562 30.649H62.467L51.7958 18.2415L41.1246 30.649H39.0268L50.7481 17.0169L39.0242 3.38477H41.1193L51.7958 15.803L62.47 3.38477H64.565L52.8434 17.0196Z" fill="#101010"/>
<path d="M182.181 3.03906C174.614 3.03906 168.453 9.30936 168.453 17.0169C168.453 24.7241 174.614 30.9972 182.181 30.9972C189.751 30.9972 195.91 24.7268 195.91 17.0169C195.91 9.30676 189.752 3.03906 182.181 3.03906ZM182.181 29.4107C175.471 29.4107 170.015 23.8506 170.015 17.0169C170.015 10.1831 175.471 4.62576 182.181 4.62576C188.892 4.62576 194.353 10.1858 194.353 17.0169C194.353 23.8478 188.892 29.4107 182.181 29.4107Z" fill="#101010"/>
<path d="M15.7256 3.03906C8.1573 3.03906 2 9.30936 2 17.0169C2 24.7241 8.1573 30.9972 15.7256 30.9972C23.2941 30.9972 29.454 24.7268 29.454 17.0169C29.454 9.30676 23.2967 3.03906 15.7256 3.03906ZM15.7256 29.4107C9.0179 29.4107 3.5581 23.8506 3.5581 17.0169C3.5581 10.1831 9.0179 4.62576 15.7256 4.62576C22.4335 4.62576 27.896 10.1831 27.896 17.0169C27.896 23.8506 22.4361 29.4107 15.7256 29.4107Z" fill="#101010"/>
</g>
</g>
<defs>
<linearGradient id="paint0_linear_238_139" x1="95.703" y1="29.394" x2="95.703" y2="8.76493" gradientUnits="userSpaceOnUse">
<stop stop-color="#FF6C1A" stop-opacity="0"/>
<stop offset="1" stop-color="#FF6C1A"/>
</linearGradient>
<clipPath id="clip0_238_139">
<rect width="197" height="32" fill="white" transform="translate(0 0.5)"/>
</clipPath>
</defs>
</svg>
