<svg width="139" height="47" viewBox="0 0 139 47" fill="none" xmlns="http://www.w3.org/2000/svg">
<mask id="mask0_74_772" style="mask-type:luminance" maskUnits="userSpaceOnUse" x="0" y="1" width="139" height="37">
<path d="M139 1.11548H0V37.9448H139V1.11548Z" fill="white"/>
</mask>
<g mask="url(#mask0_74_772)">
<mask id="mask1_74_772" style="mask-type:luminance" maskUnits="userSpaceOnUse" x="4" y="0" width="136" height="28">
<path d="M139.001 0.999512H4.48395V27.2225H139.001V0.999512Z" fill="white"/>
</mask>
<g mask="url(#mask1_74_772)">
<path d="M4.48395 24.5478L6.4726 21.632C7.86763 22.96 9.3517 23.5952 11.4888 23.5952C13.0322 23.5952 13.9227 22.9312 13.9227 21.9207C13.9227 21.0546 12.7947 20.6505 10.5093 19.8709C7.65986 18.9183 5.19631 17.6768 5.19631 14.3568C5.19631 11.5853 7.7489 9.56445 11.3107 9.56445C13.5071 9.56445 15.5255 10.1418 17.4251 11.6719L15.4661 14.7321C14.0711 13.4618 12.4683 12.9422 11.1326 12.9422C10.3609 12.9422 9.23297 13.3464 9.23297 14.3856C9.23297 15.2229 10.3015 15.8003 11.9637 16.4355C15.6738 17.8501 17.9889 18.5141 17.9889 21.863C17.9889 24.6922 15.9113 27.0018 11.5184 27.0018C8.69872 27.0018 6.29451 26.1068 4.48395 24.5478Z" fill="#1A1A1A"/>
<path d="M19.1179 18.3112C19.1179 13.1146 22.8577 9.59253 28.1411 9.59253C30.842 9.59253 33.6915 10.6607 35.4426 12.7393L32.7416 15.02C31.7325 13.8653 30.2484 13.0857 28.3488 13.0857C25.2619 13.0569 23.1843 15.1933 23.1843 18.2534C23.1843 21.3713 25.2916 23.45 28.3488 23.45C30.2781 23.45 31.8512 22.6128 32.7416 21.4868L35.4723 23.8542C34.0179 25.7018 31.7621 27.001 27.9926 27.001C22.8577 27.001 19.1179 23.45 19.1179 18.3112Z" fill="#1A1A1A"/>
<path d="M36.2432 18.3396C36.2432 13.2586 39.8346 9.56323 44.6133 9.56323C46.8097 9.56323 48.739 10.3716 49.9857 11.8728L50.0449 11.8439V9.79419H54.052V26.7118H50.2528V24.4889L50.1934 24.46C48.9467 26.0767 47.1065 27.0005 44.6726 27.0005C39.8642 27.0005 36.2432 23.5651 36.2432 18.3396ZM50.2528 18.3686C50.2528 15.366 48.1454 13.0565 45.296 13.0565C42.5059 13.0565 40.3094 15.1062 40.3094 18.3686C40.3094 21.3421 42.3278 23.4495 45.296 23.4495C47.9969 23.4495 50.2528 21.4286 50.2528 18.3686Z" fill="#1A1A1A"/>
<path d="M57.5546 1.21997H61.532V26.7119H57.5546V1.21997Z" fill="#1A1A1A"/>
<path d="M64.1403 18.3396C64.1403 13.2586 67.7318 9.56323 72.5105 9.56323C74.7069 9.56323 76.6363 10.3716 77.8828 11.8728L77.9422 11.8439V9.79419H81.9492V26.7118H78.1499V24.4889L78.0907 24.46C76.844 26.0767 75.0038 27.0005 72.5699 27.0005C67.7318 27.0005 64.1403 23.5651 64.1403 18.3396ZM78.1499 18.3686C78.1499 15.366 76.0427 13.0565 73.1932 13.0565C70.4032 13.0565 68.2067 15.1062 68.2067 18.3686C68.2067 21.3421 70.2251 23.4495 73.1932 23.4495C75.8942 23.4495 78.1499 21.4286 78.1499 18.3686Z" fill="#1A1A1A"/>
<path d="M89.0717 24.4601H89.0123V26.7119H85.2131V1.21997H89.1904V11.8152H89.2201C90.5855 10.3139 92.4553 9.56332 94.7408 9.56332C99.5493 9.56332 103.141 13.2298 103.141 18.3398C103.141 23.5651 99.5493 27.0007 94.7112 27.0007C92.218 27.0007 90.348 26.1057 89.0717 24.4601ZM99.0743 18.3686C99.0743 15.1063 96.8186 13.0566 94.0581 13.0566C91.0603 13.0566 89.0123 15.3372 89.0123 18.3686C89.0123 21.4287 91.2682 23.4497 94.1175 23.4497C97.0263 23.4497 99.0743 21.3421 99.0743 18.3686Z" fill="#1A1A1A"/>
<path d="M105.785 1.21997H109.762V26.7119H105.785V1.21997Z" fill="#1A1A1A"/>
<path d="M129.206 19.5525H116.532C117.037 22.0065 118.907 23.4789 121.637 23.4789C123.715 23.4789 125.14 22.5839 126.03 21.5157L128.82 23.8252C127.366 25.673 125.199 27.001 121.459 27.001C116.176 27.001 112.436 23.5654 112.436 18.2824C112.436 13.0857 116.057 9.59253 121.162 9.59253C126.03 9.59253 129.355 13.1724 129.355 18.0803C129.325 18.6864 129.236 19.2639 129.206 19.5525ZM116.621 16.4924H125.288C124.784 14.4426 123.359 13.0569 121.073 13.0569C118.877 13.0569 117.185 14.2695 116.621 16.4924Z" fill="#1A1A1A"/>
<path d="M133.802 18.3681C133.802 16.9824 134.96 15.8564 136.414 15.8564C137.839 15.8564 138.996 16.9824 138.996 18.3681C138.996 19.7539 137.839 20.8508 136.414 20.8508C134.96 20.8508 133.802 19.7539 133.802 18.3681Z" fill="#FE3D3D"/>
<path d="M133.802 18.3681C133.802 16.9824 134.96 15.8564 136.414 15.8564C137.839 15.8564 138.996 16.9824 138.996 18.3681C138.996 19.7539 137.839 20.8508 136.414 20.8508C134.96 20.8508 133.802 19.7539 133.802 18.3681Z" fill="#F43333"/>
</g>
</g>
<path d="M5.50403 35.0047H8.24267C8.84879 35.0047 9.38099 35.1003 9.83928 35.2917C10.2976 35.4757 10.6782 35.7405 10.9813 36.0865C11.2918 36.4251 11.5246 36.8371 11.6798 37.3229C11.835 37.8012 11.9126 38.331 11.9126 38.9124C11.9126 39.4864 11.8313 40.0126 11.6687 40.4909C11.5135 40.9693 11.2807 41.3815 10.9702 41.7273C10.6671 42.0658 10.2865 42.3307 9.82819 42.5221C9.36991 42.7135 8.84139 42.8091 8.24267 42.8091H5.50403V35.0047ZM6.22472 35.6559V42.1579H8.16505C8.6603 42.1579 9.0964 42.0806 9.47338 41.926C9.85036 41.7641 10.1645 41.5397 10.4158 41.2526C10.6671 40.9656 10.8556 40.6235 10.9813 40.226C11.107 39.8286 11.1698 39.3908 11.1698 38.9124C11.1698 38.4488 11.1107 38.0182 10.9924 37.6209C10.8741 37.2235 10.693 36.8813 10.4491 36.5943C10.2052 36.2998 9.89841 36.0718 9.52883 35.9099C9.15924 35.7405 8.72682 35.6559 8.23158 35.6559H6.22472ZM14.6472 34.8943C14.8098 34.8943 14.9429 34.9421 15.0464 35.0378C15.1498 35.1335 15.2016 35.2622 15.2016 35.4242C15.2016 35.5934 15.1498 35.7259 15.0464 35.8215C14.9429 35.9172 14.8098 35.9651 14.6472 35.9651C14.4846 35.9651 14.3516 35.9172 14.248 35.8215C14.152 35.7259 14.1039 35.5934 14.1039 35.4242C14.1039 35.2549 14.152 35.1262 14.248 35.0378C14.3516 34.9421 14.4846 34.8943 14.6472 34.8943ZM14.2813 36.9917H15.0132V42.8091H14.2813V36.9917ZM22.1043 36.9917H22.7918V42.6215C22.7918 43.1071 22.7437 43.5193 22.6476 43.8578C22.5516 44.2037 22.3963 44.4981 22.1819 44.7409C21.975 44.9912 21.7014 45.1825 21.3614 45.315C21.0289 45.4475 20.626 45.5137 20.1529 45.5137C19.8647 45.5137 19.5911 45.4842 19.3324 45.4253C19.0737 45.3739 18.8371 45.2855 18.6228 45.1604C18.4158 45.0353 18.2347 44.8734 18.0796 44.6747C17.9317 44.4833 17.8208 44.2478 17.7469 43.9682H18.5009C18.56 44.1448 18.6487 44.2921 18.767 44.4098C18.8926 44.5275 19.033 44.6195 19.1883 44.6857C19.3435 44.7593 19.5062 44.8109 19.6761 44.8403C19.8535 44.8771 20.0273 44.8955 20.1972 44.8955C20.5742 44.8955 20.8809 44.8366 21.1175 44.7189C21.3614 44.6085 21.55 44.4503 21.6829 44.2442C21.8234 44.0381 21.9195 43.7953 21.9713 43.5157C22.0304 43.2433 22.0599 42.9416 22.0599 42.6104V41.8819C21.816 42.2352 21.513 42.489 21.1508 42.6435C20.796 42.7981 20.3968 42.8754 19.9533 42.8754C19.4877 42.8754 19.0848 42.7907 18.7448 42.6215C18.4121 42.4523 18.1424 42.2241 17.9353 41.9371C17.7359 41.65 17.588 41.3189 17.4918 40.9436C17.4032 40.5609 17.3662 40.1635 17.381 39.7513C17.3884 39.3466 17.4512 38.9749 17.5695 38.6364C17.6951 38.2906 17.8688 37.9925 18.0906 37.7424C18.3123 37.4848 18.5895 37.2861 18.9222 37.1462C19.2548 36.999 19.6354 36.9255 20.0643 36.9255C20.4708 36.9255 20.8478 36.9953 21.1951 37.1351C21.5425 37.275 21.8309 37.5032 22.0599 37.8196L22.1043 36.9917ZM20.0531 37.5437C19.7057 37.5437 19.41 37.6098 19.1661 37.7424C18.9222 37.8674 18.7226 38.0404 18.5674 38.2612C18.4121 38.4745 18.2976 38.7211 18.2237 39.0008C18.1497 39.2804 18.1127 39.5747 18.1127 39.8839C18.1127 40.2076 18.1461 40.513 18.2125 40.8001C18.2865 41.0871 18.4011 41.3373 18.5562 41.5507C18.7115 41.7641 18.9111 41.9371 19.155 42.0695C19.4064 42.1947 19.7131 42.2572 20.0753 42.2572C20.4005 42.2572 20.6925 42.1873 20.9512 42.0474C21.2173 41.9003 21.4354 41.7163 21.6053 41.4956C21.7754 41.2748 21.8973 41.0282 21.9713 40.756C22.0451 40.4763 22.0821 40.1856 22.0821 39.8839C22.0821 39.5233 22.023 39.1663 21.9047 38.813C21.7939 38.4524 21.587 38.158 21.2838 37.93C20.9364 37.6724 20.5262 37.5437 20.0531 37.5437ZM25.7331 34.8943C25.8957 34.8943 26.0288 34.9421 26.1323 35.0378C26.2357 35.1335 26.2875 35.2622 26.2875 35.4242C26.2875 35.5934 26.2357 35.7259 26.1323 35.8215C26.0288 35.9172 25.8957 35.9651 25.7331 35.9651C25.5705 35.9651 25.4374 35.9172 25.3339 35.8215C25.2378 35.7259 25.1898 35.5934 25.1898 35.4242C25.1898 35.2549 25.2378 35.1262 25.3339 35.0378C25.4374 34.9421 25.5705 34.8943 25.7331 34.8943ZM25.3672 36.9917H26.0989V42.8091H25.3672V36.9917ZM29.9748 36.9917H31.8486V37.6098H29.9748V40.8884C29.9748 41.0577 29.9822 41.2232 29.997 41.3851C30.0191 41.547 30.0635 41.6943 30.1299 41.8267C30.1966 41.9517 30.2925 42.0549 30.4183 42.1358C30.5513 42.2168 30.7287 42.2572 30.9504 42.2572C31.0909 42.2572 31.2313 42.2388 31.3718 42.202C31.5197 42.1579 31.638 42.0953 31.7266 42.0144L32.0148 42.5332C31.8449 42.6656 31.6638 42.7576 31.4716 42.8091C31.2868 42.8533 31.0799 42.8754 30.8506 42.8754C30.5476 42.8754 30.2926 42.8312 30.0856 42.7429C29.8787 42.6546 29.7124 42.5332 29.5867 42.3786C29.461 42.2168 29.3724 42.0217 29.3206 41.7936C29.2688 41.5581 29.243 41.2969 29.243 41.0098V37.6098H28.2562V36.9917H29.243V35.3249H29.9748V36.9917ZM37.8867 41.9701C37.6058 42.3087 37.2843 42.5442 36.9221 42.6767C36.5672 42.8091 36.1754 42.8754 35.7467 42.8754C35.488 42.8754 35.2368 42.8459 34.9927 42.787C34.7563 42.7208 34.5419 42.6178 34.3496 42.478C34.1575 42.3382 34.0023 42.1615 33.884 41.9481C33.7732 41.7273 33.7177 41.4808 33.7177 41.2085C33.7177 40.8774 33.7805 40.6014 33.9062 40.3806C34.0319 40.1599 34.1945 39.9832 34.3941 39.8507C34.601 39.7183 34.8376 39.6263 35.1037 39.5747C35.3697 39.5158 35.6469 39.4864 35.9352 39.4864H37.8534C37.8534 39.2216 37.8239 38.9713 37.7647 38.7358C37.7129 38.5004 37.6243 38.2942 37.4985 38.1176C37.3729 37.9411 37.2066 37.8012 36.9996 37.6981C36.8001 37.5951 36.5524 37.5437 36.2567 37.5437C36.1163 37.5437 35.9721 37.5546 35.8244 37.5767C35.6839 37.5987 35.5471 37.6356 35.414 37.6871C35.2884 37.7386 35.1701 37.8122 35.0593 37.9079C34.9559 37.9962 34.8708 38.1066 34.8043 38.2391H34.0059C34.0726 37.9962 34.1834 37.7938 34.3386 37.6319C34.4939 37.4627 34.675 37.3265 34.8819 37.2235C35.0963 37.1131 35.3217 37.0358 35.5583 36.9917C35.8022 36.9475 36.0424 36.9255 36.279 36.9255C36.7077 36.9255 37.0699 36.9953 37.3656 37.1351C37.6611 37.275 37.8977 37.47 38.0751 37.7203C38.2599 37.9631 38.3893 38.2501 38.4631 38.5813C38.5446 38.9124 38.5852 39.2693 38.5852 39.652V42.8091H37.9865L37.8867 41.9701ZM36.3122 40.0715C36.1201 40.0715 35.913 40.0789 35.6913 40.0935C35.477 40.1083 35.2774 40.1524 35.0925 40.226C34.9077 40.2922 34.7525 40.399 34.6269 40.5462C34.5086 40.686 34.4494 40.881 34.4494 41.1312C34.4494 41.3299 34.4864 41.4992 34.5604 41.639C34.6417 41.7789 34.7451 41.8966 34.8708 41.9922C35.0039 42.0879 35.1516 42.1579 35.3143 42.202C35.4843 42.2461 35.6581 42.2682 35.8354 42.2682C36.1237 42.2682 36.3898 42.2314 36.6337 42.1579C36.8851 42.0842 37.0994 41.9739 37.2768 41.8267C37.4617 41.6721 37.6021 41.4845 37.6981 41.2637C37.8016 41.0356 37.8534 40.7706 37.8534 40.4689V40.0715H36.3122ZM41.0519 42.8091V35.0047H41.7837V42.8091H41.0519ZM48.9627 41.0761L48.3197 42.8091H47.5103L50.4375 35.0047H51.4464L54.3625 42.8091H53.553L52.9099 41.0761H48.9627ZM49.2068 40.4137H52.6772L50.9364 35.678L49.2068 40.4137ZM58.2701 37.5437C58.1002 37.5437 57.9264 37.5583 57.749 37.5878C57.579 37.6172 57.4238 37.6687 57.2833 37.7424C57.1429 37.8085 57.0246 37.9042 56.9285 38.0293C56.8398 38.1544 56.7955 38.3163 56.7955 38.515C56.7955 38.6696 56.825 38.8021 56.8842 38.9124C56.9507 39.0228 57.032 39.1148 57.1281 39.1884C57.2315 39.262 57.3461 39.3209 57.4718 39.365C57.5975 39.4092 57.7268 39.446 57.8599 39.4754C58.0965 39.5269 58.3292 39.5747 58.5585 39.619C58.7876 39.6631 59.0204 39.7145 59.2569 39.7734C59.6487 39.8544 59.9666 40.0089 60.2105 40.2371C60.4617 40.4652 60.5875 40.7927 60.5875 41.2196C60.5875 41.5434 60.5172 41.8119 60.3767 42.0254C60.2438 42.2388 60.07 42.4117 59.8556 42.5442C59.6414 42.6693 59.3973 42.7576 59.1239 42.8091C58.8504 42.8533 58.5768 42.8754 58.3034 42.8754C58.052 42.8754 57.7971 42.8496 57.5384 42.7981C57.2797 42.7466 57.0394 42.6656 56.8177 42.5553C56.5959 42.4375 56.4037 42.2866 56.2411 42.1027C56.0785 41.9187 55.9676 41.6868 55.9084 41.4072H56.6513C56.7327 41.5765 56.8325 41.7163 56.9507 41.8267C57.0764 41.9297 57.2131 42.0144 57.361 42.0806C57.5088 42.1395 57.664 42.1836 57.8266 42.2131C57.9967 42.2425 58.1666 42.2572 58.3367 42.2572C58.5067 42.2572 58.6804 42.2461 58.8577 42.2241C59.0426 42.202 59.2089 42.1579 59.3567 42.0916C59.5046 42.018 59.6265 41.915 59.7227 41.7825C59.8186 41.65 59.8668 41.4772 59.8668 41.2637C59.8668 41.1166 59.8371 40.9914 59.778 40.8884C59.7189 40.7853 59.6414 40.7007 59.5452 40.6344C59.4491 40.5682 59.3382 40.5168 59.2126 40.48C59.0943 40.4358 58.9723 40.399 58.8467 40.3695C58.6176 40.3181 58.3921 40.2738 58.1703 40.2371C57.9486 40.1929 57.7195 40.1414 57.4829 40.0826C57.0764 39.9869 56.7401 39.8177 56.474 39.5747C56.2078 39.3246 56.0748 38.9787 56.0748 38.537C56.0748 38.2207 56.1413 37.9595 56.2744 37.7533C56.4074 37.5473 56.5774 37.3854 56.7844 37.2677C56.9988 37.1426 57.239 37.0542 57.5051 37.0028C57.7711 36.9512 58.0335 36.9255 58.2923 36.9255C58.5215 36.9255 58.7506 36.9512 58.9798 37.0028C59.2162 37.0469 59.4306 37.1242 59.6229 37.2345C59.815 37.3449 59.9776 37.4884 60.1107 37.6651C60.2511 37.8417 60.3436 38.055 60.3879 38.3053H59.7115C59.6597 38.1728 59.5822 38.0587 59.4786 37.9631C59.3752 37.8601 59.2569 37.779 59.1239 37.7203C58.9908 37.6614 58.8504 37.6172 58.7026 37.5878C58.5547 37.5583 58.4105 37.5437 58.2701 37.5437ZM64.8093 37.5437C64.6392 37.5437 64.4654 37.5583 64.2882 37.5878C64.1181 37.6172 63.9628 37.6687 63.8224 37.7424C63.6819 37.8085 63.5636 37.9042 63.4677 38.0293C63.3789 38.1544 63.3346 38.3163 63.3346 38.515C63.3346 38.6696 63.3642 38.8021 63.4232 38.9124C63.4898 39.0228 63.5711 39.1148 63.6672 39.1884C63.7707 39.262 63.8852 39.3209 64.0109 39.365C64.1366 39.4092 64.2659 39.446 64.399 39.4754C64.6355 39.5269 64.8684 39.5747 65.0975 39.619C65.3266 39.6631 65.5595 39.7145 65.796 39.7734C66.1877 39.8544 66.5056 40.0089 66.7495 40.2371C67.0009 40.4652 67.1265 40.7927 67.1265 41.2196C67.1265 41.5434 67.0563 41.8119 66.9159 42.0254C66.7828 42.2388 66.6091 42.4117 66.3948 42.5442C66.1804 42.6693 65.9365 42.7576 65.6629 42.8091C65.3894 42.8533 65.116 42.8754 64.8424 42.8754C64.5912 42.8754 64.3361 42.8496 64.0774 42.7981C63.8187 42.7466 63.5785 42.6656 63.3567 42.5553C63.135 42.4375 62.9427 42.2866 62.7801 42.1027C62.6175 41.9187 62.5067 41.6868 62.4476 41.4072H63.1904C63.2717 41.5765 63.3715 41.7163 63.4898 41.8267C63.6154 41.9297 63.7522 42.0144 63.9 42.0806C64.0479 42.1395 64.203 42.1836 64.3656 42.2131C64.5357 42.2425 64.7057 42.2572 64.8757 42.2572C65.0457 42.2572 65.2194 42.2461 65.3969 42.2241C65.5816 42.202 65.7479 42.1579 65.8958 42.0916C66.0436 42.018 66.1656 41.915 66.2617 41.7825C66.3578 41.65 66.4058 41.4772 66.4058 41.2637C66.4058 41.1166 66.3763 40.9914 66.3172 40.8884C66.258 40.7853 66.1804 40.7007 66.0843 40.6344C65.9881 40.5682 65.8773 40.5168 65.7517 40.48C65.6334 40.4358 65.5115 40.399 65.3857 40.3695C65.1566 40.3181 64.9312 40.2738 64.7095 40.2371C64.4877 40.1929 64.2585 40.1414 64.0219 40.0826C63.6154 39.9869 63.2791 39.8177 63.013 39.5747C62.747 39.3246 62.6139 38.9787 62.6139 38.537C62.6139 38.2207 62.6803 37.9595 62.8134 37.7533C62.9465 37.5473 63.1165 37.3854 63.3234 37.2677C63.5378 37.1426 63.778 37.0542 64.0441 37.0028C64.3103 36.9512 64.5727 36.9255 64.8314 36.9255C65.0605 36.9255 65.2897 36.9512 65.5188 37.0028C65.7554 37.0469 65.9697 37.1242 66.1619 37.2345C66.3541 37.3449 66.5167 37.4884 66.6497 37.6651C66.7901 37.8417 66.8826 38.055 66.9269 38.3053H66.2505C66.1989 38.1728 66.1212 38.0587 66.0178 37.9631C65.9143 37.8601 65.796 37.779 65.6629 37.7203C65.5298 37.6614 65.3894 37.6172 65.2416 37.5878C65.0938 37.5583 64.9497 37.5437 64.8093 37.5437ZM69.7961 40.1378C69.8108 40.4468 69.8626 40.7301 69.9512 40.9877C70.0473 41.2453 70.1804 41.4697 70.3504 41.6611C70.5205 41.8451 70.7274 41.9922 70.9713 42.1027C71.2227 42.2057 71.5146 42.2572 71.8473 42.2572C72.0025 42.2572 72.1576 42.2425 72.3129 42.2131C72.4755 42.1836 72.6271 42.1395 72.7675 42.0806C72.9153 42.0144 73.0484 41.9297 73.1667 41.8267C73.2849 41.7236 73.3773 41.5949 73.4438 41.4403H74.2089C74.1276 41.6979 74.0019 41.9187 73.8319 42.1027C73.6693 42.2866 73.4808 42.4375 73.2665 42.5553C73.0521 42.6656 72.8192 42.7466 72.568 42.7981C72.3166 42.8496 72.0653 42.8754 71.8139 42.8754C71.3556 42.8754 70.9528 42.8018 70.6054 42.6546C70.2654 42.5074 69.9809 42.305 69.7516 42.0474C69.5225 41.7825 69.3525 41.4697 69.2417 41.1091C69.1307 40.7412 69.0754 40.3402 69.0754 39.9059C69.0754 39.4644 69.1345 39.0597 69.2527 38.6916C69.371 38.3237 69.5447 38.0109 69.7738 37.7533C70.0104 37.4884 70.2987 37.2861 70.6387 37.1462C70.9861 36.999 71.3816 36.9255 71.8251 36.9255C72.2907 36.9255 72.6824 37.0174 73.0003 37.2015C73.3256 37.3854 73.588 37.6282 73.7876 37.93C73.9872 38.2244 74.1276 38.5666 74.2089 38.9565C74.2976 39.3393 74.3346 39.7329 74.3197 40.1378H69.7961ZM73.5769 39.5306C73.5695 39.2657 73.5251 39.0117 73.4438 38.7689C73.37 38.5261 73.2553 38.3163 73.1001 38.1398C72.9523 37.9557 72.7639 37.8122 72.5347 37.7092C72.3056 37.5987 72.0394 37.5437 71.7363 37.5437C71.4333 37.5437 71.1635 37.5987 70.927 37.7092C70.6978 37.8196 70.502 37.9668 70.3394 38.1507C70.1768 38.3347 70.051 38.5481 69.9624 38.791C69.8736 39.0265 69.8219 39.273 69.8071 39.5306H73.5769ZM77.8805 36.9917H79.7544V37.6098H77.8805V40.8884C77.8805 41.0577 77.8879 41.2232 77.9027 41.3851C77.9248 41.547 77.9693 41.6943 78.0358 41.8267C78.1023 41.9517 78.1984 42.0549 78.324 42.1358C78.4571 42.2168 78.6345 42.2572 78.8563 42.2572C78.9967 42.2572 79.1371 42.2388 79.2776 42.202C79.4254 42.1579 79.5437 42.0953 79.6323 42.0144L79.9207 42.5332C79.7506 42.6656 79.5695 42.7576 79.3774 42.8091C79.1926 42.8533 78.9856 42.8754 78.7565 42.8754C78.4534 42.8754 78.1984 42.8312 77.9914 42.7429C77.7844 42.6546 77.6181 42.5332 77.4925 42.3786C77.3667 42.2168 77.2781 42.0217 77.2263 41.7936C77.1746 41.5581 77.1488 41.2969 77.1488 41.0098V37.6098H76.1619V36.9917H77.1488V35.3249H77.8805V36.9917ZM85.9202 35.0047H91.0759V35.667H86.6409V38.6034H90.6325V39.2657H86.6409V42.1468H91.0759V42.8091H85.9202V35.0047ZM93.3528 42.8091V36.9917H94.0625L94.0846 37.9852C94.1881 37.8085 94.3174 37.654 94.4726 37.5216C94.6279 37.3818 94.7905 37.2713 94.9605 37.1904C95.1527 37.0947 95.3486 37.0285 95.5482 36.9917C95.7551 36.9475 95.9769 36.9255 96.2134 36.9255C96.5313 36.9255 96.8085 36.9696 97.0449 37.0579C97.289 37.1462 97.4959 37.264 97.6658 37.4111C97.9467 37.6467 98.1426 37.952 98.2536 38.3274C98.3644 38.7027 98.4199 39.1222 98.4199 39.5858V42.8091H97.688V39.8507C97.688 39.5049 97.6585 39.1736 97.5994 38.8572C97.5476 38.5334 97.4294 38.2574 97.2445 38.0293C97.1189 37.8822 96.9636 37.7644 96.7789 37.676C96.5941 37.5878 96.3612 37.5437 96.0803 37.5437C95.7773 37.5437 95.5001 37.6062 95.2488 37.7313C94.9974 37.8563 94.7868 38.0182 94.6168 38.2169C94.4247 38.4377 94.2879 38.6916 94.2066 38.9787C94.1253 39.2657 94.0846 39.5674 94.0846 39.8839V42.8091H93.3528ZM104.836 41.9701C104.555 42.3087 104.233 42.5442 103.871 42.6767C103.516 42.8091 103.125 42.8754 102.696 42.8754C102.437 42.8754 102.186 42.8459 101.942 42.787C101.705 42.7208 101.491 42.6178 101.299 42.478C101.107 42.3382 100.951 42.1615 100.833 41.9481C100.722 41.7273 100.667 41.4808 100.667 41.2085C100.667 40.8774 100.73 40.6014 100.855 40.3806C100.981 40.1599 101.144 39.9832 101.343 39.8507C101.55 39.7183 101.787 39.6263 102.053 39.5747C102.319 39.5158 102.596 39.4864 102.884 39.4864H104.802C104.802 39.2216 104.773 38.9713 104.714 38.7358C104.662 38.5004 104.573 38.2942 104.448 38.1176C104.322 37.9411 104.156 37.8012 103.949 37.6981C103.749 37.5951 103.501 37.5437 103.206 37.5437C103.065 37.5437 102.921 37.5546 102.773 37.5767C102.633 37.5987 102.496 37.6356 102.363 37.6871C102.238 37.7386 102.119 37.8122 102.008 37.9079C101.905 37.9962 101.82 38.1066 101.753 38.2391H100.955C101.022 37.9962 101.132 37.7938 101.288 37.6319C101.443 37.4627 101.624 37.3265 101.831 37.2235C102.045 37.1131 102.271 37.0358 102.507 36.9917C102.751 36.9475 102.992 36.9255 103.228 36.9255C103.657 36.9255 104.019 36.9953 104.315 37.1351C104.61 37.275 104.847 37.47 105.024 37.7203C105.209 37.9631 105.338 38.2501 105.412 38.5813C105.494 38.9124 105.534 39.2693 105.534 39.652V42.8091H104.936L104.836 41.9701ZM103.261 40.0715C103.069 40.0715 102.862 40.0789 102.64 40.0935C102.426 40.1083 102.226 40.1524 102.042 40.226C101.857 40.2922 101.702 40.399 101.576 40.5462C101.458 40.686 101.399 40.881 101.399 41.1312C101.399 41.3299 101.436 41.4992 101.509 41.639C101.591 41.7789 101.694 41.8966 101.82 41.9922C101.953 42.0879 102.101 42.1579 102.263 42.202C102.433 42.2461 102.607 42.2682 102.785 42.2682C103.073 42.2682 103.339 42.2314 103.583 42.1579C103.834 42.0842 104.049 41.9739 104.226 41.8267C104.411 41.6721 104.551 41.4845 104.647 41.2637C104.751 41.0356 104.802 40.7706 104.802 40.4689V40.0715H103.261ZM108.711 42.8091H108.001V35.0047H108.733V37.9411C108.969 37.5805 109.272 37.3154 109.642 37.1462C110.019 36.9769 110.429 36.8923 110.873 36.8923C111.331 36.8923 111.723 36.9769 112.048 37.1462C112.373 37.3154 112.639 37.5437 112.846 37.8306C113.053 38.1176 113.201 38.4524 113.29 38.8351C113.378 39.2105 113.419 39.6042 113.412 40.0164C113.397 40.5168 113.308 40.9693 113.146 41.3742C112.99 41.7789 112.746 42.1063 112.414 42.3566C112.214 42.511 111.974 42.6362 111.693 42.7319C111.42 42.8202 111.117 42.8643 110.784 42.8643C110.599 42.8643 110.411 42.8496 110.218 42.8202C110.026 42.7907 109.838 42.7429 109.653 42.6767C109.476 42.6031 109.306 42.5074 109.143 42.3896C108.98 42.2719 108.84 42.1247 108.722 41.9481L108.711 42.8091ZM110.74 42.2572C111.087 42.2572 111.383 42.1947 111.627 42.0695C111.871 41.9444 112.07 41.7752 112.225 41.5618C112.381 41.341 112.495 41.0907 112.569 40.8111C112.643 40.5241 112.68 40.226 112.68 39.917C112.68 39.6006 112.643 39.2988 112.569 39.0117C112.503 38.7173 112.392 38.4635 112.236 38.2501C112.081 38.0366 111.878 37.8674 111.627 37.7424C111.383 37.6098 111.08 37.5437 110.717 37.5437C110.4 37.5437 110.108 37.6172 109.842 37.7644C109.575 37.9042 109.357 38.0882 109.187 38.3163C109.017 38.5297 108.895 38.7762 108.822 39.0559C108.748 39.3282 108.711 39.6152 108.711 39.917C108.711 40.2776 108.77 40.6382 108.888 40.9988C109.014 41.352 109.228 41.6427 109.531 41.8708C109.878 42.1284 110.281 42.2572 110.74 42.2572ZM115.688 42.8091V35.0047H116.42V42.8091H115.688ZM119.402 40.1378C119.416 40.4468 119.468 40.7301 119.557 40.9877C119.653 41.2453 119.786 41.4697 119.956 41.6611C120.126 41.8451 120.333 41.9922 120.577 42.1027C120.828 42.2057 121.12 42.2572 121.453 42.2572C121.608 42.2572 121.763 42.2425 121.919 42.2131C122.081 42.1836 122.233 42.1395 122.373 42.0806C122.521 42.0144 122.654 41.9297 122.772 41.8267C122.891 41.7236 122.983 41.5949 123.05 41.4403H123.815C123.733 41.6979 123.608 41.9187 123.438 42.1027C123.275 42.2866 123.086 42.4375 122.872 42.5553C122.658 42.6656 122.425 42.7466 122.174 42.7981C121.922 42.8496 121.671 42.8754 121.42 42.8754C120.961 42.8754 120.558 42.8018 120.211 42.6546C119.871 42.5074 119.587 42.305 119.357 42.0474C119.128 41.7825 118.958 41.4697 118.847 41.1091C118.737 40.7412 118.681 40.3402 118.681 39.9059C118.681 39.4644 118.74 39.0597 118.858 38.6916C118.977 38.3237 119.15 38.0109 119.38 37.7533C119.616 37.4884 119.904 37.2861 120.244 37.1462C120.592 36.999 120.987 36.9255 121.431 36.9255C121.896 36.9255 122.288 37.0174 122.606 37.2015C122.931 37.3854 123.194 37.6282 123.393 37.93C123.593 38.2244 123.733 38.5666 123.815 38.9565C123.903 39.3393 123.94 39.7329 123.925 40.1378H119.402ZM123.183 39.5306C123.175 39.2657 123.131 39.0117 123.05 38.7689C122.976 38.5261 122.861 38.3163 122.706 38.1398C122.558 37.9557 122.37 37.8122 122.14 37.7092C121.911 37.5987 121.645 37.5437 121.342 37.5437C121.039 37.5437 120.769 37.5987 120.533 37.7092C120.304 37.8196 120.108 37.9668 119.945 38.1507C119.782 38.3347 119.657 38.5481 119.568 38.791C119.479 39.0265 119.428 39.273 119.413 39.5306H123.183ZM126.189 42.8091V36.9917H126.899L126.921 37.9962C127.054 37.7754 127.202 37.5951 127.364 37.4553C127.534 37.3154 127.719 37.2051 127.919 37.1242C128.118 37.0432 128.329 36.9917 128.551 36.9696C128.772 36.9401 129.005 36.9291 129.249 36.9364V37.5987H129.05C128.695 37.5987 128.388 37.654 128.129 37.7644C127.871 37.8674 127.656 38.0109 127.486 38.1949C127.25 38.4377 127.095 38.71 127.021 39.0117C126.954 39.3135 126.921 39.6299 126.921 39.9611V42.8091H126.189Z" fill="black"/>
</svg>
