<svg width="152" height="53" viewBox="0 0 152 53" fill="none" xmlns="http://www.w3.org/2000/svg">
<path d="M20.3864 43.5057C19.6863 43.5057 18.977 43.2407 18.4427 42.7107L14.7118 39.0098H9.43321C7.91321 39.0098 6.688 37.7853 6.688 36.2867V31.0507L2.94788 27.3407C1.87927 26.2807 1.87927 24.5445 2.94788 23.4845L6.67879 19.7836V14.5476C6.67879 13.0398 7.91321 11.8245 9.424 11.8245H14.7025L18.4335 8.12361C19.5021 7.06361 21.2524 7.06361 22.321 8.12361L26.0519 11.8245H31.3304C32.8504 11.8245 34.0756 13.049 34.0756 14.5476V19.7836L37.8065 23.4845C38.8751 24.5445 38.8751 26.2807 37.8065 27.3407L34.0756 31.0415V36.2776C34.0756 37.7853 32.8412 39.0007 31.3304 39.0007H26.0703L22.3394 42.7015C21.7959 43.2407 21.0958 43.5057 20.3864 43.5057Z" fill="#F8AE00"/>
<path d="M38.8751 23.6032L34.7481 19.5094V13.716C34.7481 12.3087 33.5966 11.1665 32.1779 11.1665H26.3374L22.2104 7.07271C21.2063 6.07667 19.5757 6.07667 18.5716 7.07271L14.4446 11.1665H8.60411C7.18545 11.1665 6.03393 12.3087 6.03393 13.716V19.5094L1.9069 23.6032C0.902778 24.5993 0.902778 26.2167 1.9069 27.2127L6.03393 31.3065V37.1C6.03393 38.5072 7.18545 39.6494 8.60411 39.6494H14.4446L18.5716 43.7432C19.5757 44.7393 21.2063 44.7393 22.2104 43.7432L26.3374 39.6494H32.1779C33.5966 39.6494 34.7481 38.5072 34.7481 37.1V31.3065L38.8751 27.2127C39.8793 26.2167 39.8793 24.5993 38.8751 23.6032ZM37.1617 26.6736L33.1544 30.6486V36.2775C33.1544 37.2644 32.3437 38.0686 31.3488 38.0686H25.6742L21.6669 42.0436C20.9576 42.7472 19.8153 42.7472 19.1151 42.0436L15.1079 38.0686H9.4332C8.43829 38.0686 7.62763 37.2644 7.62763 36.2775V30.6486L3.62035 26.6736C2.91102 25.97 2.91102 24.8368 3.62035 24.1424L7.62763 20.1674V14.5384C7.62763 13.5515 8.43829 12.7474 9.4332 12.7474H15.1079L19.1151 8.77237C19.8245 8.06874 20.9668 8.06874 21.6669 8.77237L25.6742 12.7474H31.3488C32.3437 12.7474 33.1544 13.5515 33.1544 14.5384V20.1674L37.1617 24.1424C37.871 24.846 37.871 25.9791 37.1617 26.6736Z" stroke="#008669" stroke-miterlimit="10"/>
<path d="M19.0691 10.9015L5.76677 24.0967C5.03901 24.8186 5.03901 25.9974 5.76677 26.7284L9.03707 29.9724C10.0965 28.6931 11.727 27.2036 14.0945 26.0979C19.1612 23.7403 22.2288 25.8786 25.3702 22.2051C27.3323 19.9115 26.8809 17.4352 26.3466 16.0005C26.1348 15.4522 25.8031 14.9588 25.3886 14.5384L21.7222 10.9015C20.9852 10.1796 19.7968 10.1796 19.0691 10.9015Z" fill="#008669"/>
<path d="M21.7129 39.9144L35.0152 26.7192C35.743 25.9973 35.743 24.8185 35.0152 24.0875L31.7449 20.8435C30.6855 22.1228 29.055 23.6123 26.6875 24.718C21.6208 27.0756 18.5532 24.9373 15.4118 28.6107C13.4496 30.9044 13.901 33.3807 14.4353 34.8154C14.6472 35.3637 14.9789 35.8571 15.3934 36.2775L19.0598 39.9144C19.7968 40.6363 20.9852 40.6363 21.7129 39.9144Z" fill="#008669"/>
<path d="M38.8751 23.6032L34.7481 19.5094V13.716C34.7481 12.3087 33.5966 11.1665 32.1779 11.1665H26.3374L22.2104 7.07271C21.2063 6.07667 19.5757 6.07667 18.5716 7.07271L14.4446 11.1665H8.60411C7.18545 11.1665 6.03393 12.3087 6.03393 13.716V19.5094L1.9069 23.6032C0.902778 24.5993 0.902778 26.2167 1.9069 27.2127L6.03393 31.3065V37.1C6.03393 38.5072 7.18545 39.6494 8.60411 39.6494H14.4446L18.5716 43.7432C19.5757 44.7393 21.2063 44.7393 22.2104 43.7432L26.3374 39.6494H32.1779C33.5966 39.6494 34.7481 38.5072 34.7481 37.1V31.3065L38.8751 27.2127C39.8793 26.2167 39.8793 24.5993 38.8751 23.6032ZM37.1617 26.6736L33.1544 30.6486V36.2775C33.1544 37.2644 32.3437 38.0686 31.3488 38.0686H25.6742L21.6669 42.0436C20.9576 42.7472 19.8153 42.7472 19.1151 42.0436L15.1079 38.0686H9.4332C8.43829 38.0686 7.62763 37.2644 7.62763 36.2775V30.6486L3.62035 26.6736C2.91102 25.97 2.91102 24.8368 3.62035 24.1424L7.62763 20.1674V14.5384C7.62763 13.5515 8.43829 12.7474 9.4332 12.7474H15.1079L19.1151 8.77237C19.8245 8.06874 20.9668 8.06874 21.6669 8.77237L25.6742 12.7474H31.3488C32.3437 12.7474 33.1544 13.5515 33.1544 14.5384V20.1674L37.1617 24.1424C37.871 24.846 37.871 25.9791 37.1617 26.6736Z" fill="#008669"/>
<path d="M132.028 39.7225H136.726V29.3967L145.155 39.7225H150.848L141.286 27.9437L150.084 18.9703H144.584L136.736 26.9843V11.1025H132.037V39.7225H132.028ZM108.067 18.9703L116.045 38.8819L115.842 39.4301C114.958 41.7603 113.53 42.2538 112.36 42.2538C111.927 42.2538 111.411 42.2172 110.997 42.0893V46.3018C111.411 46.4663 112.296 46.6674 113.392 46.6674C117.243 46.6674 119.14 44.1362 120.771 39.9601L128.951 18.9612H123.968L118.634 33.5544L113.106 18.9612H108.067V18.9703ZM99.583 33.792C99.583 37.7579 101.379 40.0881 105.23 40.0881C106.326 40.0881 107.165 39.887 107.579 39.7225V35.4917C107.229 35.5922 106.879 35.6744 106.428 35.6744C105.147 35.6744 104.309 34.8337 104.309 33.1798V11.1025H99.5923V33.792H99.583ZM78.9847 29.3419C78.9847 25.2298 81.8313 23.0001 84.7515 23.0001C87.681 23.0001 90.5183 25.2298 90.5183 29.3419C90.5183 33.4539 87.6718 35.6836 84.7515 35.6836C81.8221 35.6744 78.9847 33.4448 78.9847 29.3419ZM74.0931 29.3419C74.0931 36.2136 78.9203 40.0972 83.904 40.0972C87.3033 40.0972 89.4865 38.3427 90.463 36.8898V39.7317H95.1796V18.9703H90.463V21.7939C89.4958 20.3593 87.3125 18.6048 83.904 18.6048C78.9203 18.6048 74.0931 22.4519 74.0931 29.3419ZM47.2858 39.7225H52.1498V27.231H65.8114V39.7225H70.6754V11.1025H65.8114V22.8174H52.1498V11.1025H47.2858V39.7225Z" fill="#008669"/>
</svg>
