<svg width="273" height="40" viewBox="0 0 273 40" fill="none" xmlns="http://www.w3.org/2000/svg">
<rect width="40" height="40" rx="20" fill="#00131A"/>
<g filter="url(#filter0_d_279_139)">
<rect x="9.96191" y="10.7207" width="20.0557" height="4.93037" fill="#07CF97"/>
</g>
<g filter="url(#filter1_d_279_139)">
<path d="M12.1348 17.5134L26.2573 16.5106V21.441L12.1348 22.4438V17.5134Z" fill="#07CF97"/>
</g>
<g filter="url(#filter2_d_279_139)">
<path d="M17.5662 23.381L22.4966 22.9631V31.4033H17.5662V23.381Z" fill="#07CF97"/>
</g>
<path d="M53.9176 12.4545V27H51.7159V14.6562H51.6307L48.1506 16.929V14.8267L51.7798 12.4545H53.9176ZM71.2773 16.2756C71.2016 15.6032 70.8891 15.0824 70.3398 14.7131C69.7906 14.339 69.0993 14.152 68.266 14.152C67.6694 14.152 67.1533 14.2467 66.7177 14.4361C66.2821 14.6207 65.9435 14.8764 65.7021 15.2031C65.4653 15.5251 65.3469 15.892 65.3469 16.304C65.3469 16.6496 65.4274 16.9479 65.5884 17.1989C65.7541 17.4498 65.9696 17.6605 66.2347 17.831C66.5046 17.9967 66.7934 18.1364 67.1012 18.25C67.409 18.3589 67.7049 18.4489 67.989 18.5199L69.4094 18.8892C69.8735 19.0028 70.3493 19.1567 70.837 19.3509C71.3247 19.545 71.7769 19.8007 72.1935 20.1179C72.6102 20.4351 72.9464 20.8281 73.2021 21.2969C73.4625 21.7656 73.5927 22.3267 73.5927 22.9801C73.5927 23.804 73.3796 24.5355 72.9535 25.1747C72.5321 25.8139 71.9189 26.3182 71.114 26.6875C70.3138 27.0568 69.3455 27.2415 68.2092 27.2415C67.1201 27.2415 66.1779 27.0687 65.3825 26.723C64.587 26.3774 63.9644 25.8873 63.5146 25.2528C63.0647 24.6136 62.8162 23.8561 62.7688 22.9801H64.9705C65.0131 23.5057 65.1836 23.9437 65.4819 24.294C65.7849 24.6397 66.1708 24.8977 66.6396 25.0682C67.113 25.2339 67.6315 25.3168 68.195 25.3168C68.8152 25.3168 69.3668 25.2197 69.8498 25.0256C70.3375 24.8267 70.721 24.5521 71.0004 24.2017C71.2797 23.8466 71.4194 23.4323 71.4194 22.9588C71.4194 22.5279 71.2963 22.1752 71.0501 21.9006C70.8086 21.6259 70.4795 21.3987 70.0629 21.2188C69.6509 21.0388 69.1845 20.8802 68.6637 20.7429L66.945 20.2741C65.7802 19.9569 64.8569 19.4905 64.1751 18.875C63.498 18.2595 63.1594 17.4451 63.1594 16.4318C63.1594 15.5937 63.3867 14.8622 63.8413 14.2372C64.2958 13.6122 64.9113 13.1269 65.6879 12.7812C66.4644 12.4309 67.3403 12.2557 68.3157 12.2557C69.3005 12.2557 70.1694 12.4285 70.9222 12.7741C71.6798 13.1198 72.2764 13.5956 72.712 14.2017C73.1476 14.803 73.3749 15.4943 73.3938 16.2756H71.2773ZM76.2152 27V12.4545H78.4098V19.4006H78.5874L84.6882 12.4545H87.451L81.5845 19.0028L87.4723 27H84.8303L80.1286 20.5014L78.4098 22.4759V27H76.2152ZM89.12 27V25.5369L96.7692 14.3438H89.0561V12.4545H99.4538V13.9176L91.8047 25.1108H99.5178V27H89.12ZM101.553 14.3438V12.4545H112.81V14.3438H108.271V27H106.084V14.3438H101.553Z" fill="white"/>
<path d="M124.889 17.6666H135.778M124.889 22.3333H135.778" stroke="#F6F8F9" stroke-width="2" stroke-linecap="round" stroke-linejoin="round"/>
<rect x="146.667" width="40" height="40" rx="20" fill="#CFD8E1"/>
<path d="M168.057 15.7855V27H165.437V15.7855H168.057ZM172.574 15.7855V17.973H160.976V15.7855H172.574ZM172.574 12.4545V14.642H160.976V12.4545H172.574Z" fill="#535A65"/>
<path d="M200.584 12.4545V27H198.383V14.6562H198.297L194.817 16.929V14.8267L198.447 12.4545H200.584ZM209.293 14.3438V12.4545H220.551V14.3438H216.012V27H213.825V14.3438H209.293ZM223.038 27V12.4545H232.157V14.3438H225.233V18.7756H231.682V20.6577H225.233V25.1108H232.243V27H223.038ZM235.089 27V12.4545H237.284V18.7756H244.535V12.4545H246.737V27H244.535V20.6577H237.284V27H235.089ZM259.002 12.4545V14.3438H252.127V27H249.933V12.4545H259.002ZM261.476 27V12.4545H270.595V14.3438H263.67V18.7756H270.119V20.6577H263.67V25.1108H270.68V27H261.476Z" fill="white"/>
<defs>
<filter id="filter0_d_279_139" x="8.52936" y="10.0044" width="22.9208" height="7.79552" filterUnits="userSpaceOnUse" color-interpolation-filters="sRGB">
<feFlood flood-opacity="0" result="BackgroundImageFix"/>
<feColorMatrix in="SourceAlpha" type="matrix" values="0 0 0 0 0 0 0 0 0 0 0 0 0 0 0 0 0 0 127 0" result="hardAlpha"/>
<feOffset dy="0.716276"/>
<feGaussianBlur stdDeviation="0.716276"/>
<feColorMatrix type="matrix" values="0 0 0 0 0.027451 0 0 0 0 0.811765 0 0 0 0 0.592157 0 0 0 0.36 0"/>
<feBlend mode="normal" in2="BackgroundImageFix" result="effect1_dropShadow_279_139"/>
<feBlend mode="normal" in="SourceGraphic" in2="effect1_dropShadow_279_139" result="shape"/>
</filter>
<filter id="filter1_d_279_139" x="10.7022" y="15.7943" width="16.9877" height="8.79821" filterUnits="userSpaceOnUse" color-interpolation-filters="sRGB">
<feFlood flood-opacity="0" result="BackgroundImageFix"/>
<feColorMatrix in="SourceAlpha" type="matrix" values="0 0 0 0 0 0 0 0 0 0 0 0 0 0 0 0 0 0 127 0" result="hardAlpha"/>
<feOffset dy="0.716276"/>
<feGaussianBlur stdDeviation="0.716276"/>
<feColorMatrix type="matrix" values="0 0 0 0 0.027451 0 0 0 0 0.811765 0 0 0 0 0.592157 0 0 0 0.36 0"/>
<feBlend mode="normal" in2="BackgroundImageFix" result="effect1_dropShadow_279_139"/>
<feBlend mode="normal" in="SourceGraphic" in2="effect1_dropShadow_279_139" result="shape"/>
</filter>
<filter id="filter2_d_279_139" x="16.1337" y="22.2469" width="7.79546" height="11.3052" filterUnits="userSpaceOnUse" color-interpolation-filters="sRGB">
<feFlood flood-opacity="0" result="BackgroundImageFix"/>
<feColorMatrix in="SourceAlpha" type="matrix" values="0 0 0 0 0 0 0 0 0 0 0 0 0 0 0 0 0 0 127 0" result="hardAlpha"/>
<feOffset dy="0.716276"/>
<feGaussianBlur stdDeviation="0.716276"/>
<feColorMatrix type="matrix" values="0 0 0 0 0.027451 0 0 0 0 0.811765 0 0 0 0 0.592157 0 0 0 0.36 0"/>
<feBlend mode="normal" in2="BackgroundImageFix" result="effect1_dropShadow_279_139"/>
<feBlend mode="normal" in="SourceGraphic" in2="effect1_dropShadow_279_139" result="shape"/>
</filter>
</defs>
</svg>
