<svg width="560" height="115" viewBox="0 0 560 115" fill="none" xmlns="http://www.w3.org/2000/svg">
<g filter="url(#filter0_dd_118_778)">
<rect x="6.5" y="8" width="284" height="99" rx="14" fill="white"/>
<rect x="7" y="8.5" width="283" height="98" rx="13.5" stroke="white"/>
<rect x="18.5" y="20" width="20" height="20" rx="10" fill="#00131A"/>
<g filter="url(#filter1_d_118_778)">
<rect x="23.481" y="25.3604" width="10.0279" height="2.46518" fill="#07CF97"/>
</g>
<g filter="url(#filter2_d_118_778)">
<path d="M24.5674 28.7567L31.6287 28.2553V30.7205L24.5674 31.2219V28.7567Z" fill="#07CF97"/>
</g>
<g filter="url(#filter3_d_118_778)">
<path d="M27.2831 31.6905L29.7483 31.4816V35.7016H27.2831V31.6905Z" fill="#07CF97"/>
</g>
<path d="M24.0568 55.9205L23.1534 56.1761C23.0966 56.0256 23.0128 55.8793 22.902 55.7372C22.794 55.5923 22.6463 55.473 22.4588 55.3793C22.2713 55.2855 22.0312 55.2386 21.7386 55.2386C21.3381 55.2386 21.0043 55.331 20.7372 55.5156C20.473 55.6974 20.3409 55.929 20.3409 56.2102C20.3409 56.4602 20.4318 56.6577 20.6136 56.8026C20.7955 56.9474 21.0795 57.0682 21.4659 57.1648L22.4375 57.4034C23.0227 57.5455 23.4588 57.7628 23.7457 58.0554C24.0327 58.3452 24.1761 58.7187 24.1761 59.1761C24.1761 59.5511 24.0682 59.8864 23.8523 60.1818C23.6392 60.4773 23.3409 60.7102 22.9574 60.8807C22.5739 61.0511 22.1278 61.1364 21.6193 61.1364C20.9517 61.1364 20.3991 60.9915 19.9616 60.7017C19.5241 60.4119 19.2472 59.9886 19.1307 59.4318L20.0852 59.1932C20.1761 59.5455 20.348 59.8097 20.6009 59.9858C20.8565 60.1619 21.1903 60.25 21.6023 60.25C22.071 60.25 22.4432 60.1506 22.7188 59.9517C22.9972 59.75 23.1364 59.5085 23.1364 59.2273C23.1364 59 23.0568 58.8097 22.8977 58.6562C22.7386 58.5 22.4943 58.3835 22.1648 58.3068L21.0739 58.0511C20.4744 57.9091 20.0341 57.6889 19.7528 57.3906C19.4744 57.0895 19.3352 56.7131 19.3352 56.2614C19.3352 55.892 19.4389 55.5653 19.6463 55.2812C19.8565 54.9972 20.142 54.7741 20.5028 54.6122C20.8665 54.4503 21.2784 54.3693 21.7386 54.3693C22.3864 54.3693 22.8949 54.5114 23.2642 54.7955C23.6364 55.0795 23.9006 55.4545 24.0568 55.9205ZM25.8263 61V52.2727H26.8832V56.6023H26.9854L30.9059 52.2727H32.2866L28.6218 56.2102L32.2866 61H31.0082L27.9741 56.9432L26.8832 58.1705V61H25.8263ZM33.3647 61V60.233L38.0692 53.2102H33.3136V52.2727H39.3306V53.0398L34.6261 60.0625H39.3817V61H33.3647ZM40.6772 53.2102V52.2727H47.2227V53.2102H44.4783V61H43.4215V53.2102H40.6772ZM52.0923 61V54.4545H54.7685C55.473 54.4545 56.0327 54.6136 56.4474 54.9318C56.8622 55.25 57.0696 55.6705 57.0696 56.1932C57.0696 56.5909 56.9517 56.8991 56.7159 57.1179C56.4801 57.3338 56.1776 57.4801 55.8082 57.5568C56.0497 57.5909 56.2841 57.6761 56.5114 57.8125C56.7415 57.9489 56.9318 58.1364 57.0824 58.375C57.233 58.6108 57.3082 58.9006 57.3082 59.2443C57.3082 59.5795 57.223 59.8793 57.0526 60.1435C56.8821 60.4077 56.6378 60.6165 56.3196 60.7699C56.0014 60.9233 55.6207 61 55.1776 61H52.0923ZM53.0469 60.0795H55.1776C55.5241 60.0795 55.7955 59.9972 55.9915 59.8324C56.1875 59.6676 56.2855 59.4432 56.2855 59.1591C56.2855 58.821 56.1875 58.5554 55.9915 58.3622C55.7955 58.1662 55.5241 58.0682 55.1776 58.0682H53.0469V60.0795ZM53.0469 57.1989H54.7685C55.0384 57.1989 55.2699 57.1619 55.4631 57.0881C55.6562 57.0114 55.804 56.9034 55.9062 56.7642C56.0114 56.6222 56.0639 56.4545 56.0639 56.2614C56.0639 55.9858 55.9489 55.7699 55.7188 55.6136C55.4886 55.4545 55.1719 55.375 54.7685 55.375H53.0469V57.1989ZM64.8647 61.1364C64.2738 61.1364 63.7553 60.9957 63.3093 60.7145C62.8661 60.4332 62.5195 60.0398 62.2695 59.5341C62.0224 59.0284 61.8988 58.4375 61.8988 57.7614C61.8988 57.0795 62.0224 56.4844 62.2695 55.9759C62.5195 55.4673 62.8661 55.0724 63.3093 54.7912C63.7553 54.5099 64.2738 54.3693 64.8647 54.3693C65.4556 54.3693 65.9727 54.5099 66.4158 54.7912C66.8619 55.0724 67.2085 55.4673 67.4556 55.9759C67.7056 56.4844 67.8306 57.0795 67.8306 57.7614C67.8306 58.4375 67.7056 59.0284 67.4556 59.5341C67.2085 60.0398 66.8619 60.4332 66.4158 60.7145C65.9727 60.9957 65.4556 61.1364 64.8647 61.1364ZM64.8647 60.233C65.3136 60.233 65.6829 60.1179 65.9727 59.8878C66.2624 59.6577 66.4769 59.3551 66.6161 58.9801C66.7553 58.6051 66.8249 58.1989 66.8249 57.7614C66.8249 57.3239 66.7553 56.9162 66.6161 56.5384C66.4769 56.1605 66.2624 55.8551 65.9727 55.6222C65.6829 55.3892 65.3136 55.2727 64.8647 55.2727C64.4158 55.2727 64.0465 55.3892 63.7567 55.6222C63.467 55.8551 63.2525 56.1605 63.1133 56.5384C62.9741 56.9162 62.9045 57.3239 62.9045 57.7614C62.9045 58.1989 62.9741 58.6051 63.1133 58.9801C63.2525 59.3551 63.467 59.6577 63.7567 59.8878C64.0465 60.1179 64.4158 60.233 64.8647 60.233ZM74.2237 52L74.7351 52.6136C74.5362 52.8068 74.3061 52.9418 74.0447 53.0185C73.7834 53.0952 73.4879 53.142 73.1584 53.1591C72.8288 53.1761 72.4624 53.1932 72.0589 53.2102C71.6044 53.2273 71.228 53.3381 70.9297 53.5426C70.6314 53.7472 70.4013 54.0426 70.2393 54.429C70.0774 54.8153 69.9737 55.2898 69.9283 55.8523H70.0135C70.2351 55.4432 70.5419 55.142 70.9339 54.9489C71.326 54.7557 71.7464 54.6591 72.1953 54.6591C72.7067 54.6591 73.1669 54.7784 73.576 55.017C73.9851 55.2557 74.3089 55.6094 74.5476 56.0781C74.7862 56.5469 74.9055 57.125 74.9055 57.8125C74.9055 58.4972 74.7834 59.0881 74.5391 59.5852C74.2976 60.0824 73.9581 60.4659 73.5206 60.7358C73.0859 61.0028 72.576 61.1364 71.9908 61.1364C71.4055 61.1364 70.8928 60.9986 70.4524 60.723C70.0121 60.4446 69.6697 60.0327 69.4254 59.4872C69.1811 58.9389 69.0589 58.2614 69.0589 57.4545V56.7557C69.0589 55.2983 69.3061 54.1932 69.8004 53.4403C70.2976 52.6875 71.0447 52.2983 72.0419 52.2727C72.3942 52.2614 72.7081 52.2585 72.9837 52.2642C73.2592 52.2699 73.4993 52.2571 73.7038 52.2259C73.9084 52.1946 74.0817 52.1193 74.2237 52ZM71.9908 60.233C72.3857 60.233 72.7251 60.1335 73.0092 59.9347C73.2962 59.7358 73.5163 59.456 73.6697 59.0952C73.8232 58.7315 73.8999 58.304 73.8999 57.8125C73.8999 57.3352 73.8217 56.929 73.6655 56.5938C73.5121 56.2585 73.2919 56.0028 73.005 55.8267C72.718 55.6506 72.3743 55.5625 71.9737 55.5625C71.6811 55.5625 71.4183 55.6122 71.1854 55.7116C70.9524 55.8111 70.7536 55.9574 70.5888 56.1506C70.424 56.3437 70.2962 56.5795 70.2053 56.858C70.1172 57.1364 70.0703 57.4545 70.0646 57.8125C70.0646 58.5455 70.2365 59.1321 70.5803 59.5724C70.924 60.0128 71.3942 60.233 71.9908 60.233ZM79.103 61.1364C78.5121 61.1364 77.9936 60.9957 77.5476 60.7145C77.1044 60.4332 76.7578 60.0398 76.5078 59.5341C76.2607 59.0284 76.1371 58.4375 76.1371 57.7614C76.1371 57.0795 76.2607 56.4844 76.5078 55.9759C76.7578 55.4673 77.1044 55.0724 77.5476 54.7912C77.9936 54.5099 78.5121 54.3693 79.103 54.3693C79.6939 54.3693 80.2109 54.5099 80.6541 54.7912C81.1001 55.0724 81.4467 55.4673 81.6939 55.9759C81.9439 56.4844 82.0689 57.0795 82.0689 57.7614C82.0689 58.4375 81.9439 59.0284 81.6939 59.5341C81.4467 60.0398 81.1001 60.4332 80.6541 60.7145C80.2109 60.9957 79.6939 61.1364 79.103 61.1364ZM79.103 60.233C79.5518 60.233 79.9212 60.1179 80.2109 59.8878C80.5007 59.6577 80.7152 59.3551 80.8544 58.9801C80.9936 58.6051 81.0632 58.1989 81.0632 57.7614C81.0632 57.3239 80.9936 56.9162 80.8544 56.5384C80.7152 56.1605 80.5007 55.8551 80.2109 55.6222C79.9212 55.3892 79.5518 55.2727 79.103 55.2727C78.6541 55.2727 78.2848 55.3892 77.995 55.6222C77.7053 55.8551 77.4908 56.1605 77.3516 56.5384C77.2124 56.9162 77.1428 57.3239 77.1428 57.7614C77.1428 58.1989 77.2124 58.6051 77.3516 58.9801C77.4908 59.3551 77.7053 59.6577 77.995 59.8878C78.2848 60.1179 78.6541 60.233 79.103 60.233ZM83.604 63.4545V54.4545H84.5756V55.4943H84.695C84.7688 55.3807 84.8711 55.2358 85.0018 55.0597C85.1353 54.8807 85.3256 54.7216 85.5728 54.5824C85.8228 54.4403 86.1609 54.3693 86.587 54.3693C87.1381 54.3693 87.6239 54.5071 88.0444 54.7827C88.4648 55.0582 88.793 55.4489 89.0288 55.9545C89.2646 56.4602 89.3825 57.0568 89.3825 57.7443C89.3825 58.4375 89.2646 59.0384 89.0288 59.5469C88.793 60.0526 88.4663 60.4446 88.0487 60.723C87.631 60.9986 87.1495 61.1364 86.604 61.1364C86.1836 61.1364 85.8469 61.0668 85.5941 60.9276C85.3413 60.7855 85.1467 60.625 85.0103 60.446C84.8739 60.2642 84.7688 60.1136 84.695 59.9943H84.6097V63.4545H83.604ZM84.5927 57.7273C84.5927 58.2216 84.6651 58.6577 84.81 59.0355C84.9549 59.4105 85.1665 59.7045 85.445 59.9176C85.7234 60.1278 86.0643 60.233 86.4677 60.233C86.8881 60.233 87.239 60.1222 87.5202 59.9006C87.8043 59.6761 88.0174 59.375 88.1594 58.9972C88.3043 58.6165 88.3768 58.1932 88.3768 57.7273C88.3768 57.267 88.3058 56.8523 88.1637 56.483C88.0245 56.1108 87.8129 55.8168 87.5288 55.6009C87.2475 55.3821 86.8938 55.2727 86.4677 55.2727C86.0586 55.2727 85.7148 55.3764 85.4364 55.5838C85.158 55.7884 84.9478 56.0753 84.8058 56.4446C84.6637 56.8111 84.5927 57.2386 84.5927 57.7273ZM93.5756 61.1364C92.9847 61.1364 92.4663 60.9957 92.0202 60.7145C91.5771 60.4332 91.2305 60.0398 90.9805 59.5341C90.7333 59.0284 90.6097 58.4375 90.6097 57.7614C90.6097 57.0795 90.7333 56.4844 90.9805 55.9759C91.2305 55.4673 91.5771 55.0724 92.0202 54.7912C92.4663 54.5099 92.9847 54.3693 93.5756 54.3693C94.1665 54.3693 94.6836 54.5099 95.1268 54.7912C95.5728 55.0724 95.9194 55.4673 96.1665 55.9759C96.4165 56.4844 96.5415 57.0795 96.5415 57.7614C96.5415 58.4375 96.4165 59.0284 96.1665 59.5341C95.9194 60.0398 95.5728 60.4332 95.1268 60.7145C94.6836 60.9957 94.1665 61.1364 93.5756 61.1364ZM93.5756 60.233C94.0245 60.233 94.3938 60.1179 94.6836 59.8878C94.9734 59.6577 95.1879 59.3551 95.3271 58.9801C95.4663 58.6051 95.5359 58.1989 95.5359 57.7614C95.5359 57.3239 95.4663 56.9162 95.3271 56.5384C95.1879 56.1605 94.9734 55.8551 94.6836 55.6222C94.3938 55.3892 94.0245 55.2727 93.5756 55.2727C93.1268 55.2727 92.7575 55.3892 92.4677 55.6222C92.1779 55.8551 91.9634 56.1605 91.8242 56.5384C91.685 56.9162 91.6154 57.3239 91.6154 57.7614C91.6154 58.1989 91.685 58.6051 91.8242 58.9801C91.9634 59.3551 92.1779 59.6577 92.4677 59.8878C92.7575 60.1179 93.1268 60.233 93.5756 60.233ZM97.2212 55.392V54.4545H102.539V55.392H100.392V61H99.386V55.392H97.2212ZM106.411 61.1364C105.78 61.1364 105.236 60.9972 104.779 60.7188C104.324 60.4375 103.973 60.0455 103.726 59.5426C103.482 59.0369 103.36 58.4489 103.36 57.7784C103.36 57.108 103.482 56.517 103.726 56.0057C103.973 55.4915 104.317 55.0909 104.757 54.804C105.201 54.5142 105.718 54.3693 106.309 54.3693C106.65 54.3693 106.986 54.4261 107.319 54.5398C107.651 54.6534 107.953 54.8381 108.226 55.0938C108.499 55.3466 108.716 55.6818 108.878 56.0994C109.04 56.517 109.121 57.0312 109.121 57.642V58.0682H104.076V57.1989H108.098C108.098 56.8295 108.025 56.5 107.877 56.2102C107.732 55.9205 107.525 55.6918 107.255 55.5241C106.988 55.3565 106.672 55.2727 106.309 55.2727C105.908 55.2727 105.561 55.3722 105.269 55.571C104.979 55.767 104.756 56.0227 104.6 56.3381C104.444 56.6534 104.365 56.9915 104.365 57.3523V57.9318C104.365 58.4261 104.451 58.8452 104.621 59.1889C104.794 59.5298 105.034 59.7898 105.341 59.9688C105.648 60.1449 106.005 60.233 106.411 60.233C106.675 60.233 106.914 60.196 107.127 60.1222C107.343 60.0455 107.529 59.9318 107.685 59.7812C107.841 59.6278 107.962 59.4375 108.047 59.2102L109.019 59.483C108.917 59.8125 108.745 60.1023 108.503 60.3523C108.262 60.5994 107.963 60.7926 107.608 60.9318C107.253 61.0682 106.854 61.1364 106.411 61.1364Z" fill="#101010"/>
<path d="M20.0511 92V89.7159L26.1108 83.7756C26.6903 83.1903 27.1733 82.6705 27.5597 82.2159C27.946 81.7614 28.2358 81.321 28.429 80.8949C28.6222 80.4687 28.7188 80.0142 28.7188 79.5312C28.7188 78.9801 28.5938 78.5085 28.3438 78.1165C28.0938 77.7188 27.75 77.4119 27.3125 77.196C26.875 76.9801 26.3778 76.8722 25.821 76.8722C25.2472 76.8722 24.7443 76.9915 24.3125 77.2301C23.8807 77.4631 23.5455 77.7955 23.3068 78.2273C23.0739 78.6591 22.9574 79.1733 22.9574 79.7699H19.9489C19.9489 78.6619 20.2017 77.6989 20.7074 76.8807C21.2131 76.0625 21.9091 75.429 22.7955 74.9801C23.6875 74.5312 24.7102 74.3068 25.8636 74.3068C27.0341 74.3068 28.0625 74.5256 28.9489 74.9631C29.8352 75.4006 30.5227 76 31.0114 76.7614C31.5057 77.5227 31.7528 78.392 31.7528 79.3693C31.7528 80.0227 31.6278 80.6648 31.3778 81.2955C31.1278 81.9261 30.6875 82.625 30.0568 83.392C29.4318 84.1591 28.554 85.0881 27.4233 86.179L24.4148 89.2386V89.358H32.017V92H20.0511ZM40.9291 92.3324C39.5257 92.3324 38.3211 91.9773 37.3155 91.267C36.3155 90.5511 35.5456 89.5199 35.0058 88.1733C34.4717 86.821 34.2047 85.1932 34.2047 83.2898C34.2103 81.3864 34.4802 79.767 35.0143 78.4318C35.5541 77.0909 36.324 76.0682 37.324 75.3636C38.3297 74.6591 39.5314 74.3068 40.9291 74.3068C42.3268 74.3068 43.5285 74.6591 44.5342 75.3636C45.5399 76.0682 46.3098 77.0909 46.8439 78.4318C47.3836 79.7727 47.6535 81.392 47.6535 83.2898C47.6535 85.1989 47.3836 86.8295 46.8439 88.1818C46.3098 89.5284 45.5399 90.5568 44.5342 91.267C43.5342 91.9773 42.3325 92.3324 40.9291 92.3324ZM40.9291 89.6648C42.02 89.6648 42.8808 89.1278 43.5115 88.054C44.1478 86.9744 44.466 85.3864 44.466 83.2898C44.466 81.9034 44.3211 80.7386 44.0314 79.7955C43.7416 78.8523 43.3325 78.142 42.8041 77.6648C42.2757 77.1818 41.6507 76.9403 40.9291 76.9403C39.8439 76.9403 38.9859 77.4801 38.3552 78.5597C37.7245 79.6335 37.4064 81.2102 37.4007 83.2898C37.395 84.6818 37.5342 85.8523 37.8183 86.8011C38.1081 87.75 38.5172 88.4659 39.0456 88.9489C39.574 89.4261 40.2018 89.6648 40.9291 89.6648ZM56.4569 92.3324C55.0535 92.3324 53.8489 91.9773 52.8433 91.267C51.8433 90.5511 51.0734 89.5199 50.5336 88.1733C49.9995 86.821 49.7325 85.1932 49.7325 83.2898C49.7382 81.3864 50.008 79.767 50.5421 78.4318C51.0819 77.0909 51.8518 76.0682 52.8518 75.3636C53.8575 74.6591 55.0592 74.3068 56.4569 74.3068C57.8546 74.3068 59.0563 74.6591 60.062 75.3636C61.0677 76.0682 61.8376 77.0909 62.3717 78.4318C62.9114 79.7727 63.1813 81.392 63.1813 83.2898C63.1813 85.1989 62.9114 86.8295 62.3717 88.1818C61.8376 89.5284 61.0677 90.5568 60.062 91.267C59.062 91.9773 57.8603 92.3324 56.4569 92.3324ZM56.4569 89.6648C57.5478 89.6648 58.4086 89.1278 59.0393 88.054C59.6757 86.9744 59.9938 85.3864 59.9938 83.2898C59.9938 81.9034 59.849 80.7386 59.5592 79.7955C59.2694 78.8523 58.8603 78.142 58.3319 77.6648C57.8035 77.1818 57.1785 76.9403 56.4569 76.9403C55.3717 76.9403 54.5137 77.4801 53.883 78.5597C53.2524 79.6335 52.9342 81.2102 52.9285 83.2898C52.9228 84.6818 53.062 85.8523 53.3461 86.8011C53.6359 87.75 54.045 88.4659 54.5734 88.9489C55.1018 89.4261 55.7296 89.6648 56.4569 89.6648ZM77.4578 92.3324C76.0544 92.3324 74.8499 91.9773 73.8442 91.267C72.8442 90.5511 72.0743 89.5199 71.5345 88.1733C71.0005 86.821 70.7334 85.1932 70.7334 83.2898C70.7391 81.3864 71.009 79.767 71.5431 78.4318C72.0828 77.0909 72.8527 76.0682 73.8527 75.3636C74.8584 74.6591 76.0601 74.3068 77.4578 74.3068C78.8556 74.3068 80.0573 74.6591 81.063 75.3636C82.0686 76.0682 82.8385 77.0909 83.3726 78.4318C83.9124 79.7727 84.1823 81.392 84.1823 83.2898C84.1823 85.1989 83.9124 86.8295 83.3726 88.1818C82.8385 89.5284 82.0686 90.5568 81.063 91.267C80.063 91.9773 78.8613 92.3324 77.4578 92.3324ZM77.4578 89.6648C78.5488 89.6648 79.4095 89.1278 80.0402 88.054C80.6766 86.9744 80.9948 85.3864 80.9948 83.2898C80.9948 81.9034 80.8499 80.7386 80.5601 79.7955C80.2703 78.8523 79.8613 78.142 79.3328 77.6648C78.8044 77.1818 78.1794 76.9403 77.4578 76.9403C76.3726 76.9403 75.5147 77.4801 74.884 78.5597C74.2533 79.6335 73.9351 81.2102 73.9294 83.2898C73.9238 84.6818 74.063 85.8523 74.347 86.8011C74.6368 87.75 75.0459 88.4659 75.5743 88.9489C76.1027 89.4261 76.7306 89.6648 77.4578 89.6648ZM92.9857 92.3324C91.5822 92.3324 90.3777 91.9773 89.372 91.267C88.372 90.5511 87.6021 89.5199 87.0624 88.1733C86.5283 86.821 86.2612 85.1932 86.2612 83.2898C86.2669 81.3864 86.5368 79.767 87.0709 78.4318C87.6107 77.0909 88.3805 76.0682 89.3805 75.3636C90.3862 74.6591 91.5879 74.3068 92.9857 74.3068C94.3834 74.3068 95.5851 74.6591 96.5908 75.3636C97.5964 76.0682 98.3663 77.0909 98.9004 78.4318C99.4402 79.7727 99.7101 81.392 99.7101 83.2898C99.7101 85.1989 99.4402 86.8295 98.9004 88.1818C98.3663 89.5284 97.5964 90.5568 96.5908 91.267C95.5908 91.9773 94.3891 92.3324 92.9857 92.3324ZM92.9857 89.6648C94.0766 89.6648 94.9374 89.1278 95.568 88.054C96.2044 86.9744 96.5226 85.3864 96.5226 83.2898C96.5226 81.9034 96.3777 80.7386 96.0879 79.7955C95.7982 78.8523 95.3891 78.142 94.8607 77.6648C94.3322 77.1818 93.7072 76.9403 92.9857 76.9403C91.9004 76.9403 91.0425 77.4801 90.4118 78.5597C89.7811 79.6335 89.4629 81.2102 89.4572 83.2898C89.4516 84.6818 89.5908 85.8523 89.8749 86.8011C90.1646 87.75 90.5737 88.4659 91.1021 88.9489C91.6305 89.4261 92.2584 89.6648 92.9857 89.6648ZM108.513 92.3324C107.11 92.3324 105.906 91.9773 104.9 91.267C103.9 90.5511 103.13 89.5199 102.59 88.1733C102.056 86.821 101.789 85.1932 101.789 83.2898C101.795 81.3864 102.065 79.767 102.599 78.4318C103.138 77.0909 103.908 76.0682 104.908 75.3636C105.914 74.6591 107.116 74.3068 108.513 74.3068C109.911 74.3068 111.113 74.6591 112.119 75.3636C113.124 76.0682 113.894 77.0909 114.428 78.4318C114.968 79.7727 115.238 81.392 115.238 83.2898C115.238 85.1989 114.968 86.8295 114.428 88.1818C113.894 89.5284 113.124 90.5568 112.119 91.267C111.119 91.9773 109.917 92.3324 108.513 92.3324ZM108.513 89.6648C109.604 89.6648 110.465 89.1278 111.096 88.054C111.732 86.9744 112.05 85.3864 112.05 83.2898C112.05 81.9034 111.906 80.7386 111.616 79.7955C111.326 78.8523 110.917 78.142 110.388 77.6648C109.86 77.1818 109.235 76.9403 108.513 76.9403C107.428 76.9403 106.57 77.4801 105.94 78.5597C105.309 79.6335 104.991 81.2102 104.985 83.2898C104.979 84.6818 105.119 85.8523 105.403 86.8011C105.692 87.75 106.102 88.4659 106.63 88.9489C107.158 89.4261 107.786 89.6648 108.513 89.6648ZM130.98 78.5426V92H127.835V78.5426H130.98ZM136.401 78.5426V81.1676H122.483V78.5426H136.401ZM136.401 74.5455V77.1705H122.483V74.5455H136.401Z" fill="#101010"/>
<path d="M216.45 45.8621C199.903 45.8621 163.992 76.4655 153.5 95H278.5V20C274.903 26.4655 256.917 45.8621 216.45 45.8621Z" fill="url(#paint0_linear_118_778)"/>
<path d="M153.5 95C163.992 76.4655 199.903 45.8621 216.45 45.8621C256.917 45.8621 274.903 26.4655 278.5 20" stroke="#07CF97"/>
</g>
<g filter="url(#filter4_dd_118_778)">
<rect x="314.5" y="6" width="239" height="103" rx="14" fill="white"/>
<rect x="315" y="6.5" width="238" height="102" rx="13.5" stroke="white"/>
<rect x="326.5" y="20" width="20" height="20" rx="10" fill="#00131A"/>
<g filter="url(#filter5_d_118_778)">
<rect x="331.481" y="25.3604" width="10.0279" height="2.46518" fill="#07CF97"/>
</g>
<g filter="url(#filter6_d_118_778)">
<path d="M332.567 28.7567L339.629 28.2553V30.7205L332.567 31.2219V28.7567Z" fill="#07CF97"/>
</g>
<g filter="url(#filter7_d_118_778)">
<path d="M335.283 31.6905L337.748 31.4816V35.7016H335.283V31.6905Z" fill="#07CF97"/>
</g>
<path d="M334.58 55H333.523C333.46 54.696 333.351 54.429 333.195 54.1989C333.041 53.9688 332.854 53.7756 332.632 53.6193C332.413 53.4602 332.17 53.3409 331.903 53.2614C331.636 53.1818 331.358 53.142 331.068 53.142C330.54 53.142 330.061 53.2756 329.632 53.5426C329.206 53.8097 328.866 54.2031 328.614 54.723C328.364 55.2429 328.239 55.8807 328.239 56.6364C328.239 57.392 328.364 58.0298 328.614 58.5497C328.866 59.0696 329.206 59.4631 329.632 59.7301C330.061 59.9972 330.54 60.1307 331.068 60.1307C331.358 60.1307 331.636 60.0909 331.903 60.0114C332.17 59.9318 332.413 59.8139 332.632 59.6577C332.854 59.4986 333.041 59.304 333.195 59.0739C333.351 58.8409 333.46 58.5739 333.523 58.2727H334.58C334.5 58.7187 334.355 59.1179 334.145 59.4702C333.935 59.8224 333.673 60.1222 333.361 60.3693C333.048 60.6136 332.697 60.7997 332.308 60.9276C331.922 61.0554 331.509 61.1193 331.068 61.1193C330.324 61.1193 329.662 60.9375 329.082 60.5739C328.503 60.2102 328.047 59.6932 327.714 59.0227C327.382 58.3523 327.216 57.5568 327.216 56.6364C327.216 55.7159 327.382 54.9205 327.714 54.25C328.047 53.5795 328.503 53.0625 329.082 52.6989C329.662 52.3352 330.324 52.1534 331.068 52.1534C331.509 52.1534 331.922 52.2173 332.308 52.3452C332.697 52.473 333.048 52.6605 333.361 52.9077C333.673 53.152 333.935 53.4503 334.145 53.8026C334.355 54.152 334.5 54.5511 334.58 55ZM336.799 63.4545C336.628 63.4545 336.476 63.4403 336.343 63.4119C336.209 63.3864 336.117 63.3608 336.066 63.3352L336.321 62.4489C336.566 62.5114 336.782 62.5341 336.969 62.517C337.157 62.5 337.323 62.4162 337.468 62.2656C337.615 62.1179 337.75 61.8778 337.873 61.5455L338.06 61.0341L335.64 54.4545H336.73L338.537 59.6705H338.605L340.412 54.4545H341.503L338.725 61.9545C338.6 62.2926 338.445 62.5724 338.26 62.794C338.076 63.0185 337.861 63.1847 337.617 63.2926C337.375 63.4006 337.103 63.4545 336.799 63.4545ZM346.41 59.6364L348.694 54.4545H349.649L346.819 61H346.001L343.223 54.4545H344.16L346.41 59.6364ZM343.836 54.4545V61H342.831V54.4545H343.836ZM348.984 61V54.4545H349.99V61H348.984ZM355.41 59.6364L357.694 54.4545H358.649L355.819 61H355.001L352.223 54.4545H353.16L355.41 59.6364ZM352.836 54.4545V61H351.831V54.4545H352.836ZM357.984 61V54.4545H358.99V61H357.984ZM362.757 61.1534C362.342 61.1534 361.966 61.0753 361.627 60.919C361.289 60.7599 361.021 60.5312 360.822 60.233C360.623 59.9318 360.524 59.5682 360.524 59.142C360.524 58.767 360.598 58.4631 360.745 58.2301C360.893 57.9943 361.091 57.8097 361.338 57.6761C361.585 57.5426 361.858 57.4432 362.156 57.3778C362.457 57.3097 362.76 57.2557 363.064 57.2159C363.461 57.1648 363.784 57.1264 364.031 57.1009C364.281 57.0724 364.463 57.0256 364.576 56.9602C364.693 56.8949 364.751 56.7812 364.751 56.6193V56.5852C364.751 56.1648 364.636 55.8381 364.406 55.6051C364.179 55.3722 363.833 55.2557 363.37 55.2557C362.89 55.2557 362.514 55.3608 362.241 55.571C361.968 55.7812 361.777 56.0057 361.666 56.2443L360.711 55.9034C360.882 55.5057 361.109 55.196 361.393 54.9744C361.68 54.75 361.993 54.5937 362.331 54.5057C362.672 54.4148 363.007 54.3693 363.336 54.3693C363.547 54.3693 363.788 54.3949 364.061 54.446C364.336 54.4943 364.602 54.5952 364.858 54.7486C365.116 54.902 365.331 55.1335 365.501 55.4432C365.672 55.7528 365.757 56.1676 365.757 56.6875V61H364.751V60.1136H364.7C364.632 60.2557 364.518 60.4077 364.359 60.5696C364.2 60.7315 363.988 60.8693 363.724 60.983C363.46 61.0966 363.137 61.1534 362.757 61.1534ZM362.91 60.25C363.308 60.25 363.643 60.1719 363.916 60.0156C364.191 59.8594 364.399 59.6577 364.538 59.4105C364.68 59.1634 364.751 58.9034 364.751 58.6307V57.7102C364.708 57.7614 364.615 57.8082 364.47 57.8509C364.328 57.8906 364.163 57.9261 363.975 57.9574C363.791 57.9858 363.61 58.0114 363.434 58.0341C363.261 58.054 363.12 58.071 363.012 58.0852C362.751 58.1193 362.507 58.1747 362.279 58.2514C362.055 58.3253 361.873 58.4375 361.734 58.5881C361.598 58.7358 361.529 58.9375 361.529 59.1932C361.529 59.5426 361.659 59.8068 361.917 59.9858C362.179 60.1619 362.51 60.25 362.91 60.25ZM370.967 63.4545V54.4545H371.939V55.4943H372.058C372.132 55.3807 372.234 55.2358 372.365 55.0597C372.499 54.8807 372.689 54.7216 372.936 54.5824C373.186 54.4403 373.524 54.3693 373.95 54.3693C374.501 54.3693 374.987 54.5071 375.408 54.7827C375.828 55.0582 376.156 55.4489 376.392 55.9545C376.628 56.4602 376.746 57.0568 376.746 57.7443C376.746 58.4375 376.628 59.0384 376.392 59.5469C376.156 60.0526 375.83 60.4446 375.412 60.723C374.994 60.9986 374.513 61.1364 373.967 61.1364C373.547 61.1364 373.21 61.0668 372.957 60.9276C372.705 60.7855 372.51 60.625 372.374 60.446C372.237 60.2642 372.132 60.1136 372.058 59.9943H371.973V63.4545H370.967ZM371.956 57.7273C371.956 58.2216 372.028 58.6577 372.173 59.0355C372.318 59.4105 372.53 59.7045 372.808 59.9176C373.087 60.1278 373.428 60.233 373.831 60.233C374.251 60.233 374.602 60.1222 374.884 59.9006C375.168 59.6761 375.381 59.375 375.523 58.9972C375.668 58.6165 375.74 58.1932 375.74 57.7273C375.74 57.267 375.669 56.8523 375.527 56.483C375.388 56.1108 375.176 55.8168 374.892 55.6009C374.611 55.3821 374.257 55.2727 373.831 55.2727C373.422 55.2727 373.078 55.3764 372.8 55.5838C372.521 55.7884 372.311 56.0753 372.169 56.4446C372.027 56.8111 371.956 57.2386 371.956 57.7273ZM381.024 61.1364C380.393 61.1364 379.849 60.9972 379.392 60.7188C378.938 60.4375 378.587 60.0455 378.339 59.5426C378.095 59.0369 377.973 58.4489 377.973 57.7784C377.973 57.108 378.095 56.517 378.339 56.0057C378.587 55.4915 378.93 55.0909 379.371 54.804C379.814 54.5142 380.331 54.3693 380.922 54.3693C381.263 54.3693 381.599 54.4261 381.932 54.5398C382.264 54.6534 382.567 54.8381 382.839 55.0938C383.112 55.3466 383.33 55.6818 383.491 56.0994C383.653 56.517 383.734 57.0312 383.734 57.642V58.0682H378.689V57.1989H382.712C382.712 56.8295 382.638 56.5 382.49 56.2102C382.345 55.9205 382.138 55.6918 381.868 55.5241C381.601 55.3565 381.286 55.2727 380.922 55.2727C380.521 55.2727 380.175 55.3722 379.882 55.571C379.592 55.767 379.369 56.0227 379.213 56.3381C379.057 56.6534 378.979 56.9915 378.979 57.3523V57.9318C378.979 58.4261 379.064 58.8452 379.234 59.1889C379.408 59.5298 379.648 59.7898 379.955 59.9688C380.261 60.1449 380.618 60.233 381.024 60.233C381.288 60.233 381.527 60.196 381.74 60.1222C381.956 60.0455 382.142 59.9318 382.298 59.7812C382.455 59.6278 382.575 59.4375 382.661 59.2102L383.632 59.483C383.53 59.8125 383.358 60.1023 383.116 60.3523C382.875 60.5994 382.577 60.7926 382.222 60.9318C381.866 61.0682 381.467 61.1364 381.024 61.1364ZM384.855 59.3295H385.929C385.952 59.625 386.085 59.8494 386.33 60.0028C386.577 60.1562 386.898 60.233 387.293 60.233C387.696 60.233 388.041 60.1506 388.328 59.9858C388.615 59.8182 388.759 59.5483 388.759 59.1761C388.759 58.9574 388.705 58.767 388.597 58.6051C388.489 58.4403 388.337 58.3125 388.141 58.2216C387.945 58.1307 387.713 58.0852 387.446 58.0852H386.321V57.1818H387.446C387.847 57.1818 388.142 57.0909 388.332 56.9091C388.526 56.7273 388.622 56.5 388.622 56.2273C388.622 55.9347 388.518 55.7003 388.311 55.5241C388.104 55.3452 387.81 55.2557 387.429 55.2557C387.045 55.2557 386.726 55.3423 386.47 55.5156C386.214 55.6861 386.08 55.9062 386.065 56.1761H385.009C385.02 55.8239 385.128 55.5128 385.332 55.2429C385.537 54.9702 385.815 54.7571 386.168 54.6037C386.52 54.4474 386.923 54.3693 387.378 54.3693C387.838 54.3693 388.237 54.4503 388.575 54.6122C388.916 54.7713 389.179 54.9886 389.364 55.2642C389.551 55.5369 389.645 55.8466 389.645 56.1932C389.645 56.5625 389.541 56.8608 389.334 57.0881C389.126 57.3153 388.866 57.4773 388.554 57.5739V57.642C388.801 57.6591 389.016 57.7386 389.197 57.8807C389.382 58.0199 389.526 58.2031 389.628 58.4304C389.73 58.6548 389.781 58.9034 389.781 59.1761C389.781 59.5739 389.675 59.9205 389.462 60.2159C389.249 60.5085 388.956 60.7358 388.584 60.8977C388.212 61.0568 387.787 61.1364 387.31 61.1364C386.847 61.1364 386.432 61.0611 386.065 60.9105C385.699 60.7571 385.408 60.5455 385.192 60.2756C384.979 60.0028 384.866 59.6875 384.855 59.3295ZM393.938 61.1364C393.308 61.1364 392.763 60.9972 392.306 60.7188C391.852 60.4375 391.501 60.0455 391.254 59.5426C391.009 59.0369 390.887 58.4489 390.887 57.7784C390.887 57.108 391.009 56.517 391.254 56.0057C391.501 55.4915 391.844 55.0909 392.285 54.804C392.728 54.5142 393.245 54.3693 393.836 54.3693C394.177 54.3693 394.513 54.4261 394.846 54.5398C395.178 54.6534 395.481 54.8381 395.754 55.0938C396.026 55.3466 396.244 55.6818 396.406 56.0994C396.567 56.517 396.648 57.0312 396.648 57.642V58.0682H391.603V57.1989H395.626C395.626 56.8295 395.552 56.5 395.404 56.2102C395.259 55.9205 395.052 55.6918 394.782 55.5241C394.515 55.3565 394.2 55.2727 393.836 55.2727C393.435 55.2727 393.089 55.3722 392.796 55.571C392.506 55.767 392.283 56.0227 392.127 56.3381C391.971 56.6534 391.893 56.9915 391.893 57.3523V57.9318C391.893 58.4261 391.978 58.8452 392.148 59.1889C392.322 59.5298 392.562 59.7898 392.869 59.9688C393.175 60.1449 393.532 60.233 393.938 60.233C394.202 60.233 394.441 60.196 394.654 60.1222C394.87 60.0455 395.056 59.9318 395.212 59.7812C395.369 59.6278 395.489 59.4375 395.575 59.2102L396.546 59.483C396.444 59.8125 396.272 60.1023 396.031 60.3523C395.789 60.5994 395.491 60.7926 395.136 60.9318C394.781 61.0682 394.381 61.1364 393.938 61.1364ZM398.178 63.4545V54.4545H399.15V55.4943H399.269C399.343 55.3807 399.445 55.2358 399.576 55.0597C399.71 54.8807 399.9 54.7216 400.147 54.5824C400.397 54.4403 400.735 54.3693 401.161 54.3693C401.712 54.3693 402.198 54.5071 402.619 54.7827C403.039 55.0582 403.367 55.4489 403.603 55.9545C403.839 56.4602 403.957 57.0568 403.957 57.7443C403.957 58.4375 403.839 59.0384 403.603 59.5469C403.367 60.0526 403.04 60.4446 402.623 60.723C402.205 60.9986 401.724 61.1364 401.178 61.1364C400.758 61.1364 400.421 61.0668 400.168 60.9276C399.915 60.7855 399.721 60.625 399.585 60.446C399.448 60.2642 399.343 60.1136 399.269 59.9943H399.184V63.4545H398.178ZM399.167 57.7273C399.167 58.2216 399.239 58.6577 399.384 59.0355C399.529 59.4105 399.741 59.7045 400.019 59.9176C400.298 60.1278 400.638 60.233 401.042 60.233C401.462 60.233 401.813 60.1222 402.094 59.9006C402.379 59.6761 402.592 59.375 402.734 58.9972C402.879 58.6165 402.951 58.1932 402.951 57.7273C402.951 57.267 402.88 56.8523 402.738 56.483C402.599 56.1108 402.387 55.8168 402.103 55.6009C401.822 55.3821 401.468 55.2727 401.042 55.2727C400.633 55.2727 400.289 55.3764 400.011 55.5838C399.732 55.7884 399.522 56.0753 399.38 56.4446C399.238 56.8111 399.167 57.2386 399.167 57.7273ZM405.491 61V54.4545H408.167C408.871 54.4545 409.431 54.6136 409.846 54.9318C410.261 55.25 410.468 55.6705 410.468 56.1932C410.468 56.5909 410.35 56.8991 410.114 57.1179C409.879 57.3338 409.576 57.4801 409.207 57.5568C409.448 57.5909 409.683 57.6761 409.91 57.8125C410.14 57.9489 410.33 58.1364 410.481 58.375C410.631 58.6108 410.707 58.9006 410.707 59.2443C410.707 59.5795 410.621 59.8793 410.451 60.1435C410.281 60.4077 410.036 60.6165 409.718 60.7699C409.4 60.9233 409.019 61 408.576 61H405.491ZM406.445 60.0795H408.576C408.923 60.0795 409.194 59.9972 409.39 59.8324C409.586 59.6676 409.684 59.4432 409.684 59.1591C409.684 58.821 409.586 58.5554 409.39 58.3622C409.194 58.1662 408.923 58.0682 408.576 58.0682H406.445V60.0795ZM406.445 57.1989H408.167C408.437 57.1989 408.668 57.1619 408.862 57.0881C409.055 57.0114 409.202 56.9034 409.305 56.7642C409.41 56.6222 409.462 56.4545 409.462 56.2614C409.462 55.9858 409.347 55.7699 409.117 55.6136C408.887 55.4545 408.57 55.375 408.167 55.375H406.445V57.1989ZM414.888 61.1364C414.297 61.1364 413.779 60.9957 413.333 60.7145C412.89 60.4332 412.543 60.0398 412.293 59.5341C412.046 59.0284 411.922 58.4375 411.922 57.7614C411.922 57.0795 412.046 56.4844 412.293 55.9759C412.543 55.4673 412.89 55.0724 413.333 54.7912C413.779 54.5099 414.297 54.3693 414.888 54.3693C415.479 54.3693 415.996 54.5099 416.439 54.7912C416.885 55.0724 417.232 55.4673 417.479 55.9759C417.729 56.4844 417.854 57.0795 417.854 57.7614C417.854 58.4375 417.729 59.0284 417.479 59.5341C417.232 60.0398 416.885 60.4332 416.439 60.7145C415.996 60.9957 415.479 61.1364 414.888 61.1364ZM414.888 60.233C415.337 60.233 415.706 60.1179 415.996 59.8878C416.286 59.6577 416.5 59.3551 416.64 58.9801C416.779 58.6051 416.848 58.1989 416.848 57.7614C416.848 57.3239 416.779 56.9162 416.64 56.5384C416.5 56.1605 416.286 55.8551 415.996 55.6222C415.706 55.3892 415.337 55.2727 414.888 55.2727C414.439 55.2727 414.07 55.3892 413.78 55.6222C413.49 55.8551 413.276 56.1605 413.137 56.5384C412.998 56.9162 412.928 57.3239 412.928 57.7614C412.928 58.1989 412.998 58.6051 413.137 58.9801C413.276 59.3551 413.49 59.6577 413.78 59.8878C414.07 60.1179 414.439 60.233 414.888 60.233ZM419.389 61V54.4545H422.065C422.77 54.4545 423.33 54.6136 423.744 54.9318C424.159 55.25 424.366 55.6705 424.366 56.1932C424.366 56.5909 424.249 56.8991 424.013 57.1179C423.777 57.3338 423.474 57.4801 423.105 57.5568C423.347 57.5909 423.581 57.6761 423.808 57.8125C424.038 57.9489 424.229 58.1364 424.379 58.375C424.53 58.6108 424.605 58.9006 424.605 59.2443C424.605 59.5795 424.52 59.8793 424.349 60.1435C424.179 60.4077 423.935 60.6165 423.616 60.7699C423.298 60.9233 422.918 61 422.474 61H419.389ZM420.344 60.0795H422.474C422.821 60.0795 423.092 59.9972 423.288 59.8324C423.484 59.6676 423.582 59.4432 423.582 59.1591C423.582 58.821 423.484 58.5554 423.288 58.3622C423.092 58.1662 422.821 58.0682 422.474 58.0682H420.344V60.0795ZM420.344 57.1989H422.065C422.335 57.1989 422.567 57.1619 422.76 57.0881C422.953 57.0114 423.101 56.9034 423.203 56.7642C423.308 56.6222 423.361 56.4545 423.361 56.2614C423.361 55.9858 423.246 55.7699 423.016 55.6136C422.786 55.4545 422.469 55.375 422.065 55.375H420.344V57.1989Z" fill="#101010"/>
<path d="M334.315 92.2386C333.088 92.2386 331.997 92.0284 331.043 91.608C330.094 91.1875 329.344 90.6023 328.793 89.8523C328.241 89.1023 327.949 88.2358 327.915 87.2528H331.119C331.148 87.7244 331.304 88.1364 331.588 88.4886C331.872 88.8352 332.25 89.1051 332.722 89.2983C333.193 89.4915 333.722 89.5881 334.307 89.5881C334.932 89.5881 335.486 89.4801 335.969 89.2642C336.452 89.0426 336.83 88.7358 337.102 88.3438C337.375 87.9517 337.509 87.5 337.503 86.9886C337.509 86.4602 337.372 85.9943 337.094 85.5909C336.815 85.1875 336.412 84.8722 335.884 84.6449C335.361 84.4176 334.73 84.304 333.991 84.304H332.449V81.8665H333.991C334.599 81.8665 335.131 81.7614 335.585 81.5511C336.045 81.3409 336.406 81.0455 336.668 80.6648C336.929 80.2784 337.057 79.8324 337.051 79.3267C337.057 78.8324 336.946 78.4034 336.719 78.0398C336.497 77.6705 336.182 77.3835 335.773 77.179C335.369 76.9744 334.895 76.8722 334.349 76.8722C333.815 76.8722 333.321 76.9687 332.866 77.1619C332.412 77.3551 332.045 77.6307 331.767 77.9886C331.489 78.3409 331.341 78.7614 331.324 79.25H328.281C328.304 78.2727 328.585 77.4148 329.125 76.6761C329.67 75.9318 330.398 75.3523 331.307 74.9375C332.216 74.517 333.236 74.3068 334.366 74.3068C335.531 74.3068 336.543 74.5256 337.401 74.9631C338.264 75.3949 338.932 75.9773 339.403 76.7102C339.875 77.4432 340.111 78.2528 340.111 79.1392C340.116 80.1222 339.827 80.946 339.241 81.6108C338.662 82.2756 337.901 82.7102 336.957 82.9148V83.0511C338.185 83.2216 339.125 83.6761 339.778 84.4148C340.438 85.1477 340.764 86.0597 340.759 87.1506C340.759 88.1278 340.48 89.0028 339.923 89.7756C339.372 90.5426 338.611 91.1449 337.639 91.5824C336.673 92.0199 335.565 92.2386 334.315 92.2386ZM349.656 92.3324C348.252 92.3324 347.048 91.9773 346.042 91.267C345.042 90.5511 344.272 89.5199 343.732 88.1733C343.198 86.821 342.931 85.1932 342.931 83.2898C342.937 81.3864 343.207 79.767 343.741 78.4318C344.281 77.0909 345.051 76.0682 346.051 75.3636C347.056 74.6591 348.258 74.3068 349.656 74.3068C351.053 74.3068 352.255 74.6591 353.261 75.3636C354.266 76.0682 355.036 77.0909 355.57 78.4318C356.11 79.7727 356.38 81.392 356.38 83.2898C356.38 85.1989 356.11 86.8295 355.57 88.1818C355.036 89.5284 354.266 90.5568 353.261 91.267C352.261 91.9773 351.059 92.3324 349.656 92.3324ZM349.656 89.6648C350.747 89.6648 351.607 89.1278 352.238 88.054C352.874 86.9744 353.193 85.3864 353.193 83.2898C353.193 81.9034 353.048 80.7386 352.758 79.7955C352.468 78.8523 352.059 78.142 351.531 77.6648C351.002 77.1818 350.377 76.9403 349.656 76.9403C348.57 76.9403 347.712 77.4801 347.082 78.5597C346.451 79.6335 346.133 81.2102 346.127 83.2898C346.122 84.6818 346.261 85.8523 346.545 86.8011C346.835 87.75 347.244 88.4659 347.772 88.9489C348.301 89.4261 348.928 89.6648 349.656 89.6648ZM365.183 92.3324C363.78 92.3324 362.576 91.9773 361.57 91.267C360.57 90.5511 359.8 89.5199 359.26 88.1733C358.726 86.821 358.459 85.1932 358.459 83.2898C358.465 81.3864 358.735 79.767 359.269 78.4318C359.808 77.0909 360.578 76.0682 361.578 75.3636C362.584 74.6591 363.786 74.3068 365.183 74.3068C366.581 74.3068 367.783 74.6591 368.789 75.3636C369.794 76.0682 370.564 77.0909 371.098 78.4318C371.638 79.7727 371.908 81.392 371.908 83.2898C371.908 85.1989 371.638 86.8295 371.098 88.1818C370.564 89.5284 369.794 90.5568 368.789 91.267C367.789 91.9773 366.587 92.3324 365.183 92.3324ZM365.183 89.6648C366.274 89.6648 367.135 89.1278 367.766 88.054C368.402 86.9744 368.72 85.3864 368.72 83.2898C368.72 81.9034 368.576 80.7386 368.286 79.7955C367.996 78.8523 367.587 78.142 367.058 77.6648C366.53 77.1818 365.905 76.9403 365.183 76.9403C364.098 76.9403 363.24 77.4801 362.61 78.5597C361.979 79.6335 361.661 81.2102 361.655 83.2898C361.649 84.6818 361.789 85.8523 362.073 86.8011C362.362 87.75 362.772 88.4659 363.3 88.9489C363.828 89.4261 364.456 89.6648 365.183 89.6648ZM386.184 92.3324C384.781 92.3324 383.576 91.9773 382.571 91.267C381.571 90.5511 380.801 89.5199 380.261 88.1733C379.727 86.821 379.46 85.1932 379.46 83.2898C379.466 81.3864 379.736 79.767 380.27 78.4318C380.809 77.0909 381.579 76.0682 382.579 75.3636C383.585 74.6591 384.787 74.3068 386.184 74.3068C387.582 74.3068 388.784 74.6591 389.79 75.3636C390.795 76.0682 391.565 77.0909 392.099 78.4318C392.639 79.7727 392.909 81.392 392.909 83.2898C392.909 85.1989 392.639 86.8295 392.099 88.1818C391.565 89.5284 390.795 90.5568 389.79 91.267C388.79 91.9773 387.588 92.3324 386.184 92.3324ZM386.184 89.6648C387.275 89.6648 388.136 89.1278 388.767 88.054C389.403 86.9744 389.721 85.3864 389.721 83.2898C389.721 81.9034 389.576 80.7386 389.287 79.7955C388.997 78.8523 388.588 78.142 388.059 77.6648C387.531 77.1818 386.906 76.9403 386.184 76.9403C385.099 76.9403 384.241 77.4801 383.611 78.5597C382.98 79.6335 382.662 81.2102 382.656 83.2898C382.65 84.6818 382.79 85.8523 383.074 86.8011C383.363 87.75 383.772 88.4659 384.301 88.9489C384.829 89.4261 385.457 89.6648 386.184 89.6648ZM401.712 92.3324C400.309 92.3324 399.104 91.9773 398.099 91.267C397.099 90.5511 396.329 89.5199 395.789 88.1733C395.255 86.821 394.988 85.1932 394.988 83.2898C394.993 81.3864 395.263 79.767 395.797 78.4318C396.337 77.0909 397.107 76.0682 398.107 75.3636C399.113 74.6591 400.314 74.3068 401.712 74.3068C403.11 74.3068 404.312 74.6591 405.317 75.3636C406.323 76.0682 407.093 77.0909 407.627 78.4318C408.167 79.7727 408.437 81.392 408.437 83.2898C408.437 85.1989 408.167 86.8295 407.627 88.1818C407.093 89.5284 406.323 90.5568 405.317 91.267C404.317 91.9773 403.116 92.3324 401.712 92.3324ZM401.712 89.6648C402.803 89.6648 403.664 89.1278 404.295 88.054C404.931 86.9744 405.249 85.3864 405.249 83.2898C405.249 81.9034 405.104 80.7386 404.814 79.7955C404.525 78.8523 404.116 78.142 403.587 77.6648C403.059 77.1818 402.434 76.9403 401.712 76.9403C400.627 76.9403 399.769 77.4801 399.138 78.5597C398.508 79.6335 398.189 81.2102 398.184 83.2898C398.178 84.6818 398.317 85.8523 398.601 86.8011C398.891 87.75 399.3 88.4659 399.829 88.9489C400.357 89.4261 400.985 89.6648 401.712 89.6648ZM417.24 92.3324C415.837 92.3324 414.632 91.9773 413.626 91.267C412.626 90.5511 411.857 89.5199 411.317 88.1733C410.783 86.821 410.516 85.1932 410.516 83.2898C410.521 81.3864 410.791 79.767 411.325 78.4318C411.865 77.0909 412.635 76.0682 413.635 75.3636C414.641 74.6591 415.842 74.3068 417.24 74.3068C418.638 74.3068 419.839 74.6591 420.845 75.3636C421.851 76.0682 422.621 77.0909 423.155 78.4318C423.695 79.7727 423.964 81.392 423.964 83.2898C423.964 85.1989 423.695 86.8295 423.155 88.1818C422.621 89.5284 421.851 90.5568 420.845 91.267C419.845 91.9773 418.643 92.3324 417.24 92.3324ZM417.24 89.6648C418.331 89.6648 419.192 89.1278 419.822 88.054C420.459 86.9744 420.777 85.3864 420.777 83.2898C420.777 81.9034 420.632 80.7386 420.342 79.7955C420.053 78.8523 419.643 78.142 419.115 77.6648C418.587 77.1818 417.962 76.9403 417.24 76.9403C416.155 76.9403 415.297 77.4801 414.666 78.5597C414.035 79.6335 413.717 81.2102 413.712 83.2898C413.706 84.6818 413.845 85.8523 414.129 86.8011C414.419 87.75 414.828 88.4659 415.357 88.9489C415.885 89.4261 416.513 89.6648 417.24 89.6648ZM439.707 78.5426V92H436.562V78.5426H439.707ZM445.127 78.5426V81.1676H431.21V78.5426H445.127ZM445.127 74.5455V77.1705H431.21V74.5455H445.127Z" fill="#101010"/>
<path d="M538.247 57.2676C538.247 77.158 522.123 93.2823 502.232 93.2823C482.342 93.2823 466.218 77.158 466.218 57.2676C466.218 37.3773 482.342 21.2529 502.232 21.2529C522.123 21.2529 538.247 37.3773 538.247 57.2676ZM472.489 57.2676C472.489 73.6946 485.805 87.0113 502.232 87.0113C518.659 87.0113 531.976 73.6946 531.976 57.2676C531.976 40.8407 518.659 27.524 502.232 27.524C485.805 27.524 472.489 40.8407 472.489 57.2676Z" fill="#ECF0F2"/>
<path d="M462.5 57.5C462.5 79.3152 480.185 97 502 97C523.815 97 541.5 79.3152 541.5 57.5C541.5 35.6848 523.815 18 502 18C480.185 18 462.5 35.6848 462.5 57.5ZM527.862 57.5C527.862 71.7834 516.283 83.3624 502 83.3624C487.717 83.3624 476.138 71.7834 476.138 57.5C476.138 43.2166 487.717 31.6376 502 31.6376C516.283 31.6376 527.862 43.2166 527.862 57.5Z" fill="url(#paint1_radial_118_778)"/>
<path d="M500.745 24.8429C500.601 21.0797 503.554 17.8513 507.286 18.3553C510.44 18.7812 513.539 19.5878 516.514 20.7633C521.61 22.7767 526.232 25.8284 530.085 29.7243C533.938 33.6202 536.938 38.2751 538.895 43.3932C540.852 48.5112 541.723 53.9804 541.452 59.4531C541.181 64.9258 539.774 70.2823 537.321 75.182C534.868 80.0818 531.423 84.4176 527.204 87.9139C522.985 91.4101 518.085 93.9904 512.815 95.4906C509.738 96.3665 506.574 96.8631 503.394 96.9754C499.63 97.1083 497.01 93.604 497.526 89.8735C498.042 86.143 501.523 83.6308 505.258 83.1563C506.547 82.9926 507.825 82.7316 509.081 82.3742C512.531 81.3919 515.74 79.7025 518.502 77.4133C521.265 75.1241 523.52 72.2853 525.126 69.0772C526.732 65.8691 527.653 62.362 527.831 58.7788C528.008 55.1956 527.438 51.6146 526.157 48.2636C524.876 44.9126 522.911 41.8648 520.388 39.314C517.866 36.7632 514.84 34.7651 511.503 33.4469C510.289 32.9671 509.043 32.5812 507.777 32.291C504.106 31.4498 500.89 28.606 500.745 24.8429Z" fill="url(#paint2_radial_118_778)"/>
<rect x="495.029" y="42.1647" width="13.9412" height="13.9412" rx="6.97059" fill="#101010"/>
<g filter="url(#filter8_d_118_778)">
<rect x="498.501" y="45.9012" width="6.99001" height="1.71838" fill="#07CF97"/>
</g>
<g filter="url(#filter9_d_118_778)">
<path d="M499.259 48.2687L504.181 47.9192V49.6376L499.259 49.9871V48.2687Z" fill="#07CF97"/>
</g>
<g filter="url(#filter10_d_118_778)">
<path d="M501.152 50.3137L502.87 50.1681V53.1097H501.152V50.3137Z" fill="#07CF97"/>
</g>
<path d="M494.129 65.0898V72.0059H492.667V66.4778H492.626L491.042 67.4706V66.1739L492.755 65.0898H494.129ZM498.014 72.1005C497.536 72.1005 497.111 72.0127 496.737 71.8371C496.366 71.6615 496.071 71.4194 495.852 71.111C495.634 70.8026 495.52 70.4491 495.511 70.0506H496.93C496.945 70.3186 497.058 70.5358 497.267 70.7024C497.477 70.869 497.725 70.9523 498.014 70.9523C498.243 70.9523 498.446 70.9016 498.621 70.8003C498.799 70.6968 498.938 70.5538 499.037 70.3715C499.138 70.1868 499.189 69.9752 499.189 69.7366C499.189 69.4934 499.137 69.2796 499.033 69.095C498.932 68.9103 498.791 68.7663 498.611 68.6627C498.431 68.5591 498.225 68.5062 497.993 68.504C497.791 68.504 497.594 68.5456 497.402 68.6289C497.213 68.7122 497.066 68.8259 496.96 68.97L495.66 68.737L495.987 65.0898H500.215V66.2853H497.193L497.014 68.0177H497.054C497.176 67.8466 497.36 67.7048 497.605 67.5922C497.85 67.4796 498.125 67.4233 498.429 67.4233C498.845 67.4233 499.217 67.5213 499.543 67.7171C499.87 67.913 500.128 68.182 500.317 68.5242C500.506 68.8642 500.599 69.2559 500.597 69.6994C500.599 70.1655 500.491 70.5797 500.273 70.9422C500.057 71.3024 499.754 71.586 499.364 71.7932C498.977 71.998 498.527 72.1005 498.014 72.1005ZM504.043 72.1579C503.462 72.1556 502.963 72.0127 502.544 71.729C502.127 71.4453 501.807 71.0345 501.581 70.4964C501.358 69.9583 501.248 69.3111 501.25 68.5546C501.25 67.8004 501.362 67.1577 501.585 66.6264C501.81 66.0951 502.131 65.6909 502.547 65.414C502.966 65.1349 503.465 64.9953 504.043 64.9953C504.622 64.9953 505.119 65.1349 505.536 65.414C505.955 65.6932 506.277 66.0984 506.502 66.6298C506.727 67.1588 506.838 67.8004 506.836 68.5546C506.836 69.3133 506.723 69.9617 506.498 70.4998C506.275 71.0378 505.956 71.4487 505.539 71.7324C505.123 72.0161 504.624 72.1579 504.043 72.1579ZM504.043 70.9455C504.439 70.9455 504.756 70.7463 504.992 70.3478C505.229 69.9493 505.346 69.3516 505.343 68.5546C505.343 68.0301 505.289 67.5933 505.181 67.2444C505.075 66.8954 504.925 66.6331 504.729 66.4575C504.535 66.2819 504.307 66.1941 504.043 66.1941C503.649 66.1941 503.334 66.3911 503.098 66.7851C502.861 67.1791 502.742 67.7689 502.74 68.5546C502.74 69.0859 502.793 69.5295 502.898 69.8852C503.006 70.2386 503.158 70.5043 503.354 70.6821C503.55 70.8577 503.78 70.9455 504.043 70.9455ZM511.379 70.7092V70.3444C511.379 70.0675 511.437 69.8131 511.555 69.5812C511.674 69.3471 511.846 69.1602 512.071 69.0207C512.299 68.8788 512.576 68.8079 512.902 68.8079C513.233 68.8079 513.511 68.8777 513.736 69.0173C513.963 69.1569 514.135 69.3437 514.249 69.5779C514.366 69.8098 514.425 70.0653 514.425 70.3444V70.7092C514.425 70.9861 514.366 71.2416 514.249 71.4757C514.132 71.7076 513.96 71.8934 513.733 72.0329C513.505 72.1748 513.228 72.2457 512.902 72.2457C512.571 72.2457 512.293 72.1748 512.068 72.0329C511.843 71.8934 511.672 71.7076 511.555 71.4757C511.437 71.2416 511.379 70.9861 511.379 70.7092ZM512.362 70.3444V70.7092C512.362 70.869 512.4 71.0198 512.476 71.1617C512.555 71.3035 512.697 71.3744 512.902 71.3744C513.107 71.3744 513.246 71.3046 513.321 71.165C513.397 71.0255 513.436 70.8735 513.436 70.7092V70.3444C513.436 70.1801 513.399 70.027 513.327 69.8852C513.255 69.7433 513.114 69.6724 512.902 69.6724C512.699 69.6724 512.559 69.7433 512.48 69.8852C512.401 70.027 512.362 70.1801 512.362 70.3444ZM507.83 66.7513V66.3866C507.83 66.1074 507.889 65.8519 508.009 65.62C508.128 65.3859 508.3 65.199 508.525 65.0595C508.753 64.9199 509.027 64.8501 509.349 64.8501C509.683 64.8501 509.962 64.9199 510.187 65.0595C510.412 65.199 510.583 65.3859 510.7 65.62C510.817 65.8519 510.876 66.1074 510.876 66.3866V66.7513C510.876 67.0305 510.816 67.286 510.697 67.5179C510.58 67.7498 510.407 67.9355 510.18 68.0751C509.955 68.2124 509.678 68.2811 509.349 68.2811C509.021 68.2811 508.743 68.2113 508.515 68.0717C508.29 67.9299 508.119 67.7442 508.002 67.5145C507.887 67.2826 507.83 67.0282 507.83 66.7513ZM508.819 66.3866V66.7513C508.819 66.9157 508.857 67.0676 508.934 67.2072C509.013 67.3468 509.151 67.4166 509.349 67.4166C509.556 67.4166 509.697 67.3468 509.771 67.2072C509.848 67.0676 509.886 66.9157 509.886 66.7513V66.3866C509.886 66.2223 509.85 66.0692 509.778 65.9273C509.706 65.7855 509.563 65.7146 509.349 65.7146C509.149 65.7146 509.011 65.7866 508.934 65.9307C508.857 66.0748 508.819 66.2268 508.819 66.3866ZM508.275 72.0059L513.03 65.0898H513.915L509.16 72.0059H508.275Z" fill="#101010"/>
<path d="M497.551 61.5V59.4828H498.387C498.615 59.4828 498.795 59.5314 498.929 59.6286C499.062 59.7249 499.128 59.8558 499.128 60.0213C499.128 60.1394 499.09 60.2331 499.015 60.3023C498.94 60.3715 498.84 60.4179 498.716 60.4415C498.806 60.452 498.889 60.4791 498.964 60.5229C499.039 60.5658 499.1 60.6236 499.145 60.6963C499.192 60.7689 499.215 60.8556 499.215 60.9563C499.215 61.0631 499.187 61.1577 499.132 61.24C499.077 61.3214 498.997 61.3853 498.892 61.4317C498.788 61.4772 498.662 61.5 498.515 61.5H497.551ZM497.92 61.1717H498.515C498.612 61.1717 498.688 61.1485 498.743 61.1021C498.799 61.0557 498.826 60.9926 498.826 60.913C498.826 60.8193 498.799 60.7457 498.743 60.6923C498.688 60.6381 498.612 60.6109 498.515 60.6109H497.92V61.1717ZM497.92 60.3233H498.391C498.465 60.3233 498.528 60.3128 498.581 60.2918C498.634 60.2708 498.675 60.241 498.703 60.2025C498.732 60.1631 498.746 60.1167 498.746 60.0633C498.746 59.9854 498.714 59.9245 498.65 59.8807C498.586 59.837 498.499 59.8151 498.387 59.8151H497.92V60.3233ZM500.495 61.5407C500.3 61.5407 500.132 61.4965 499.991 61.4081C499.851 61.3188 499.743 61.1958 499.668 61.039C499.593 60.8823 499.555 60.7028 499.555 60.5006C499.555 60.2957 499.593 60.1149 499.671 59.9582C499.748 59.8006 499.856 59.6776 499.996 59.5892C500.136 59.5008 500.301 59.4565 500.491 59.4565C500.645 59.4565 500.781 59.485 500.901 59.5419C501.021 59.5979 501.118 59.6767 501.191 59.7783C501.266 59.8799 501.31 59.9985 501.324 60.1342H500.942C500.921 60.0396 500.873 59.9582 500.797 59.8899C500.723 59.8216 500.623 59.7875 500.498 59.7875C500.388 59.7875 500.293 59.8164 500.21 59.8742C500.129 59.9311 500.065 60.0125 500.02 60.1184C499.974 60.2235 499.952 60.3478 499.952 60.4914C499.952 60.6385 499.974 60.7654 500.019 60.8723C500.063 60.9791 500.126 61.0618 500.208 61.1205C500.29 61.1791 500.387 61.2085 500.498 61.2085C500.572 61.2085 500.64 61.1949 500.7 61.1677C500.761 61.1397 500.813 61.0999 500.854 61.0482C500.896 60.9966 500.925 60.9344 500.942 60.8617H501.324C501.31 60.9922 501.267 61.1086 501.197 61.2111C501.126 61.3135 501.031 61.3941 500.912 61.4527C500.793 61.5114 500.655 61.5407 500.495 61.5407ZM502.613 61.5407C502.415 61.5407 502.243 61.4982 502.1 61.4133C501.957 61.3275 501.847 61.2071 501.769 61.0522C501.692 60.8963 501.653 60.7138 501.653 60.5045C501.653 60.2979 501.692 60.1158 501.769 59.9582C501.847 59.8006 501.955 59.6776 502.095 59.5892C502.235 59.5008 502.398 59.4565 502.586 59.4565C502.699 59.4565 502.81 59.4754 502.917 59.513C503.023 59.5507 503.119 59.6098 503.204 59.6903C503.289 59.7709 503.356 59.8755 503.405 60.0042C503.454 60.132 503.479 60.2874 503.479 60.4704V60.6096H501.875V60.3154H503.094C503.094 60.2121 503.073 60.1206 503.031 60.041C502.989 59.9604 502.93 59.8969 502.854 59.8505C502.778 59.8041 502.69 59.7809 502.588 59.7809C502.478 59.7809 502.382 59.8081 502.299 59.8623C502.218 59.9158 502.155 59.9858 502.11 60.0725C502.066 60.1583 502.045 60.2515 502.045 60.3522V60.582C502.045 60.7169 502.068 60.8315 502.116 60.9261C502.164 61.0207 502.231 61.0929 502.316 61.1428C502.402 61.1918 502.502 61.2163 502.617 61.2163C502.692 61.2163 502.759 61.2058 502.821 61.1848C502.882 61.1629 502.935 61.1305 502.98 61.0876C503.024 61.0447 503.058 60.9918 503.082 60.9287L503.454 60.9957C503.424 61.1051 503.371 61.201 503.294 61.2833C503.217 61.3647 503.121 61.4282 503.006 61.4737C502.891 61.5184 502.76 61.5407 502.613 61.5407ZM505.204 59.4828V59.8216H504.302V61.5H503.914V59.4828H505.204ZM506.375 61.5407C506.186 61.5407 506.021 61.4974 505.88 61.4107C505.739 61.324 505.629 61.2028 505.551 61.0469C505.473 60.8911 505.434 60.709 505.434 60.5006C505.434 60.2913 505.473 60.1084 505.551 59.9516C505.629 59.7949 505.739 59.6732 505.88 59.5866C506.021 59.4999 506.186 59.4565 506.375 59.4565C506.564 59.4565 506.729 59.4999 506.87 59.5866C507.011 59.6732 507.12 59.7949 507.198 59.9516C507.276 60.1084 507.315 60.2913 507.315 60.5006C507.315 60.709 507.276 60.8911 507.198 61.0469C507.12 61.2028 507.011 61.324 506.87 61.4107C506.729 61.4974 506.564 61.5407 506.375 61.5407ZM506.376 61.2111C506.499 61.2111 506.6 61.1787 506.681 61.1139C506.761 61.0491 506.821 60.9629 506.859 60.8552C506.899 60.7475 506.918 60.6289 506.918 60.4993C506.918 60.3706 506.899 60.2524 506.859 60.1447C506.821 60.0361 506.761 59.949 506.681 59.8834C506.6 59.8177 506.499 59.7849 506.376 59.7849C506.253 59.7849 506.15 59.8177 506.069 59.8834C505.988 59.949 505.928 60.0361 505.889 60.1447C505.85 60.2524 505.831 60.3706 505.831 60.4993C505.831 60.6289 505.85 60.7475 505.889 60.8552C505.928 60.9629 505.988 61.0491 506.069 61.1139C506.15 61.1787 506.253 61.2111 506.376 61.2111Z" fill="#88909C"/>
</g>
<defs>
<filter id="filter0_dd_118_778" x="0.5" y="2" width="296" height="111" filterUnits="userSpaceOnUse" color-interpolation-filters="sRGB">
<feFlood flood-opacity="0" result="BackgroundImageFix"/>
<feColorMatrix in="SourceAlpha" type="matrix" values="0 0 0 0 0 0 0 0 0 0 0 0 0 0 0 0 0 0 127 0" result="hardAlpha"/>
<feOffset dy="2"/>
<feGaussianBlur stdDeviation="2"/>
<feColorMatrix type="matrix" values="0 0 0 0 0 0 0 0 0 0 0 0 0 0 0 0 0 0 0.08 0"/>
<feBlend mode="normal" in2="BackgroundImageFix" result="effect1_dropShadow_118_778"/>
<feColorMatrix in="SourceAlpha" type="matrix" values="0 0 0 0 0 0 0 0 0 0 0 0 0 0 0 0 0 0 127 0" result="hardAlpha"/>
<feOffset/>
<feGaussianBlur stdDeviation="3"/>
<feColorMatrix type="matrix" values="0 0 0 0 0 0 0 0 0 0 0 0 0 0 0 0 0 0 0.02 0"/>
<feBlend mode="normal" in2="effect1_dropShadow_118_778" result="effect2_dropShadow_118_778"/>
<feBlend mode="normal" in="SourceGraphic" in2="effect2_dropShadow_118_778" result="shape"/>
</filter>
<filter id="filter1_d_118_778" x="22.7647" y="25.0022" width="11.4604" height="3.89776" filterUnits="userSpaceOnUse" color-interpolation-filters="sRGB">
<feFlood flood-opacity="0" result="BackgroundImageFix"/>
<feColorMatrix in="SourceAlpha" type="matrix" values="0 0 0 0 0 0 0 0 0 0 0 0 0 0 0 0 0 0 127 0" result="hardAlpha"/>
<feOffset dy="0.358138"/>
<feGaussianBlur stdDeviation="0.358138"/>
<feColorMatrix type="matrix" values="0 0 0 0 0.027451 0 0 0 0 0.811765 0 0 0 0 0.592157 0 0 0 0.36 0"/>
<feBlend mode="normal" in2="BackgroundImageFix" result="effect1_dropShadow_118_778"/>
<feBlend mode="normal" in="SourceGraphic" in2="effect1_dropShadow_118_778" result="shape"/>
</filter>
<filter id="filter2_d_118_778" x="23.8511" y="27.8972" width="8.49383" height="4.39911" filterUnits="userSpaceOnUse" color-interpolation-filters="sRGB">
<feFlood flood-opacity="0" result="BackgroundImageFix"/>
<feColorMatrix in="SourceAlpha" type="matrix" values="0 0 0 0 0 0 0 0 0 0 0 0 0 0 0 0 0 0 127 0" result="hardAlpha"/>
<feOffset dy="0.358138"/>
<feGaussianBlur stdDeviation="0.358138"/>
<feColorMatrix type="matrix" values="0 0 0 0 0.027451 0 0 0 0 0.811765 0 0 0 0 0.592157 0 0 0 0.36 0"/>
<feBlend mode="normal" in2="BackgroundImageFix" result="effect1_dropShadow_118_778"/>
<feBlend mode="normal" in="SourceGraphic" in2="effect1_dropShadow_118_778" result="shape"/>
</filter>
<filter id="filter3_d_118_778" x="26.5668" y="31.1234" width="3.89776" height="5.65258" filterUnits="userSpaceOnUse" color-interpolation-filters="sRGB">
<feFlood flood-opacity="0" result="BackgroundImageFix"/>
<feColorMatrix in="SourceAlpha" type="matrix" values="0 0 0 0 0 0 0 0 0 0 0 0 0 0 0 0 0 0 127 0" result="hardAlpha"/>
<feOffset dy="0.358138"/>
<feGaussianBlur stdDeviation="0.358138"/>
<feColorMatrix type="matrix" values="0 0 0 0 0.027451 0 0 0 0 0.811765 0 0 0 0 0.592157 0 0 0 0.36 0"/>
<feBlend mode="normal" in2="BackgroundImageFix" result="effect1_dropShadow_118_778"/>
<feBlend mode="normal" in="SourceGraphic" in2="effect1_dropShadow_118_778" result="shape"/>
</filter>
<filter id="filter4_dd_118_778" x="308.5" y="0" width="251" height="115" filterUnits="userSpaceOnUse" color-interpolation-filters="sRGB">
<feFlood flood-opacity="0" result="BackgroundImageFix"/>
<feColorMatrix in="SourceAlpha" type="matrix" values="0 0 0 0 0 0 0 0 0 0 0 0 0 0 0 0 0 0 127 0" result="hardAlpha"/>
<feOffset dy="2"/>
<feGaussianBlur stdDeviation="2"/>
<feColorMatrix type="matrix" values="0 0 0 0 0 0 0 0 0 0 0 0 0 0 0 0 0 0 0.08 0"/>
<feBlend mode="normal" in2="BackgroundImageFix" result="effect1_dropShadow_118_778"/>
<feColorMatrix in="SourceAlpha" type="matrix" values="0 0 0 0 0 0 0 0 0 0 0 0 0 0 0 0 0 0 127 0" result="hardAlpha"/>
<feOffset/>
<feGaussianBlur stdDeviation="3"/>
<feColorMatrix type="matrix" values="0 0 0 0 0 0 0 0 0 0 0 0 0 0 0 0 0 0 0.02 0"/>
<feBlend mode="normal" in2="effect1_dropShadow_118_778" result="effect2_dropShadow_118_778"/>
<feBlend mode="normal" in="SourceGraphic" in2="effect2_dropShadow_118_778" result="shape"/>
</filter>
<filter id="filter5_d_118_778" x="330.765" y="25.0022" width="11.4604" height="3.89776" filterUnits="userSpaceOnUse" color-interpolation-filters="sRGB">
<feFlood flood-opacity="0" result="BackgroundImageFix"/>
<feColorMatrix in="SourceAlpha" type="matrix" values="0 0 0 0 0 0 0 0 0 0 0 0 0 0 0 0 0 0 127 0" result="hardAlpha"/>
<feOffset dy="0.358138"/>
<feGaussianBlur stdDeviation="0.358138"/>
<feColorMatrix type="matrix" values="0 0 0 0 0.027451 0 0 0 0 0.811765 0 0 0 0 0.592157 0 0 0 0.36 0"/>
<feBlend mode="normal" in2="BackgroundImageFix" result="effect1_dropShadow_118_778"/>
<feBlend mode="normal" in="SourceGraphic" in2="effect1_dropShadow_118_778" result="shape"/>
</filter>
<filter id="filter6_d_118_778" x="331.851" y="27.8972" width="8.49383" height="4.39911" filterUnits="userSpaceOnUse" color-interpolation-filters="sRGB">
<feFlood flood-opacity="0" result="BackgroundImageFix"/>
<feColorMatrix in="SourceAlpha" type="matrix" values="0 0 0 0 0 0 0 0 0 0 0 0 0 0 0 0 0 0 127 0" result="hardAlpha"/>
<feOffset dy="0.358138"/>
<feGaussianBlur stdDeviation="0.358138"/>
<feColorMatrix type="matrix" values="0 0 0 0 0.027451 0 0 0 0 0.811765 0 0 0 0 0.592157 0 0 0 0.36 0"/>
<feBlend mode="normal" in2="BackgroundImageFix" result="effect1_dropShadow_118_778"/>
<feBlend mode="normal" in="SourceGraphic" in2="effect1_dropShadow_118_778" result="shape"/>
</filter>
<filter id="filter7_d_118_778" x="334.567" y="31.1234" width="3.89776" height="5.65258" filterUnits="userSpaceOnUse" color-interpolation-filters="sRGB">
<feFlood flood-opacity="0" result="BackgroundImageFix"/>
<feColorMatrix in="SourceAlpha" type="matrix" values="0 0 0 0 0 0 0 0 0 0 0 0 0 0 0 0 0 0 127 0" result="hardAlpha"/>
<feOffset dy="0.358138"/>
<feGaussianBlur stdDeviation="0.358138"/>
<feColorMatrix type="matrix" values="0 0 0 0 0.027451 0 0 0 0 0.811765 0 0 0 0 0.592157 0 0 0 0.36 0"/>
<feBlend mode="normal" in2="BackgroundImageFix" result="effect1_dropShadow_118_778"/>
<feBlend mode="normal" in="SourceGraphic" in2="effect1_dropShadow_118_778" result="shape"/>
</filter>
<filter id="filter8_d_118_778" x="498.002" y="45.6515" width="7.98856" height="2.71696" filterUnits="userSpaceOnUse" color-interpolation-filters="sRGB">
<feFlood flood-opacity="0" result="BackgroundImageFix"/>
<feColorMatrix in="SourceAlpha" type="matrix" values="0 0 0 0 0 0 0 0 0 0 0 0 0 0 0 0 0 0 127 0" result="hardAlpha"/>
<feOffset dy="0.249643"/>
<feGaussianBlur stdDeviation="0.249643"/>
<feColorMatrix type="matrix" values="0 0 0 0 0.027451 0 0 0 0 0.811765 0 0 0 0 0.592157 0 0 0 0.36 0"/>
<feBlend mode="normal" in2="BackgroundImageFix" result="effect1_dropShadow_118_778"/>
<feBlend mode="normal" in="SourceGraphic" in2="effect1_dropShadow_118_778" result="shape"/>
</filter>
<filter id="filter9_d_118_778" x="498.76" y="47.6695" width="5.92069" height="3.06644" filterUnits="userSpaceOnUse" color-interpolation-filters="sRGB">
<feFlood flood-opacity="0" result="BackgroundImageFix"/>
<feColorMatrix in="SourceAlpha" type="matrix" values="0 0 0 0 0 0 0 0 0 0 0 0 0 0 0 0 0 0 127 0" result="hardAlpha"/>
<feOffset dy="0.249643"/>
<feGaussianBlur stdDeviation="0.249643"/>
<feColorMatrix type="matrix" values="0 0 0 0 0.027451 0 0 0 0 0.811765 0 0 0 0 0.592157 0 0 0 0.36 0"/>
<feBlend mode="normal" in2="BackgroundImageFix" result="effect1_dropShadow_118_778"/>
<feBlend mode="normal" in="SourceGraphic" in2="effect1_dropShadow_118_778" result="shape"/>
</filter>
<filter id="filter10_d_118_778" x="500.652" y="49.9184" width="2.71696" height="3.94022" filterUnits="userSpaceOnUse" color-interpolation-filters="sRGB">
<feFlood flood-opacity="0" result="BackgroundImageFix"/>
<feColorMatrix in="SourceAlpha" type="matrix" values="0 0 0 0 0 0 0 0 0 0 0 0 0 0 0 0 0 0 127 0" result="hardAlpha"/>
<feOffset dy="0.249643"/>
<feGaussianBlur stdDeviation="0.249643"/>
<feColorMatrix type="matrix" values="0 0 0 0 0.027451 0 0 0 0 0.811765 0 0 0 0 0.592157 0 0 0 0.36 0"/>
<feBlend mode="normal" in2="BackgroundImageFix" result="effect1_dropShadow_118_778"/>
<feBlend mode="normal" in="SourceGraphic" in2="effect1_dropShadow_118_778" result="shape"/>
</filter>
<linearGradient id="paint0_linear_118_778" x1="213.752" y1="-83.4483" x2="218.399" y2="94.9375" gradientUnits="userSpaceOnUse">
<stop stop-color="#50FFCE"/>
<stop offset="1" stop-color="#07CF97" stop-opacity="0"/>
</linearGradient>
<radialGradient id="paint1_radial_118_778" cx="0" cy="0" r="1" gradientUnits="userSpaceOnUse" gradientTransform="translate(542.894 58.6618) rotate(172.035) scale(125.754 85.0369)">
<stop stop-color="#5FFFD2"/>
<stop offset="1" stop-color="#07CF97"/>
</radialGradient>
<radialGradient id="paint2_radial_118_778" cx="0" cy="0" r="1" gradientUnits="userSpaceOnUse" gradientTransform="translate(504.556 23.5765) rotate(55.9679) scale(64.7665 43.796)">
<stop stop-color="#31E6B3"/>
<stop offset="1" stop-color="#09BE8B"/>
</radialGradient>
</defs>
</svg>
