<svg width="97" height="96" viewBox="0 0 97 96" fill="none" xmlns="http://www.w3.org/2000/svg">
<path d="M92.115 47.361C92.115 71.3055 72.7041 90.7163 48.7596 90.7163C24.8151 90.7163 5.4043 71.3055 5.4043 47.361C5.4043 23.4165 24.8151 4.00562 48.7596 4.00562C72.7041 4.00562 92.115 23.4165 92.115 47.361ZM12.9536 47.361C12.9536 67.1361 28.9845 83.167 48.7596 83.167C68.5348 83.167 84.5657 67.1361 84.5657 47.361C84.5657 27.5858 68.5348 11.5549 48.7596 11.5549C28.9845 11.5549 12.9536 27.5858 12.9536 47.361Z" fill="#ECF0F2"/>
<path d="M0.928711 47.6407C0.928711 73.9024 22.218 95.1917 48.4797 95.1917C74.7414 95.1917 96.0308 73.9024 96.0308 47.6407C96.0308 21.379 74.7414 0.0896301 48.4797 0.0896301C22.218 0.0896301 0.928711 21.379 0.928711 47.6407ZM79.6135 47.6407C79.6135 64.8354 65.6744 78.7744 48.4797 78.7744C31.285 78.7744 17.346 64.8354 17.346 47.6407C17.346 30.446 31.285 16.5069 48.4797 16.5069C65.6744 16.5069 79.6135 30.446 79.6135 47.6407Z" fill="url(#paint0_radial_118_1527)"/>
<path d="M46.9694 8.32726C46.7954 3.7971 50.3507 -0.0893412 54.8434 0.517376C58.64 1.03008 62.3707 2.00108 65.9524 3.41617C72.0872 5.83996 77.6506 9.51362 82.2889 14.2036C86.9273 18.8936 90.5392 24.4973 92.8949 30.6585C95.2506 36.8197 96.2988 43.4037 95.9726 49.9919C95.6464 56.58 93.9532 63.0283 91.0004 68.9267C88.0476 74.8251 83.8999 80.0447 78.821 84.2536C73.7421 88.4625 67.8431 91.5687 61.4989 93.3747C57.795 94.4291 53.9866 95.0268 50.1579 95.1621C45.6272 95.3221 42.4732 91.1035 43.0938 86.6126C43.7144 82.1218 47.905 79.0975 52.4024 78.5263C53.9539 78.3293 55.4922 78.0151 57.004 77.5847C61.1578 76.4023 65.0201 74.3685 68.3455 71.6128C71.6709 68.857 74.3866 65.4395 76.3199 61.5776C78.2532 57.7156 79.3619 53.4937 79.5754 49.1801C79.789 44.8665 79.1027 40.5557 77.5603 36.5217C76.0179 32.4877 73.6531 28.8187 70.6161 25.7479C67.5792 22.6772 63.9366 20.2719 59.9199 18.6849C58.458 18.1074 56.9583 17.6428 55.4338 17.2935C51.0148 16.2809 47.1435 12.8574 46.9694 8.32726Z" fill="url(#paint1_radial_118_1527)"/>
<rect x="40.0886" y="29.1796" width="16.7827" height="16.7827" rx="8.39136" fill="#101010"/>
<g filter="url(#filter0_d_118_1527)">
<rect x="44.2683" y="33.6777" width="8.41474" height="2.06862" fill="#07CF97"/>
</g>
<g filter="url(#filter1_d_118_1527)">
<path d="M45.1802 36.5278L51.1056 36.1071V38.1757L45.1802 38.5964V36.5278Z" fill="#07CF97"/>
</g>
<g filter="url(#filter2_d_118_1527)">
<path d="M47.459 38.9896L49.5276 38.8143V42.3555H47.459V38.9896Z" fill="#07CF97"/>
</g>
<path d="M38.9568 57.1469V65.4726H37.1965V58.8177H37.1477L35.2411 60.0129V58.4519L37.3022 57.1469H38.9568ZM43.633 65.5865C43.0584 65.5865 42.5462 65.4808 42.0963 65.2694C41.6491 65.058 41.2941 64.7666 41.0312 64.3953C40.7683 64.024 40.6314 63.5985 40.6206 63.1188H42.328C42.347 63.4413 42.4825 63.7029 42.7345 63.9034C42.9866 64.104 43.286 64.2043 43.633 64.2043C43.9094 64.2043 44.1533 64.1433 44.3647 64.0213C44.5788 63.8966 44.7455 63.7245 44.8647 63.505C44.9867 63.2828 45.0477 63.028 45.0477 62.7407C45.0477 62.448 44.9853 62.1906 44.8607 61.9683C44.7387 61.7461 44.5693 61.5726 44.3525 61.448C44.1357 61.3233 43.8877 61.2596 43.6086 61.2569C43.3646 61.2569 43.1275 61.307 42.8971 61.4073C42.6695 61.5076 42.492 61.6445 42.3646 61.8179L40.7994 61.5374L41.1938 57.1469H46.2835V58.586H42.6451L42.4296 60.6715H42.4784C42.6248 60.4655 42.8456 60.2948 43.1411 60.1593C43.4365 60.0238 43.7671 59.956 44.133 59.956C44.6344 59.956 45.0816 60.0739 45.4745 60.3097C45.8675 60.5455 46.1778 60.8694 46.4055 61.2813C46.6331 61.6905 46.7456 62.1621 46.7429 62.696C46.7456 63.257 46.6155 63.7557 46.3526 64.1921C46.0925 64.6257 45.7279 64.9672 45.2591 65.2165C44.7929 65.4631 44.2509 65.5865 43.633 65.5865ZM50.8916 65.6556C50.1924 65.6529 49.5907 65.4808 49.0866 65.1393C48.5852 64.7978 48.199 64.3032 47.928 63.6554C47.6597 63.0077 47.5269 62.2285 47.5296 61.3179C47.5296 60.41 47.6638 59.6362 47.9321 58.9966C48.2031 58.357 48.5893 57.8705 49.0907 57.5372C49.5948 57.2011 50.1951 57.0331 50.8916 57.0331C51.5881 57.0331 52.1871 57.2011 52.6885 57.5372C53.1926 57.8732 53.5801 58.3611 53.8512 59.0007C54.1222 59.6376 54.2563 60.41 54.2536 61.3179C54.2536 62.2312 54.1181 63.0118 53.8471 63.6595C53.5788 64.3072 53.1939 64.8019 52.6926 65.1433C52.1912 65.4848 51.5909 65.6556 50.8916 65.6556ZM50.8916 64.1961C51.3686 64.1961 51.7494 63.9563 52.034 63.4766C52.3185 62.9969 52.4595 62.2773 52.4568 61.3179C52.4568 60.6864 52.3917 60.1606 52.2616 59.7406C52.1343 59.3205 51.9527 59.0047 51.7169 58.7933C51.4838 58.5819 51.2087 58.4762 50.8916 58.4762C50.4173 58.4762 50.0379 58.7134 49.7533 59.1877C49.4688 59.662 49.3251 60.372 49.3224 61.3179C49.3224 61.9575 49.3861 62.4914 49.5135 62.9196C49.6436 63.3451 49.8265 63.6649 50.0623 63.879C50.2981 64.0904 50.5745 64.1961 50.8916 64.1961ZM59.7226 63.9116V63.4725C59.7226 63.1391 59.793 62.8329 59.934 62.5537C60.0776 62.2719 60.2849 62.0469 60.5559 61.8789C60.8297 61.7082 61.163 61.6228 61.556 61.6228C61.9544 61.6228 62.2891 61.7068 62.5601 61.8748C62.8339 62.0429 63.0398 62.2678 63.1781 62.5497C63.319 62.8288 63.3895 63.1364 63.3895 63.4725V63.9116C63.3895 64.2449 63.319 64.5525 63.1781 64.8344C63.0371 65.1135 62.8298 65.3371 62.5561 65.5051C62.2823 65.6759 61.949 65.7613 61.556 65.7613C61.1576 65.7613 60.8229 65.6759 60.5519 65.5051C60.2809 65.3371 60.0749 65.1135 59.934 64.8344C59.793 64.5525 59.7226 64.2449 59.7226 63.9116ZM60.9056 63.4725V63.9116C60.9056 64.104 60.9516 64.2856 61.0438 64.4563C61.1386 64.627 61.3094 64.7124 61.556 64.7124C61.8026 64.7124 61.9707 64.6284 62.0601 64.4604C62.1523 64.2923 62.1983 64.1094 62.1983 63.9116V63.4725C62.1983 63.2747 62.155 63.0904 62.0682 62.9196C61.9815 62.7489 61.8108 62.6635 61.556 62.6635C61.3121 62.6635 61.1427 62.7489 61.0478 62.9196C60.953 63.0904 60.9056 63.2747 60.9056 63.4725ZM55.4499 59.147V58.708C55.4499 58.3719 55.5217 58.0643 55.6654 57.7851C55.809 57.5033 56.0164 57.2783 56.2874 57.1103C56.5611 56.9423 56.8918 56.8583 57.2793 56.8583C57.6804 56.8583 58.0165 56.9423 58.2875 57.1103C58.5585 57.2783 58.7645 57.5033 58.9054 57.7851C59.0464 58.0643 59.1168 58.3719 59.1168 58.708V59.147C59.1168 59.4831 59.045 59.7907 58.9014 60.0698C58.7604 60.349 58.5531 60.5726 58.2794 60.7406C58.0084 60.9059 57.675 60.9886 57.2793 60.9886C56.8836 60.9886 56.5489 60.9046 56.2752 60.7366C56.0042 60.5658 55.7982 60.3422 55.6573 60.0658C55.519 59.7866 55.4499 59.4804 55.4499 59.147ZM56.6411 58.708V59.147C56.6411 59.3449 56.6871 59.5278 56.7793 59.6958C56.8741 59.8639 57.0408 59.9479 57.2793 59.9479C57.5287 59.9479 57.698 59.8639 57.7875 59.6958C57.8796 59.5278 57.9257 59.3449 57.9257 59.147V58.708C57.9257 58.5101 57.8823 58.3258 57.7956 58.1551C57.7089 57.9843 57.5368 57.899 57.2793 57.899C57.0381 57.899 56.8714 57.9857 56.7793 58.1592C56.6871 58.3326 56.6411 58.5155 56.6411 58.708ZM55.9865 65.4726L61.7105 57.1469H62.7756L57.0517 65.4726H55.9865Z" fill="#101010"/>
<path d="M43.0027 52.6407V50.2123H44.0098C44.2838 50.2123 44.5009 50.2708 44.6611 50.3878C44.8213 50.5037 44.9014 50.6613 44.9014 50.8605C44.9014 51.0028 44.8561 51.1156 44.7655 51.1988C44.6748 51.2821 44.5547 51.338 44.405 51.3664C44.5136 51.3791 44.6132 51.4117 44.7038 51.4644C44.7944 51.5161 44.8672 51.5856 44.922 51.6731C44.9778 51.7606 45.0058 51.8649 45.0058 51.9861C45.0058 52.1147 44.9726 52.2286 44.9062 52.3276C44.8398 52.4256 44.7433 52.5026 44.6168 52.5584C44.4914 52.6133 44.3402 52.6407 44.1631 52.6407H43.0027ZM43.4469 52.2454H44.1631C44.2801 52.2454 44.3718 52.2175 44.4382 52.1616C44.5046 52.1058 44.5378 52.0299 44.5378 51.934C44.5378 51.8212 44.5046 51.7327 44.4382 51.6684C44.3718 51.603 44.2801 51.5704 44.1631 51.5704H43.4469V52.2454ZM43.4469 51.2241H44.0145C44.103 51.2241 44.1789 51.2115 44.2422 51.1862C44.3065 51.1609 44.3555 51.1251 44.3892 51.0787C44.424 51.0312 44.4414 50.9754 44.4414 50.9111C44.4414 50.8173 44.4029 50.744 44.326 50.6913C44.249 50.6386 44.1436 50.6123 44.0098 50.6123H43.4469V51.2241ZM46.5472 52.6897C46.3122 52.6897 46.1098 52.6364 45.9401 52.53C45.7715 52.4225 45.6418 52.2744 45.5512 52.0857C45.4605 51.8971 45.4152 51.681 45.4152 51.4376C45.4152 51.1909 45.4616 50.9733 45.5543 50.7846C45.6471 50.5949 45.7778 50.4468 45.9464 50.3404C46.1151 50.2339 46.3137 50.1807 46.5424 50.1807C46.7269 50.1807 46.8913 50.215 47.0357 50.2835C47.1801 50.3509 47.2966 50.4458 47.3851 50.568C47.4747 50.6903 47.5279 50.8331 47.5448 50.9965H47.0847C47.0594 50.8826 47.0014 50.7846 46.9108 50.7024C46.8212 50.6202 46.7011 50.5791 46.5503 50.5791C46.4186 50.5791 46.3032 50.6139 46.2041 50.6834C46.1061 50.7519 46.0297 50.85 45.9749 50.9775C45.9201 51.104 45.8927 51.2536 45.8927 51.4265C45.8927 51.6036 45.9195 51.7564 45.9733 51.885C46.0271 52.0135 46.1029 52.1131 46.201 52.1838C46.3 52.2544 46.4165 52.2897 46.5503 52.2897C46.6399 52.2897 46.7211 52.2733 46.7938 52.2407C46.8676 52.2069 46.9292 52.159 46.9788 52.0968C47.0294 52.0346 47.0647 51.9598 47.0847 51.8723H47.5448C47.5279 52.0294 47.4768 52.1695 47.3914 52.2928C47.306 52.4162 47.1917 52.5131 47.0483 52.5837C46.9061 52.6544 46.739 52.6897 46.5472 52.6897ZM49.0969 52.6897C48.8576 52.6897 48.6516 52.6385 48.4787 52.5363C48.3069 52.433 48.1741 52.2881 48.0803 52.1016C47.9876 51.9139 47.9412 51.6942 47.9412 51.4423C47.9412 51.1936 47.9876 50.9743 48.0803 50.7846C48.1741 50.5949 48.3048 50.4468 48.4724 50.3404C48.641 50.2339 48.8381 50.1807 49.0637 50.1807C49.2007 50.1807 49.3335 50.2034 49.4621 50.2487C49.5906 50.294 49.7061 50.3651 49.8083 50.4621C49.9105 50.5591 49.9912 50.685 50.0502 50.84C50.1092 50.9938 50.1387 51.1809 50.1387 51.4012V51.5688H48.2084V51.2146H49.6755C49.6755 51.0903 49.6502 50.9801 49.5996 50.8842C49.549 50.7873 49.4779 50.7108 49.3862 50.655C49.2955 50.5991 49.1891 50.5712 49.0668 50.5712C48.934 50.5712 48.8181 50.6039 48.719 50.6692C48.621 50.7335 48.5451 50.8178 48.4914 50.9222C48.4387 51.0255 48.4123 51.1377 48.4123 51.2589V51.5356C48.4123 51.6979 48.4408 51.836 48.4977 51.9498C48.5557 52.0636 48.6363 52.1506 48.7396 52.2106C48.8429 52.2697 48.9635 52.2992 49.1016 52.2992C49.1912 52.2992 49.2729 52.2865 49.3467 52.2612C49.4204 52.2349 49.4842 52.1959 49.5379 52.1442C49.5917 52.0926 49.6328 52.0288 49.6613 51.9529L50.1087 52.0336C50.0728 52.1653 50.0085 52.2807 49.9158 52.3798C49.8241 52.4778 49.7087 52.5542 49.5696 52.609C49.4315 52.6628 49.2739 52.6897 49.0969 52.6897ZM52.2157 50.2123V50.6202H51.1296V52.6407H50.6632V50.2123H52.2157ZM53.6251 52.6897C53.3974 52.6897 53.1988 52.6375 53.0291 52.5332C52.8594 52.4288 52.7276 52.2828 52.6338 52.0952C52.54 51.9076 52.4931 51.6884 52.4931 51.4376C52.4931 51.1857 52.54 50.9654 52.6338 50.7767C52.7276 50.5881 52.8594 50.4416 53.0291 50.3372C53.1988 50.2329 53.3974 50.1807 53.6251 50.1807C53.8528 50.1807 54.0514 50.2329 54.2211 50.3372C54.3908 50.4416 54.5226 50.5881 54.6164 50.7767C54.7102 50.9654 54.7571 51.1857 54.7571 51.4376C54.7571 51.6884 54.7102 51.9076 54.6164 52.0952C54.5226 52.2828 54.3908 52.4288 54.2211 52.5332C54.0514 52.6375 53.8528 52.6897 53.6251 52.6897ZM53.6267 52.2928C53.7742 52.2928 53.8965 52.2538 53.9935 52.1759C54.0904 52.0979 54.1621 51.994 54.2085 51.8644C54.2559 51.7348 54.2796 51.592 54.2796 51.436C54.2796 51.281 54.2559 51.1388 54.2085 51.0091C54.1621 50.8784 54.0904 50.7736 53.9935 50.6945C53.8965 50.6155 53.7742 50.5759 53.6267 50.5759C53.4781 50.5759 53.3548 50.6155 53.2567 50.6945C53.1598 50.7736 53.0876 50.8784 53.0401 51.0091C52.9938 51.1388 52.9706 51.281 52.9706 51.436C52.9706 51.592 52.9938 51.7348 53.0401 51.8644C53.0876 51.994 53.1598 52.0979 53.2567 52.1759C53.3548 52.2538 53.4781 52.2928 53.6267 52.2928Z" fill="#88909C"/>
<defs>
<filter id="filter0_d_118_1527" x="43.6673" y="33.3772" width="9.6169" height="3.27074" filterUnits="userSpaceOnUse" color-interpolation-filters="sRGB">
<feFlood flood-opacity="0" result="BackgroundImageFix"/>
<feColorMatrix in="SourceAlpha" type="matrix" values="0 0 0 0 0 0 0 0 0 0 0 0 0 0 0 0 0 0 127 0" result="hardAlpha"/>
<feOffset dy="0.300527"/>
<feGaussianBlur stdDeviation="0.300527"/>
<feColorMatrix type="matrix" values="0 0 0 0 0.027451 0 0 0 0 0.811765 0 0 0 0 0.592157 0 0 0 0.36 0"/>
<feBlend mode="normal" in2="BackgroundImageFix" result="effect1_dropShadow_118_1527"/>
<feBlend mode="normal" in="SourceGraphic" in2="effect1_dropShadow_118_1527" result="shape"/>
</filter>
<filter id="filter1_d_118_1527" x="44.5791" y="35.8065" width="7.1274" height="3.69146" filterUnits="userSpaceOnUse" color-interpolation-filters="sRGB">
<feFlood flood-opacity="0" result="BackgroundImageFix"/>
<feColorMatrix in="SourceAlpha" type="matrix" values="0 0 0 0 0 0 0 0 0 0 0 0 0 0 0 0 0 0 127 0" result="hardAlpha"/>
<feOffset dy="0.300527"/>
<feGaussianBlur stdDeviation="0.300527"/>
<feColorMatrix type="matrix" values="0 0 0 0 0.027451 0 0 0 0 0.811765 0 0 0 0 0.592157 0 0 0 0.36 0"/>
<feBlend mode="normal" in2="BackgroundImageFix" result="effect1_dropShadow_118_1527"/>
<feBlend mode="normal" in="SourceGraphic" in2="effect1_dropShadow_118_1527" result="shape"/>
</filter>
<filter id="filter2_d_118_1527" x="46.8579" y="38.5138" width="3.27071" height="4.7433" filterUnits="userSpaceOnUse" color-interpolation-filters="sRGB">
<feFlood flood-opacity="0" result="BackgroundImageFix"/>
<feColorMatrix in="SourceAlpha" type="matrix" values="0 0 0 0 0 0 0 0 0 0 0 0 0 0 0 0 0 0 127 0" result="hardAlpha"/>
<feOffset dy="0.300527"/>
<feGaussianBlur stdDeviation="0.300527"/>
<feColorMatrix type="matrix" values="0 0 0 0 0.027451 0 0 0 0 0.811765 0 0 0 0 0.592157 0 0 0 0.36 0"/>
<feBlend mode="normal" in2="BackgroundImageFix" result="effect1_dropShadow_118_1527"/>
<feBlend mode="normal" in="SourceGraphic" in2="effect1_dropShadow_118_1527" result="shape"/>
</filter>
<radialGradient id="paint0_radial_118_1527" cx="0" cy="0" r="1" gradientUnits="userSpaceOnUse" gradientTransform="translate(97.709 49.0392) rotate(172.035) scale(151.386 102.369)">
<stop stop-color="#5FFFD2"/>
<stop offset="1" stop-color="#07CF97"/>
</radialGradient>
<radialGradient id="paint1_radial_118_1527" cx="0" cy="0" r="1" gradientUnits="userSpaceOnUse" gradientTransform="translate(51.5566 6.80272) rotate(55.9679) scale(77.9674 52.7226)">
<stop stop-color="#31E6B3"/>
<stop offset="1" stop-color="#09BE8B"/>
</radialGradient>
</defs>
</svg>
