<svg width="79" height="79" viewBox="0 0 79 79" fill="none" xmlns="http://www.w3.org/2000/svg">
<path d="M75.7471 39.2676C75.7471 59.158 59.6228 75.2823 39.7324 75.2823C19.842 75.2823 3.71768 59.158 3.71768 39.2676C3.71768 19.3773 19.842 3.25293 39.7324 3.25293C59.6228 3.25293 75.7471 19.3773 75.7471 39.2676ZM9.98876 39.2676C9.98876 55.6946 23.3054 69.0113 39.7324 69.0113C56.1593 69.0113 69.476 55.6946 69.476 39.2676C69.476 22.8407 56.1593 9.52401 39.7324 9.52401C23.3054 9.52401 9.98876 22.8407 9.98876 39.2676Z" fill="#ECF0F2"/>
<path d="M0 39.5C0 61.3152 17.6848 79 39.5 79C61.3152 79 79 61.3152 79 39.5C79 17.6848 61.3152 0 39.5 0C17.6848 0 0 17.6848 0 39.5ZM65.3624 39.5C65.3624 53.7834 53.7834 65.3624 39.5 65.3624C25.2166 65.3624 13.6376 53.7834 13.6376 39.5C13.6376 25.2166 25.2166 13.6376 39.5 13.6376C53.7834 13.6376 65.3624 25.2166 65.3624 39.5Z" fill="url(#paint0_radial_283_120)"/>
<path d="M38.2454 6.84289C38.1009 3.07975 41.0542 -0.148669 44.7862 0.355322C47.94 0.781223 51.0391 1.58781 54.0143 2.76331C59.1104 4.77673 63.7318 7.82838 67.5849 11.7243C71.4379 15.6202 74.4382 20.2751 76.3951 25.3932C78.352 30.5112 79.2226 35.9804 78.9517 41.4531C78.6808 46.9258 77.2742 52.2823 74.8213 57.182C72.3685 62.0818 68.9231 66.4176 64.7041 69.9139C60.4851 73.4102 55.5849 75.9904 50.3148 77.4906C47.238 78.3665 44.0745 78.8631 40.894 78.9754C37.1305 79.1083 34.5104 75.604 35.026 71.8735C35.5415 68.143 39.0226 65.6308 42.7585 65.1563C44.0473 64.9926 45.3252 64.7316 46.581 64.3742C50.0315 63.3919 53.2399 61.7025 56.0022 59.4133C58.7646 57.1241 61.0205 54.2853 62.6264 51.0772C64.2324 47.8691 65.1534 44.362 65.3308 40.7788C65.5082 37.1956 64.9381 33.6146 63.6568 30.2636C62.3756 26.9126 60.4111 23.8648 57.8884 21.314C55.3657 18.7632 52.3398 16.7651 49.0032 15.4469C47.7888 14.9671 46.543 14.5812 45.2766 14.291C41.6059 13.4498 38.39 10.606 38.2454 6.84289Z" fill="url(#paint1_radial_283_120)"/>
<defs>
<radialGradient id="paint0_radial_283_120" cx="0" cy="0" r="1" gradientUnits="userSpaceOnUse" gradientTransform="translate(80.3941 40.6618) rotate(172.035) scale(125.754 85.0369)">
<stop stop-color="#5FFFD2"/>
<stop offset="1" stop-color="#07CF97"/>
</radialGradient>
<radialGradient id="paint1_radial_283_120" cx="0" cy="0" r="1" gradientUnits="userSpaceOnUse" gradientTransform="translate(42.0559 5.57647) rotate(55.9679) scale(64.7665 43.796)">
<stop stop-color="#31E6B3"/>
<stop offset="1" stop-color="#09BE8B"/>
</radialGradient>
</defs>
</svg>
